<ttFont>
    <TTGlyph name=".notdef" xMin="-49" yMin="-192" xMax="535" yMax="832">
      <contour>
        <pt x="155" y="832" on="1"/>
        <pt x="535" y="832" on="1"/>
        <pt x="331" y="-192" on="1"/>
        <pt x="-49" y="-192" on="1"/>
      </contour>
      <contour>
        <pt x="129" y="16" on="0"/>
        <pt x="159" y="-10" on="0"/>
        <pt x="182" y="-10" on="1"/>
        <pt x="210" y="-10" on="0"/>
        <pt x="249" y="26" on="0"/>
        <pt x="249" y="59" on="1"/>
        <pt x="249" y="82" on="0"/>
        <pt x="219" y="108" on="0"/>
        <pt x="197" y="108" on="1"/>
        <pt x="169" y="108" on="0"/>
        <pt x="129" y="71" on="0"/>
        <pt x="129" y="39" on="1"/>
      </contour>
      <contour>
        <pt x="293" y="584" on="0"/>
        <pt x="377" y="542" on="0"/>
        <pt x="377" y="511" on="1"/>
        <pt x="377" y="504" on="0"/>
        <pt x="375" y="494" on="1"/>
        <pt x="370" y="466" on="0"/>
        <pt x="338" y="426" on="0"/>
        <pt x="308" y="398" on="1"/>
        <pt x="277" y="369" on="0"/>
        <pt x="236" y="322" on="0"/>
        <pt x="197" y="246" on="0"/>
        <pt x="185" y="192" on="1"/>
        <pt x="245" y="192" on="1"/>
        <pt x="258" y="256" on="0"/>
        <pt x="312" y="331" on="0"/>
        <pt x="356" y="370" on="1"/>
        <pt x="392" y="403" on="0"/>
        <pt x="429" y="451" on="0"/>
        <pt x="436" y="488" on="1"/>
        <pt x="439" y="505" on="0"/>
        <pt x="439" y="520" on="1"/>
        <pt x="439" y="578" on="0"/>
        <pt x="320" y="641" on="0"/>
        <pt x="183" y="645" on="1"/>
        <pt x="173" y="590" on="1"/>
      </contour>
    </TTGlyph>
    <TTGlyph name="A" xMin="-8" yMin="0" xMax="382" yMax="643">
      <contour>
        <pt x="45" y="187" on="0"/>
        <pt x="192" y="520" on="0"/>
        <pt x="278" y="643" on="1"/>
        <pt x="332" y="643" on="1"/>
        <pt x="382" y="489" on="0"/>
        <pt x="382" y="262" on="1"/>
        <pt x="382" y="131" on="0"/>
        <pt x="366" y="0" on="1"/>
        <pt x="301" y="0" on="1"/>
        <pt x="313" y="104" on="0"/>
        <pt x="316" y="196" on="1"/>
        <pt x="122" y="196" on="1"/>
        <pt x="83" y="85" on="0"/>
        <pt x="58" y="0" on="1"/>
        <pt x="-8" y="0" on="1"/>
      </contour>
      <contour>
        <pt x="318" y="252" on="1"/>
        <pt x="318" y="287" on="1"/>
        <pt x="318" y="449" on="0"/>
        <pt x="293" y="562" on="1"/>
        <pt x="214" y="434" on="0"/>
        <pt x="143" y="252" on="1"/>
      </contour>
    </TTGlyph>
    <TTGlyph name="A.hex" xMin="-8" yMin="0" xMax="376" yMax="579">
      <contour>
        <pt x="42" y="170" on="0"/>
        <pt x="182" y="470" on="0"/>
        <pt x="265" y="579" on="1"/>
        <pt x="319" y="579" on="1"/>
        <pt x="376" y="428" on="0"/>
        <pt x="376" y="200" on="1"/>
        <pt x="376" y="107" on="0"/>
        <pt x="365" y="0" on="1"/>
        <pt x="301" y="0" on="1"/>
        <pt x="309" y="93" on="0"/>
        <pt x="310" y="132" on="1"/>
        <pt x="102" y="132" on="1"/>
        <pt x="83" y="78" on="0"/>
        <pt x="59" y="0" on="1"/>
        <pt x="-8" y="0" on="1"/>
      </contour>
      <contour>
        <pt x="312" y="188" on="1"/>
        <pt x="315" y="372" on="0"/>
        <pt x="281" y="500" on="1"/>
        <pt x="195" y="373" on="0"/>
        <pt x="123" y="188" on="1"/>
      </contour>
    </TTGlyph>
    <TTGlyph name="A.short" xMin="-8" yMin="0" xMax="376" yMax="579">
      <component glyphName="A.hex" x="0" y="0" flags="0x400"/>
    </TTGlyph>
    <TTGlyph name="A.sups" xMin="132" yMin="320" xMax="361" yMax="642">
      <contour>
        <pt x="182" y="503" on="0"/>
        <pt x="275" y="642" on="1"/>
        <pt x="335" y="642" on="1"/>
        <pt x="361" y="558" on="0"/>
        <pt x="361" y="450" on="1"/>
        <pt x="361" y="388" on="0"/>
        <pt x="352" y="320" on="1"/>
        <pt x="297" y="320" on="1"/>
        <pt x="300" y="343" on="1"/>
        <pt x="304" y="382" on="0"/>
        <pt x="305" y="397" on="1"/>
        <pt x="213" y="397" on="1"/>
        <pt x="190" y="320" on="1"/>
        <pt x="132" y="320" on="1"/>
      </contour>
      <contour>
        <pt x="308" y="446" on="1"/>
        <pt x="309" y="522" on="0"/>
        <pt x="298" y="587" on="1"/>
        <pt x="263" y="531" on="0"/>
        <pt x="231" y="446" on="1"/>
      </contour>
    </TTGlyph>
    <TTGlyph name="AE" xMin="-8" yMin="0" xMax="686" yMax="640">
      <contour>
        <pt x="579" y="56" on="1"/>
        <pt x="568" y="0" on="1"/>
        <pt x="260" y="0" on="1"/>
        <pt x="299" y="196" on="1"/>
        <pt x="121" y="196" on="1"/>
        <pt x="88" y="107" on="0"/>
        <pt x="57" y="0" on="1"/>
        <pt x="-8" y="0" on="1"/>
        <pt x="45" y="185" on="0"/>
        <pt x="193" y="518" on="0"/>
        <pt x="277" y="640" on="1"/>
        <pt x="686" y="640" on="1"/>
        <pt x="674" y="584" on="1"/>
        <pt x="439" y="584" on="1"/>
        <pt x="386" y="316" on="1"/>
        <pt x="567" y="316" on="1"/>
        <pt x="556" y="260" on="1"/>
        <pt x="374" y="260" on="1"/>
        <pt x="334" y="56" on="1"/>
      </contour>
      <contour>
        <pt x="310" y="252" on="1"/>
        <pt x="377" y="584" on="1"/>
        <pt x="305" y="584" on="1"/>
        <pt x="220" y="453" on="0"/>
        <pt x="142" y="252" on="1"/>
      </contour>
    </TTGlyph>
    <TTGlyph name="AEacute" xMin="-8" yMin="0" xMax="686" yMax="832">
      <component glyphName="AE" x="0" y="0" flags="0x400"/>
      <component glyphName="acutecomb.case" x="152" y="0" flags="0x400"/>
    </TTGlyph>
    <TTGlyph name="Aacute" xMin="-8" yMin="0" xMax="448" yMax="832">
      <component glyphName="A" x="0" y="0" flags="0x400"/>
      <component glyphName="acutecomb.case" x="0" y="0" flags="0x400"/>
    </TTGlyph>
    <TTGlyph name="Abreve" xMin="-8" yMin="0" xMax="471" yMax="834">
      <component glyphName="A" x="0" y="0" flags="0x400"/>
      <component glyphName="uni0306.case" x="0" y="0" flags="0x400"/>
    </TTGlyph>
    <TTGlyph name="Acircumflex" xMin="-8" yMin="0" xMax="452" yMax="841">
      <component glyphName="A" x="0" y="0" flags="0x400"/>
      <component glyphName="uni0302.case" x="0" y="0" flags="0x400"/>
    </TTGlyph>
    <TTGlyph name="Adieresis" xMin="-8" yMin="0" xMax="473" yMax="814">
      <component glyphName="A" x="0" y="0" flags="0x400"/>
      <component glyphName="uni0308.case" x="0" y="0" flags="0x400"/>
    </TTGlyph>
    <TTGlyph name="Agrave" xMin="-8" yMin="0" xMax="382" yMax="832">
      <component glyphName="A" x="0" y="0" flags="0x400"/>
      <component glyphName="gravecomb.case" x="0" y="0" flags="0x400"/>
    </TTGlyph>
    <TTGlyph name="Alpha" xMin="-8" yMin="0" xMax="382" yMax="643">
      <component glyphName="A" x="0" y="0" flags="0x400"/>
    </TTGlyph>
    <TTGlyph name="Alphatonos" xMin="-8" yMin="0" xMax="382" yMax="704">
      <component glyphName="tonos" x="-192" y="0" flags="0x400"/>
      <component glyphName="Alpha" x="0" y="0" flags="0x400"/>
    </TTGlyph>
    <TTGlyph name="Amacron" xMin="-8" yMin="0" xMax="452" yMax="765">
      <component glyphName="A" x="0" y="0" flags="0x400"/>
      <component glyphName="uni0304.case" x="0" y="0" flags="0x400"/>
    </TTGlyph>
    <TTGlyph name="Aogonek" xMin="-8" yMin="-197" xMax="382" yMax="643">
      <component glyphName="A" x="0" y="0" flags="0x400"/>
      <component glyphName="uni0328" x="29" y="0" flags="0x400"/>
    </TTGlyph>
    <TTGlyph name="Aring" xMin="-8" yMin="0" xMax="439" yMax="885">
      <component glyphName="A" x="0" y="0" flags="0x400"/>
      <component glyphName="uni030A.case" x="13" y="64" flags="0x404"/>
    </TTGlyph>
    <TTGlyph name="Aringacute" xMin="-8" yMin="0" xMax="449" yMax="831">
      <component glyphName="A.short" x="0" y="0" flags="0x400"/>
      <component glyphName="uni030A.case" x="-20" y="-95" flags="0x404"/>
      <component glyphName="acutecomb.case" x="1" y="-1" flags="0x404"/>
    </TTGlyph>
    <TTGlyph name="Atilde" xMin="-8" yMin="0" xMax="495" yMax="837">
      <component glyphName="A" x="0" y="0" flags="0x400"/>
      <component glyphName="tildecomb.case" x="0" y="0" flags="0x400"/>
    </TTGlyph>
    <TTGlyph name="B" xMin="17" yMin="0" xMax="442" yMax="640">
      <contour>
        <pt x="145" y="640" on="1"/>
        <pt x="271" y="640" on="1"/>
        <pt x="354" y="640" on="0"/>
        <pt x="442" y="574" on="0"/>
        <pt x="442" y="512" on="1"/>
        <pt x="442" y="451" on="0"/>
        <pt x="375" y="352" on="0"/>
        <pt x="315" y="310" on="1"/>
        <pt x="355" y="298" on="0"/>
        <pt x="400" y="240" on="0"/>
        <pt x="400" y="197" on="1"/>
        <pt x="400" y="138" on="0"/>
        <pt x="340" y="49" on="0"/>
        <pt x="235" y="0" on="0"/>
        <pt x="169" y="0" on="1"/>
        <pt x="17" y="0" on="1"/>
      </contour>
      <contour>
        <pt x="169" y="56" on="1"/>
        <pt x="248" y="56" on="0"/>
        <pt x="335" y="130" on="0"/>
        <pt x="335" y="200" on="1"/>
        <pt x="335" y="238" on="0"/>
        <pt x="280" y="276" on="0"/>
        <pt x="217" y="276" on="1"/>
        <pt x="135" y="276" on="1"/>
        <pt x="91" y="56" on="1"/>
      </contour>
      <contour>
        <pt x="260" y="332" on="1"/>
        <pt x="311" y="362" on="0"/>
        <pt x="375" y="457" on="0"/>
        <pt x="375" y="511" on="1"/>
        <pt x="375" y="547" on="0"/>
        <pt x="322" y="584" on="0"/>
        <pt x="260" y="584" on="1"/>
        <pt x="196" y="584" on="1"/>
        <pt x="146" y="332" on="1"/>
      </contour>
    </TTGlyph>
    <TTGlyph name="B.hex" xMin="17" yMin="0" xMax="431" yMax="576">
      <contour>
        <pt x="132" y="576" on="1"/>
        <pt x="259" y="576" on="1"/>
        <pt x="341" y="576" on="0"/>
        <pt x="431" y="517" on="0"/>
        <pt x="431" y="459" on="1"/>
        <pt x="431" y="440" on="0"/>
        <pt x="427" y="424" on="1"/>
        <pt x="413" y="344" on="0"/>
        <pt x="312" y="277" on="1"/>
        <pt x="351" y="265" on="0"/>
        <pt x="396" y="213" on="0"/>
        <pt x="396" y="174" on="1"/>
        <pt x="396" y="160" on="0"/>
        <pt x="393" y="145" on="1"/>
        <pt x="379" y="75" on="0"/>
        <pt x="259" y="0" on="0"/>
        <pt x="169" y="0" on="1"/>
        <pt x="17" y="0" on="1"/>
      </contour>
      <contour>
        <pt x="169" y="56" on="1"/>
        <pt x="242" y="56" on="0"/>
        <pt x="319" y="106" on="0"/>
        <pt x="329" y="157" on="1"/>
        <pt x="331" y="171" on="0"/>
        <pt x="331" y="177" on="1"/>
        <pt x="331" y="209" on="0"/>
        <pt x="275" y="244" on="0"/>
        <pt x="211" y="244" on="1"/>
        <pt x="128" y="244" on="1"/>
        <pt x="91" y="56" on="1"/>
      </contour>
      <contour>
        <pt x="257" y="300" on="1"/>
        <pt x="299" y="324" on="0"/>
        <pt x="354" y="398" on="0"/>
        <pt x="362" y="436" on="1"/>
        <pt x="364" y="450" on="0"/>
        <pt x="364" y="457" on="1"/>
        <pt x="364" y="489" on="0"/>
        <pt x="309" y="520" on="0"/>
        <pt x="247" y="520" on="1"/>
        <pt x="183" y="520" on="1"/>
        <pt x="140" y="300" on="1"/>
      </contour>
    </TTGlyph>
    <TTGlyph name="B.short" xMin="17" yMin="0" xMax="431" yMax="576">
      <component glyphName="B.hex" x="0" y="0" flags="0x400"/>
    </TTGlyph>
    <TTGlyph name="B.sups" xMin="141" yMin="320" xMax="387" yMax="640">
      <contour>
        <pt x="205" y="640" on="1"/>
        <pt x="294" y="640" on="1"/>
        <pt x="339" y="640" on="0"/>
        <pt x="387" y="603" on="0"/>
        <pt x="387" y="572" on="1"/>
        <pt x="387" y="521" on="0"/>
        <pt x="331" y="478" on="1"/>
        <pt x="368" y="460" on="0"/>
        <pt x="368" y="420" on="1"/>
        <pt x="368" y="415" on="0"/>
        <pt x="366" y="403" on="1"/>
        <pt x="358" y="366" on="0"/>
        <pt x="295" y="320" on="0"/>
        <pt x="246" y="320" on="1"/>
        <pt x="141" y="320" on="1"/>
      </contour>
      <contour>
        <pt x="245" y="367" on="1"/>
        <pt x="273" y="367" on="0"/>
        <pt x="305" y="393" on="0"/>
        <pt x="309" y="414" on="1"/>
        <pt x="315" y="448" on="0"/>
        <pt x="266" y="448" on="1"/>
        <pt x="223" y="448" on="1"/>
        <pt x="206" y="367" on="1"/>
      </contour>
      <contour>
        <pt x="289" y="496" on="1"/>
        <pt x="307" y="510" on="0"/>
        <pt x="327" y="548" on="0"/>
        <pt x="327" y="566" on="1"/>
        <pt x="327" y="593" on="0"/>
        <pt x="286" y="593" on="1"/>
        <pt x="252" y="593" on="1"/>
        <pt x="232" y="496" on="1"/>
      </contour>
    </TTGlyph>
    <TTGlyph name="Beta" xMin="17" yMin="0" xMax="442" yMax="640">
      <component glyphName="B" x="0" y="0" flags="0x400"/>
    </TTGlyph>
    <TTGlyph name="C" xMin="48" yMin="-9" xMax="425" yMax="647">
      <contour>
        <pt x="124" y="-9" on="0"/>
        <pt x="48" y="70" on="0"/>
        <pt x="48" y="159" on="1"/>
        <pt x="48" y="222" on="0"/>
        <pt x="68" y="324" on="1"/>
        <pt x="92" y="445" on="0"/>
        <pt x="158" y="585" on="0"/>
        <pt x="254" y="647" on="0"/>
        <pt x="327" y="647" on="1"/>
        <pt x="375" y="647" on="0"/>
        <pt x="425" y="635" on="1"/>
        <pt x="408" y="584" on="1"/>
        <pt x="370" y="591" on="0"/>
        <pt x="330" y="591" on="1"/>
        <pt x="269" y="591" on="0"/>
        <pt x="198" y="536" on="0"/>
        <pt x="155" y="421" on="0"/>
        <pt x="134" y="314" on="1"/>
        <pt x="111" y="199" on="0"/>
        <pt x="111" y="149" on="1"/>
        <pt x="111" y="95" on="0"/>
        <pt x="158" y="47" on="0"/>
        <pt x="213" y="47" on="1"/>
        <pt x="255" y="47" on="0"/>
        <pt x="304" y="57" on="1"/>
        <pt x="308" y="4" on="1"/>
        <pt x="254" y="-9" on="0"/>
        <pt x="205" y="-9" on="1"/>
      </contour>
    </TTGlyph>
    <TTGlyph name="C.hex" xMin="60" yMin="-9" xMax="443" yMax="583">
      <contour>
        <pt x="142" y="-9" on="0"/>
        <pt x="60" y="68" on="0"/>
        <pt x="60" y="155" on="1"/>
        <pt x="60" y="215" on="0"/>
        <pt x="76" y="292" on="1"/>
        <pt x="97" y="401" on="0"/>
        <pt x="163" y="527" on="0"/>
        <pt x="264" y="583" on="0"/>
        <pt x="341" y="583" on="1"/>
        <pt x="390" y="583" on="0"/>
        <pt x="443" y="571" on="1"/>
        <pt x="426" y="520" on="1"/>
        <pt x="385" y="527" on="0"/>
        <pt x="343" y="527" on="1"/>
        <pt x="278" y="527" on="0"/>
        <pt x="203" y="478" on="0"/>
        <pt x="161" y="376" on="0"/>
        <pt x="142" y="282" on="1"/>
        <pt x="124" y="192" on="0"/>
        <pt x="124" y="147" on="1"/>
        <pt x="124" y="94" on="0"/>
        <pt x="176" y="47" on="0"/>
        <pt x="239" y="47" on="1"/>
        <pt x="284" y="47" on="0"/>
        <pt x="334" y="57" on="1"/>
        <pt x="338" y="4" on="1"/>
        <pt x="283" y="-9" on="0"/>
        <pt x="231" y="-9" on="1"/>
      </contour>
    </TTGlyph>
    <TTGlyph name="C.short" xMin="60" yMin="-9" xMax="443" yMax="583">
      <component glyphName="C.hex" x="0" y="0" flags="0x400"/>
    </TTGlyph>
    <TTGlyph name="C.sups" xMin="176" yMin="316" xMax="401" yMax="644">
      <contour>
        <pt x="226" y="316" on="0"/>
        <pt x="176" y="371" on="0"/>
        <pt x="176" y="425" on="1"/>
        <pt x="176" y="452" on="0"/>
        <pt x="182" y="485" on="1"/>
        <pt x="198" y="564" on="0"/>
        <pt x="274" y="644" on="0"/>
        <pt x="331" y="644" on="1"/>
        <pt x="367" y="644" on="0"/>
        <pt x="401" y="635" on="1"/>
        <pt x="387" y="589" on="1"/>
        <pt x="360" y="595" on="0"/>
        <pt x="334" y="595" on="1"/>
        <pt x="298" y="595" on="0"/>
        <pt x="253" y="545" on="0"/>
        <pt x="238" y="475" on="1"/>
        <pt x="233" y="450" on="0"/>
        <pt x="233" y="425" on="1"/>
        <pt x="233" y="392" on="0"/>
        <pt x="258" y="365" on="0"/>
        <pt x="283" y="365" on="1"/>
        <pt x="297" y="365" on="0"/>
        <pt x="333" y="371" on="0"/>
        <pt x="339" y="372" on="1"/>
        <pt x="342" y="324" on="1"/>
        <pt x="310" y="316" on="0"/>
        <pt x="274" y="316" on="1"/>
      </contour>
    </TTGlyph>
    <TTGlyph name="Cacute" xMin="48" yMin="-9" xMax="448" yMax="832">
      <component glyphName="C" x="0" y="0" flags="0x400"/>
      <component glyphName="acutecomb.case" x="0" y="0" flags="0x400"/>
    </TTGlyph>
    <TTGlyph name="Ccaron" xMin="48" yMin="-9" xMax="481" yMax="839">
      <component glyphName="C" x="0" y="0" flags="0x400"/>
      <component glyphName="uni030C.case" x="0" y="0" flags="0x400"/>
    </TTGlyph>
    <TTGlyph name="Ccedilla" xMin="-5" yMin="-192" xMax="425" yMax="647">
      <component glyphName="C" x="0" y="0" flags="0x400"/>
      <component glyphName="uni0327" x="-52" y="0" flags="0x400"/>
    </TTGlyph>
    <TTGlyph name="Ccircumflex" xMin="48" yMin="-9" xMax="452" yMax="841">
      <component glyphName="C" x="0" y="0" flags="0x400"/>
      <component glyphName="uni0302.case" x="0" y="0" flags="0x400"/>
    </TTGlyph>
    <TTGlyph name="Cdotaccent" xMin="48" yMin="-9" xMax="425" yMax="816">
      <component glyphName="C" x="0" y="0" flags="0x400"/>
      <component glyphName="uni0307.case" x="0" y="0" flags="0x400"/>
    </TTGlyph>
    <TTGlyph name="Chi" xMin="3" yMin="0" xMax="473" yMax="640">
      <component glyphName="X" x="0" y="0" flags="0x400"/>
    </TTGlyph>
    <TTGlyph name="D" xMin="17" yMin="0" xMax="459" yMax="640">
      <contour>
        <pt x="375" y="640" on="0"/>
        <pt x="459" y="553" on="0"/>
        <pt x="459" y="457" on="1"/>
        <pt x="459" y="399" on="0"/>
        <pt x="442" y="312" on="1"/>
        <pt x="419" y="197" on="0"/>
        <pt x="349" y="61" on="0"/>
        <pt x="243" y="0" on="0"/>
        <pt x="165" y="0" on="1"/>
        <pt x="17" y="0" on="1"/>
        <pt x="145" y="640" on="1"/>
        <pt x="288" y="640" on="1"/>
      </contour>
      <contour>
        <pt x="165" y="56" on="1"/>
        <pt x="232" y="56" on="0"/>
        <pt x="311" y="112" on="0"/>
        <pt x="356" y="222" on="0"/>
        <pt x="376" y="322" on="1"/>
        <pt x="395" y="420" on="0"/>
        <pt x="395" y="472" on="1"/>
        <pt x="395" y="533" on="0"/>
        <pt x="341" y="584" on="0"/>
        <pt x="275" y="584" on="1"/>
        <pt x="196" y="584" on="1"/>
        <pt x="91" y="56" on="1"/>
      </contour>
    </TTGlyph>
    <TTGlyph name="D.hex" xMin="17" yMin="0" xMax="418" yMax="576">
      <contour>
        <pt x="336" y="576" on="0"/>
        <pt x="418" y="495" on="0"/>
        <pt x="418" y="407" on="1"/>
        <pt x="418" y="354" on="0"/>
        <pt x="403" y="280" on="1"/>
        <pt x="382" y="176" on="0"/>
        <pt x="316" y="54" on="0"/>
        <pt x="215" y="0" on="0"/>
        <pt x="138" y="0" on="1"/>
        <pt x="17" y="0" on="1"/>
        <pt x="132" y="576" on="1"/>
        <pt x="248" y="576" on="1"/>
      </contour>
      <contour>
        <pt x="137" y="56" on="1"/>
        <pt x="203" y="56" on="0"/>
        <pt x="278" y="105" on="0"/>
        <pt x="319" y="202" on="0"/>
        <pt x="336" y="290" on="1"/>
        <pt x="354" y="377" on="0"/>
        <pt x="354" y="420" on="1"/>
        <pt x="354" y="473" on="0"/>
        <pt x="300" y="520" on="0"/>
        <pt x="235" y="520" on="1"/>
        <pt x="183" y="520" on="1"/>
        <pt x="91" y="56" on="1"/>
      </contour>
    </TTGlyph>
    <TTGlyph name="D.short" xMin="17" yMin="0" xMax="418" yMax="576">
      <component glyphName="D.hex" x="0" y="0" flags="0x400"/>
    </TTGlyph>
    <TTGlyph name="D.sups" xMin="138" yMin="320" xMax="392" yMax="640">
      <contour>
        <pt x="202" y="640" on="1"/>
        <pt x="289" y="640" on="1"/>
        <pt x="341" y="640" on="0"/>
        <pt x="392" y="592" on="0"/>
        <pt x="392" y="540" on="1"/>
        <pt x="392" y="515" on="0"/>
        <pt x="384" y="473" on="1"/>
        <pt x="368" y="390" on="0"/>
        <pt x="295" y="320" on="0"/>
        <pt x="232" y="320" on="1"/>
        <pt x="138" y="320" on="1"/>
      </contour>
      <contour>
        <pt x="232" y="368" on="1"/>
        <pt x="273" y="368" on="0"/>
        <pt x="314" y="419" on="0"/>
        <pt x="327" y="483" on="1"/>
        <pt x="335" y="525" on="0"/>
        <pt x="335" y="545" on="1"/>
        <pt x="335" y="571" on="0"/>
        <pt x="311" y="592" on="0"/>
        <pt x="282" y="592" on="1"/>
        <pt x="248" y="592" on="1"/>
        <pt x="204" y="368" on="1"/>
      </contour>
    </TTGlyph>
    <TTGlyph name="Dcaron" xMin="17" yMin="0" xMax="485" yMax="839">
      <component glyphName="D" x="0" y="0" flags="0x400"/>
      <component glyphName="uni030C.case" x="4" y="0" flags="0x400"/>
    </TTGlyph>
    <TTGlyph name="Dcroat" xMin="14" yMin="0" xMax="459" yMax="640">
      <component glyphName="Eth" x="0" y="0" flags="0x400"/>
    </TTGlyph>
    <TTGlyph name="E" xMin="17" yMin="0" xMax="446" yMax="640">
      <contour>
        <pt x="145" y="640" on="1"/>
        <pt x="446" y="640" on="1"/>
        <pt x="434" y="584" on="1"/>
        <pt x="196" y="584" on="1"/>
        <pt x="143" y="316" on="1"/>
        <pt x="327" y="316" on="1"/>
        <pt x="316" y="260" on="1"/>
        <pt x="131" y="260" on="1"/>
        <pt x="91" y="56" on="1"/>
        <pt x="339" y="56" on="1"/>
        <pt x="328" y="0" on="1"/>
        <pt x="17" y="0" on="1"/>
      </contour>
    </TTGlyph>
    <TTGlyph name="E.hex" xMin="17" yMin="0" xMax="439" yMax="576">
      <contour>
        <pt x="132" y="576" on="1"/>
        <pt x="439" y="576" on="1"/>
        <pt x="428" y="520" on="1"/>
        <pt x="183" y="520" on="1"/>
        <pt x="140" y="300" on="1"/>
        <pt x="330" y="300" on="1"/>
        <pt x="319" y="244" on="1"/>
        <pt x="128" y="244" on="1"/>
        <pt x="91" y="56" on="1"/>
        <pt x="345" y="56" on="1"/>
        <pt x="334" y="0" on="1"/>
        <pt x="17" y="0" on="1"/>
      </contour>
    </TTGlyph>
    <TTGlyph name="E.short" xMin="17" yMin="0" xMax="439" yMax="576">
      <component glyphName="E.hex" x="0" y="0" flags="0x400"/>
    </TTGlyph>
    <TTGlyph name="E.sups" xMin="151" yMin="320" xMax="391" yMax="640">
      <contour>
        <pt x="215" y="640" on="1"/>
        <pt x="391" y="640" on="1"/>
        <pt x="381" y="592" on="1"/>
        <pt x="261" y="592" on="1"/>
        <pt x="244" y="507" on="1"/>
        <pt x="352" y="507" on="1"/>
        <pt x="343" y="458" on="1"/>
        <pt x="235" y="458" on="1"/>
        <pt x="217" y="368" on="1"/>
        <pt x="341" y="368" on="1"/>
        <pt x="331" y="320" on="1"/>
        <pt x="151" y="320" on="1"/>
      </contour>
    </TTGlyph>
    <TTGlyph name="Eacute" xMin="17" yMin="0" xMax="446" yMax="832">
      <component glyphName="E" x="0" y="0" flags="0x400"/>
      <component glyphName="acutecomb.case" x="-16" y="0" flags="0x400"/>
    </TTGlyph>
    <TTGlyph name="Ebreve" xMin="17" yMin="0" xMax="455" yMax="834">
      <component glyphName="E" x="0" y="0" flags="0x400"/>
      <component glyphName="uni0306.case" x="-16" y="0" flags="0x400"/>
    </TTGlyph>
    <TTGlyph name="Ecaron" xMin="17" yMin="0" xMax="465" yMax="839">
      <component glyphName="E" x="0" y="0" flags="0x400"/>
      <component glyphName="uni030C.case" x="-16" y="0" flags="0x400"/>
    </TTGlyph>
    <TTGlyph name="Ecircumflex" xMin="17" yMin="0" xMax="446" yMax="841">
      <component glyphName="E" x="0" y="0" flags="0x400"/>
      <component glyphName="uni0302.case" x="-16" y="0" flags="0x400"/>
    </TTGlyph>
    <TTGlyph name="Edieresis" xMin="17" yMin="0" xMax="457" yMax="814">
      <component glyphName="E" x="0" y="0" flags="0x400"/>
      <component glyphName="uni0308.case" x="-16" y="0" flags="0x400"/>
    </TTGlyph>
    <TTGlyph name="Edotaccent" xMin="17" yMin="0" xMax="446" yMax="816">
      <component glyphName="E" x="0" y="0" flags="0x400"/>
      <component glyphName="uni0307.case" x="-16" y="0" flags="0x400"/>
    </TTGlyph>
    <TTGlyph name="Egrave" xMin="17" yMin="0" xMax="446" yMax="832">
      <component glyphName="E" x="0" y="0" flags="0x400"/>
      <component glyphName="gravecomb.case" x="-16" y="0" flags="0x400"/>
    </TTGlyph>
    <TTGlyph name="Emacron" xMin="17" yMin="0" xMax="446" yMax="765">
      <component glyphName="E" x="0" y="0" flags="0x400"/>
      <component glyphName="uni0304.case" x="-16" y="0" flags="0x400"/>
    </TTGlyph>
    <TTGlyph name="Eng" xMin="17" yMin="-13" xMax="445" yMax="644">
      <contour>
        <pt x="132" y="570" on="1"/>
        <pt x="143" y="640" on="1"/>
        <pt x="200" y="640" on="1"/>
        <pt x="192" y="581" on="1"/>
        <pt x="271" y="644" on="0"/>
        <pt x="340" y="644" on="1"/>
        <pt x="387" y="644" on="0"/>
        <pt x="445" y="594" on="0"/>
        <pt x="445" y="541" on="1"/>
        <pt x="445" y="523" on="0"/>
        <pt x="440" y="495" on="1"/>
        <pt x="376" y="176" on="1"/>
        <pt x="361" y="103" on="0"/>
        <pt x="294" y="16" on="0"/>
        <pt x="224" y="-13" on="1"/>
        <pt x="205" y="40" on="1"/>
        <pt x="254" y="60" on="0"/>
        <pt x="303" y="119" on="0"/>
        <pt x="313" y="174" on="1"/>
        <pt x="378" y="497" on="1"/>
        <pt x="382" y="516" on="0"/>
        <pt x="382" y="534" on="1"/>
        <pt x="382" y="562" on="0"/>
        <pt x="354" y="588" on="0"/>
        <pt x="325" y="588" on="1"/>
        <pt x="266" y="588" on="0"/>
        <pt x="186" y="524" on="1"/>
        <pt x="80" y="0" on="1"/>
        <pt x="17" y="0" on="1"/>
      </contour>
    </TTGlyph>
    <TTGlyph name="Eng.loclNSM" xMin="17" yMin="-197" xMax="469" yMax="640">
      <contour>
        <pt x="325" y="-80" on="0"/>
        <pt x="258" y="-168" on="0"/>
        <pt x="187" y="-197" on="1"/>
        <pt x="168" y="-144" on="1"/>
        <pt x="217" y="-124" on="0"/>
        <pt x="266" y="-65" on="0"/>
        <pt x="276" y="-10" on="1"/>
        <pt x="279" y="7" on="1"/>
        <pt x="205" y="384" on="1"/>
        <pt x="187" y="533" on="1"/>
        <pt x="80" y="0" on="1"/>
        <pt x="17" y="0" on="1"/>
        <pt x="145" y="640" on="1"/>
        <pt x="219" y="640" on="1"/>
        <pt x="295" y="260" on="1"/>
        <pt x="307" y="145" on="1"/>
        <pt x="406" y="640" on="1"/>
        <pt x="469" y="640" on="1"/>
        <pt x="340" y="-8" on="1"/>
      </contour>
    </TTGlyph>
    <TTGlyph name="Eogonek" xMin="17" yMin="-197" xMax="446" yMax="640">
      <component glyphName="E" x="0" y="0" flags="0x400"/>
      <component glyphName="uni0328" x="-9" y="0" flags="0x400"/>
    </TTGlyph>
    <TTGlyph name="Epsilon" xMin="17" yMin="0" xMax="446" yMax="640">
      <component glyphName="E" x="0" y="0" flags="0x400"/>
    </TTGlyph>
    <TTGlyph name="Epsilontonos" xMin="0" yMin="0" xMax="446" yMax="704">
      <component glyphName="tonos" x="-256" y="0" flags="0x400"/>
      <component glyphName="Epsilon" x="0" y="0" flags="0x400"/>
    </TTGlyph>
    <TTGlyph name="Eta" xMin="17" yMin="0" xMax="501" yMax="640">
      <component glyphName="H" x="0" y="0" flags="0x400"/>
    </TTGlyph>
    <TTGlyph name="Etatonos" xMin="0" yMin="0" xMax="501" yMax="704">
      <component glyphName="tonos" x="-256" y="0" flags="0x400"/>
      <component glyphName="Eta" x="0" y="0" flags="0x400"/>
    </TTGlyph>
    <TTGlyph name="Eth" xMin="14" yMin="0" xMax="459" yMax="640">
      <contour>
        <pt x="80" y="316" on="1"/>
        <pt x="145" y="640" on="1"/>
        <pt x="288" y="640" on="1"/>
        <pt x="375" y="640" on="0"/>
        <pt x="459" y="553" on="0"/>
        <pt x="459" y="457" on="1"/>
        <pt x="459" y="399" on="0"/>
        <pt x="442" y="312" on="1"/>
        <pt x="419" y="197" on="0"/>
        <pt x="349" y="61" on="0"/>
        <pt x="243" y="0" on="0"/>
        <pt x="165" y="0" on="1"/>
        <pt x="17" y="0" on="1"/>
        <pt x="69" y="260" on="1"/>
        <pt x="14" y="260" on="1"/>
        <pt x="26" y="316" on="1"/>
      </contour>
      <contour>
        <pt x="165" y="56" on="1"/>
        <pt x="232" y="56" on="0"/>
        <pt x="311" y="112" on="0"/>
        <pt x="356" y="222" on="0"/>
        <pt x="376" y="322" on="1"/>
        <pt x="395" y="420" on="0"/>
        <pt x="395" y="472" on="1"/>
        <pt x="395" y="533" on="0"/>
        <pt x="341" y="584" on="0"/>
        <pt x="275" y="584" on="1"/>
        <pt x="196" y="584" on="1"/>
        <pt x="143" y="316" on="1"/>
        <pt x="252" y="316" on="1"/>
        <pt x="240" y="260" on="1"/>
        <pt x="132" y="260" on="1"/>
        <pt x="91" y="56" on="1"/>
      </contour>
    </TTGlyph>
    <TTGlyph name="Euro" xMin="61" yMin="-7" xMax="473" yMax="583">
      <contour>
        <pt x="307" y="49" on="0"/>
        <pt x="358" y="64" on="1"/>
        <pt x="366" y="11" on="1"/>
        <pt x="315" y="-7" on="0"/>
        <pt x="266" y="-7" on="1"/>
        <pt x="102" y="-7" on="0"/>
        <pt x="114" y="196" on="1"/>
        <pt x="61" y="196" on="1"/>
        <pt x="72" y="250" on="1"/>
        <pt x="120" y="250" on="1"/>
        <pt x="122" y="261" on="0"/>
        <pt x="128" y="293" on="1"/>
        <pt x="135" y="326" on="1"/>
        <pt x="87" y="326" on="1"/>
        <pt x="98" y="380" on="1"/>
        <pt x="150" y="380" on="1"/>
        <pt x="182" y="480" on="0"/>
        <pt x="293" y="583" on="0"/>
        <pt x="375" y="583" on="1"/>
        <pt x="398" y="583" on="0"/>
        <pt x="451" y="572" on="0"/>
        <pt x="473" y="563" on="1"/>
        <pt x="452" y="515" on="1"/>
        <pt x="416" y="527" on="0"/>
        <pt x="374" y="527" on="1"/>
        <pt x="320" y="527" on="0"/>
        <pt x="241" y="457" on="0"/>
        <pt x="214" y="380" on="1"/>
        <pt x="395" y="380" on="1"/>
        <pt x="371" y="326" on="1"/>
        <pt x="198" y="326" on="1"/>
        <pt x="189" y="283" on="1"/>
        <pt x="183" y="250" on="1"/>
        <pt x="341" y="250" on="1"/>
        <pt x="318" y="196" on="1"/>
        <pt x="176" y="196" on="1"/>
        <pt x="175" y="185" on="0"/>
        <pt x="175" y="164" on="1"/>
        <pt x="175" y="102" on="0"/>
        <pt x="222" y="49" on="0"/>
        <pt x="270" y="49" on="1"/>
      </contour>
    </TTGlyph>
    <TTGlyph name="F" xMin="17" yMin="0" xMax="438" yMax="640">
      <contour>
        <pt x="145" y="640" on="1"/>
        <pt x="438" y="640" on="1"/>
        <pt x="426" y="584" on="1"/>
        <pt x="196" y="584" on="1"/>
        <pt x="143" y="316" on="1"/>
        <pt x="324" y="316" on="1"/>
        <pt x="313" y="260" on="1"/>
        <pt x="131" y="260" on="1"/>
        <pt x="80" y="0" on="1"/>
        <pt x="17" y="0" on="1"/>
      </contour>
    </TTGlyph>
    <TTGlyph name="F.hex" xMin="18" yMin="0" xMax="449" yMax="576">
      <contour>
        <pt x="133" y="576" on="1"/>
        <pt x="449" y="576" on="1"/>
        <pt x="438" y="520" on="1"/>
        <pt x="184" y="520" on="1"/>
        <pt x="140" y="300" on="1"/>
        <pt x="330" y="300" on="1"/>
        <pt x="319" y="244" on="1"/>
        <pt x="129" y="244" on="1"/>
        <pt x="80" y="0" on="1"/>
        <pt x="18" y="0" on="1"/>
      </contour>
    </TTGlyph>
    <TTGlyph name="F.short" xMin="18" yMin="0" xMax="449" yMax="576">
      <component glyphName="F.hex" x="0" y="0" flags="0x400"/>
    </TTGlyph>
    <TTGlyph name="F.sups" xMin="151" yMin="320" xMax="399" yMax="640">
      <contour>
        <pt x="215" y="640" on="1"/>
        <pt x="399" y="640" on="1"/>
        <pt x="389" y="592" on="1"/>
        <pt x="261" y="592" on="1"/>
        <pt x="242" y="499" on="1"/>
        <pt x="350" y="499" on="1"/>
        <pt x="341" y="451" on="1"/>
        <pt x="233" y="451" on="1"/>
        <pt x="207" y="320" on="1"/>
        <pt x="151" y="320" on="1"/>
      </contour>
    </TTGlyph>
    <TTGlyph name="G" xMin="49" yMin="-9" xMax="468" yMax="647">
      <contour>
        <pt x="134" y="-9" on="0"/>
        <pt x="49" y="73" on="0"/>
        <pt x="49" y="167" on="1"/>
        <pt x="49" y="226" on="0"/>
        <pt x="68" y="324" on="1"/>
        <pt x="92" y="445" on="0"/>
        <pt x="162" y="585" on="0"/>
        <pt x="268" y="647" on="0"/>
        <pt x="349" y="647" on="1"/>
        <pt x="410" y="647" on="0"/>
        <pt x="468" y="632" on="1"/>
        <pt x="451" y="581" on="1"/>
        <pt x="405" y="591" on="0"/>
        <pt x="351" y="591" on="1"/>
        <pt x="282" y="591" on="0"/>
        <pt x="201" y="535" on="0"/>
        <pt x="155" y="420" on="0"/>
        <pt x="134" y="314" on="1"/>
        <pt x="113" y="211" on="0"/>
        <pt x="113" y="159" on="1"/>
        <pt x="113" y="99" on="0"/>
        <pt x="168" y="47" on="0"/>
        <pt x="235" y="47" on="1"/>
        <pt x="265" y="47" on="0"/>
        <pt x="297" y="51" on="1"/>
        <pt x="338" y="260" on="1"/>
        <pt x="235" y="260" on="1"/>
        <pt x="247" y="316" on="1"/>
        <pt x="412" y="316" on="1"/>
        <pt x="351" y="7" on="1"/>
        <pt x="321" y="-1" on="0"/>
        <pt x="252" y="-9" on="0"/>
        <pt x="226" y="-9" on="1"/>
      </contour>
    </TTGlyph>
    <TTGlyph name="G.short" xMin="54" yMin="-9" xMax="448" yMax="583">
      <contour>
        <pt x="136" y="-9" on="0"/>
        <pt x="54" y="68" on="0"/>
        <pt x="54" y="155" on="1"/>
        <pt x="54" y="215" on="0"/>
        <pt x="70" y="292" on="1"/>
        <pt x="92" y="401" on="0"/>
        <pt x="157" y="527" on="0"/>
        <pt x="258" y="583" on="0"/>
        <pt x="335" y="583" on="1"/>
        <pt x="391" y="583" on="0"/>
        <pt x="448" y="568" on="1"/>
        <pt x="430" y="517" on="1"/>
        <pt x="386" y="527" on="0"/>
        <pt x="337" y="527" on="1"/>
        <pt x="272" y="527" on="0"/>
        <pt x="197" y="478" on="0"/>
        <pt x="155" y="376" on="0"/>
        <pt x="136" y="282" on="1"/>
        <pt x="118" y="192" on="0"/>
        <pt x="118" y="148" on="1"/>
        <pt x="118" y="94" on="0"/>
        <pt x="170" y="47" on="0"/>
        <pt x="233" y="47" on="1"/>
        <pt x="261" y="47" on="0"/>
        <pt x="289" y="51" on="1"/>
        <pt x="324" y="228" on="1"/>
        <pt x="231" y="228" on="1"/>
        <pt x="242" y="284" on="1"/>
        <pt x="398" y="284" on="1"/>
        <pt x="343" y="7" on="1"/>
        <pt x="316" y="-1" on="0"/>
        <pt x="249" y="-9" on="0"/>
        <pt x="225" y="-9" on="1"/>
      </contour>
    </TTGlyph>
    <TTGlyph name="G.sups" xMin="151" yMin="315" xMax="398" yMax="647">
      <contour>
        <pt x="199" y="315" on="0"/>
        <pt x="151" y="361" on="0"/>
        <pt x="151" y="414" on="1"/>
        <pt x="151" y="441" on="0"/>
        <pt x="159" y="486" on="1"/>
        <pt x="175" y="571" on="0"/>
        <pt x="249" y="647" on="0"/>
        <pt x="315" y="647" on="1"/>
        <pt x="356" y="647" on="0"/>
        <pt x="398" y="638" on="1"/>
        <pt x="384" y="590" on="1"/>
        <pt x="342" y="598" on="0"/>
        <pt x="317" y="598" on="1"/>
        <pt x="283" y="598" on="0"/>
        <pt x="244" y="572" on="0"/>
        <pt x="224" y="522" on="0"/>
        <pt x="215" y="476" on="1"/>
        <pt x="205" y="428" on="0"/>
        <pt x="205" y="408" on="1"/>
        <pt x="205" y="384" on="0"/>
        <pt x="227" y="364" on="0"/>
        <pt x="251" y="364" on="1"/>
        <pt x="268" y="364" on="0"/>
        <pt x="289" y="367" on="1"/>
        <pt x="318" y="512" on="1"/>
        <pt x="374" y="512" on="1"/>
        <pt x="336" y="324" on="1"/>
        <pt x="286" y="315" on="0"/>
        <pt x="248" y="315" on="1"/>
      </contour>
    </TTGlyph>
    <TTGlyph name="Gamma" xMin="17" yMin="0" xMax="438" yMax="640">
      <component glyphName="uni0413" x="0" y="0" flags="0x400"/>
    </TTGlyph>
    <TTGlyph name="Gbreve" xMin="49" yMin="-9" xMax="491" yMax="834">
      <component glyphName="G" x="0" y="0" flags="0x400"/>
      <component glyphName="uni0306.case" x="20" y="0" flags="0x400"/>
    </TTGlyph>
    <TTGlyph name="Gcaron" xMin="49" yMin="-9" xMax="501" yMax="839">
      <component glyphName="G" x="0" y="0" flags="0x400"/>
      <component glyphName="uni030C.case" x="20" y="0" flags="0x400"/>
    </TTGlyph>
    <TTGlyph name="Gcircumflex" xMin="49" yMin="-9" xMax="472" yMax="841">
      <component glyphName="G" x="0" y="0" flags="0x400"/>
      <component glyphName="uni0302.case" x="20" y="0" flags="0x400"/>
    </TTGlyph>
    <TTGlyph name="Gdotaccent" xMin="49" yMin="-9" xMax="468" yMax="816">
      <component glyphName="G" x="0" y="0" flags="0x400"/>
      <component glyphName="uni0307.case" x="20" y="0" flags="0x400"/>
    </TTGlyph>
    <TTGlyph name="H" xMin="17" yMin="0" xMax="501" yMax="640">
      <contour>
        <pt x="145" y="640" on="1"/>
        <pt x="208" y="640" on="1"/>
        <pt x="143" y="316" on="1"/>
        <pt x="374" y="316" on="1"/>
        <pt x="438" y="640" on="1"/>
        <pt x="501" y="640" on="1"/>
        <pt x="373" y="0" on="1"/>
        <pt x="310" y="0" on="1"/>
        <pt x="362" y="260" on="1"/>
        <pt x="131" y="260" on="1"/>
        <pt x="80" y="0" on="1"/>
        <pt x="17" y="0" on="1"/>
      </contour>
    </TTGlyph>
    <TTGlyph name="H.sups" xMin="141" yMin="320" xMax="409" yMax="640">
      <contour>
        <pt x="205" y="640" on="1"/>
        <pt x="261" y="640" on="1"/>
        <pt x="234" y="505" on="1"/>
        <pt x="326" y="505" on="1"/>
        <pt x="353" y="640" on="1"/>
        <pt x="409" y="640" on="1"/>
        <pt x="345" y="320" on="1"/>
        <pt x="289" y="320" on="1"/>
        <pt x="316" y="455" on="1"/>
        <pt x="224" y="455" on="1"/>
        <pt x="197" y="320" on="1"/>
        <pt x="141" y="320" on="1"/>
      </contour>
    </TTGlyph>
    <TTGlyph name="Hbar" xMin="17" yMin="0" xMax="525" yMax="640">
      <contour>
        <pt x="106" y="445" on="1"/>
        <pt x="54" y="445" on="1"/>
        <pt x="66" y="498" on="1"/>
        <pt x="117" y="498" on="1"/>
        <pt x="145" y="640" on="1"/>
        <pt x="208" y="640" on="1"/>
        <pt x="180" y="498" on="1"/>
        <pt x="410" y="498" on="1"/>
        <pt x="438" y="640" on="1"/>
        <pt x="501" y="640" on="1"/>
        <pt x="473" y="498" on="1"/>
        <pt x="525" y="498" on="1"/>
        <pt x="513" y="445" on="1"/>
        <pt x="462" y="445" on="1"/>
        <pt x="373" y="0" on="1"/>
        <pt x="310" y="0" on="1"/>
        <pt x="362" y="260" on="1"/>
        <pt x="131" y="260" on="1"/>
        <pt x="80" y="0" on="1"/>
        <pt x="17" y="0" on="1"/>
      </contour>
      <contour>
        <pt x="374" y="316" on="1"/>
        <pt x="399" y="445" on="1"/>
        <pt x="169" y="445" on="1"/>
        <pt x="143" y="316" on="1"/>
      </contour>
    </TTGlyph>
    <TTGlyph name="Hcircumflex" xMin="17" yMin="0" xMax="501" yMax="841">
      <component glyphName="H" x="0" y="0" flags="0x400"/>
      <component glyphName="uni0302.case" x="16" y="0" flags="0x400"/>
    </TTGlyph>
    <TTGlyph name="I" xMin="11" yMin="0" xMax="342" yMax="640">
      <contour>
        <pt x="22" y="51" on="1"/>
        <pt x="95" y="55" on="1"/>
        <pt x="201" y="585" on="1"/>
        <pt x="134" y="589" on="1"/>
        <pt x="143" y="640" on="1"/>
        <pt x="342" y="640" on="1"/>
        <pt x="332" y="589" on="1"/>
        <pt x="263" y="585" on="1"/>
        <pt x="157" y="55" on="1"/>
        <pt x="229" y="51" on="1"/>
        <pt x="219" y="0" on="1"/>
        <pt x="11" y="0" on="1"/>
      </contour>
    </TTGlyph>
    <TTGlyph name="I.cv02" xMin="36" yMin="0" xMax="226" yMax="640">
      <contour>
        <pt x="164" y="640" on="1"/>
        <pt x="226" y="640" on="1"/>
        <pt x="98" y="0" on="1"/>
        <pt x="36" y="0" on="1"/>
      </contour>
    </TTGlyph>
    <TTGlyph name="I.short" xMin="32" yMin="0" xMax="437" yMax="576">
      <contour>
        <pt x="42" y="47" on="1"/>
        <pt x="159" y="55" on="1"/>
        <pt x="252" y="521" on="1"/>
        <pt x="142" y="529" on="1"/>
        <pt x="151" y="576" on="1"/>
        <pt x="437" y="576" on="1"/>
        <pt x="428" y="529" on="1"/>
        <pt x="314" y="521" on="1"/>
        <pt x="221" y="55" on="1"/>
        <pt x="336" y="47" on="1"/>
        <pt x="326" y="0" on="1"/>
        <pt x="32" y="0" on="1"/>
      </contour>
    </TTGlyph>
    <TTGlyph name="I.short.cv02" xMin="148" yMin="0" xMax="325" yMax="576">
      <contour>
        <pt x="263" y="576" on="1"/>
        <pt x="325" y="576" on="1"/>
        <pt x="210" y="0" on="1"/>
        <pt x="148" y="0" on="1"/>
      </contour>
    </TTGlyph>
    <TTGlyph name="I.sups" xMin="151" yMin="320" xMax="399" yMax="640">
      <contour>
        <pt x="335" y="320" on="1"/>
        <pt x="151" y="320" on="1"/>
        <pt x="160" y="363" on="1"/>
        <pt x="225" y="369" on="1"/>
        <pt x="269" y="591" on="1"/>
        <pt x="207" y="597" on="1"/>
        <pt x="215" y="640" on="1"/>
        <pt x="399" y="640" on="1"/>
        <pt x="391" y="597" on="1"/>
        <pt x="325" y="591" on="1"/>
        <pt x="281" y="369" on="1"/>
        <pt x="344" y="363" on="1"/>
      </contour>
    </TTGlyph>
    <TTGlyph name="IJ" xMin="11" yMin="-8" xMax="757" yMax="640">
      <component glyphName="I" x="0" y="0" flags="0x400"/>
      <component glyphName="J" x="320" y="0" flags="0x400"/>
    </TTGlyph>
    <TTGlyph name="Iacute" xMin="11" yMin="0" xMax="384" yMax="832">
      <component glyphName="I" x="0" y="0" flags="0x400"/>
      <component glyphName="acutecomb.case" x="-64" y="0" flags="0x400"/>
    </TTGlyph>
    <TTGlyph name="Iacute.cv02" xMin="36" yMin="0" xMax="336" yMax="832">
      <component glyphName="I.cv02" x="0" y="0" flags="0x400"/>
      <component glyphName="acutecomb.case" x="-112" y="0" flags="0x400"/>
    </TTGlyph>
    <TTGlyph name="Ibreve" xMin="11" yMin="0" xMax="407" yMax="834">
      <component glyphName="I" x="0" y="0" flags="0x400"/>
      <component glyphName="uni0306.case" x="-64" y="0" flags="0x400"/>
    </TTGlyph>
    <TTGlyph name="Ibreve.cv02" xMin="36" yMin="0" xMax="359" yMax="834">
      <component glyphName="I.cv02" x="0" y="0" flags="0x400"/>
      <component glyphName="uni0306.case" x="-112" y="0" flags="0x400"/>
    </TTGlyph>
    <TTGlyph name="Icapitalsmall.cv02" xMin="11" yMin="0" xMax="342" yMax="640">
      <contour>
        <pt x="22" y="51" on="1"/>
        <pt x="95" y="55" on="1"/>
        <pt x="201" y="585" on="1"/>
        <pt x="134" y="589" on="1"/>
        <pt x="143" y="640" on="1"/>
        <pt x="342" y="640" on="1"/>
        <pt x="332" y="589" on="1"/>
        <pt x="263" y="585" on="1"/>
        <pt x="157" y="55" on="1"/>
        <pt x="229" y="51" on="1"/>
        <pt x="219" y="0" on="1"/>
        <pt x="11" y="0" on="1"/>
      </contour>
    </TTGlyph>
    <TTGlyph name="Icircumflex" xMin="11" yMin="0" xMax="388" yMax="841">
      <component glyphName="I" x="0" y="0" flags="0x400"/>
      <component glyphName="uni0302.case" x="-64" y="0" flags="0x400"/>
    </TTGlyph>
    <TTGlyph name="Icircumflex.cv02" xMin="36" yMin="0" xMax="340" yMax="841">
      <component glyphName="I.cv02" x="0" y="0" flags="0x400"/>
      <component glyphName="uni0302.case" x="-112" y="0" flags="0x400"/>
    </TTGlyph>
    <TTGlyph name="Idieresis" xMin="11" yMin="0" xMax="409" yMax="814">
      <component glyphName="I" x="0" y="0" flags="0x400"/>
      <component glyphName="uni0308.case" x="-64" y="0" flags="0x400"/>
    </TTGlyph>
    <TTGlyph name="Idieresis.cv02" xMin="36" yMin="0" xMax="361" yMax="814">
      <component glyphName="I.cv02" x="0" y="0" flags="0x400"/>
      <component glyphName="uni0308.case" x="-112" y="0" flags="0x400"/>
    </TTGlyph>
    <TTGlyph name="Idotaccent" xMin="11" yMin="0" xMax="342" yMax="816">
      <component glyphName="I" x="0" y="0" flags="0x400"/>
      <component glyphName="uni0307.case" x="-64" y="0" flags="0x400"/>
    </TTGlyph>
    <TTGlyph name="Idotaccent.cv02" xMin="36" yMin="0" xMax="277" yMax="816">
      <component glyphName="I.cv02" x="0" y="0" flags="0x400"/>
      <component glyphName="uni0307.case" x="-112" y="0" flags="0x400"/>
    </TTGlyph>
    <TTGlyph name="Igrave" xMin="11" yMin="0" xMax="342" yMax="832">
      <component glyphName="I" x="0" y="0" flags="0x400"/>
      <component glyphName="gravecomb.case" x="-64" y="0" flags="0x400"/>
    </TTGlyph>
    <TTGlyph name="Igrave.cv02" xMin="36" yMin="0" xMax="235" yMax="832">
      <component glyphName="I.cv02" x="0" y="0" flags="0x400"/>
      <component glyphName="gravecomb.case" x="-112" y="0" flags="0x400"/>
    </TTGlyph>
    <TTGlyph name="Imacron" xMin="11" yMin="0" xMax="388" yMax="765">
      <component glyphName="I" x="0" y="0" flags="0x400"/>
      <component glyphName="uni0304.case" x="-64" y="0" flags="0x400"/>
    </TTGlyph>
    <TTGlyph name="Imacron.cv02" xMin="36" yMin="0" xMax="340" yMax="765">
      <component glyphName="I.cv02" x="0" y="0" flags="0x400"/>
      <component glyphName="uni0304.case" x="-112" y="0" flags="0x400"/>
    </TTGlyph>
    <TTGlyph name="Iogonek" xMin="11" yMin="-197" xMax="342" yMax="640">
      <component glyphName="I" x="0" y="0" flags="0x400"/>
      <component glyphName="uni0328" x="-118" y="0" flags="0x400"/>
    </TTGlyph>
    <TTGlyph name="Iogonek.cv02" xMin="-52" yMin="-197" xMax="226" yMax="640">
      <component glyphName="I.cv02" x="0" y="0" flags="0x400"/>
      <component glyphName="uni0328" x="-239" y="0" flags="0x400"/>
    </TTGlyph>
    <TTGlyph name="Iota" xMin="11" yMin="0" xMax="342" yMax="640">
      <component glyphName="I" x="0" y="0" flags="0x400"/>
    </TTGlyph>
    <TTGlyph name="Iota.cv02" xMin="36" yMin="0" xMax="226" yMax="640">
      <component glyphName="I.cv02" x="0" y="0" flags="0x400"/>
    </TTGlyph>
    <TTGlyph name="Iotadieresis" xMin="11" yMin="0" xMax="409" yMax="814">
      <component glyphName="Iota" x="0" y="0" flags="0x400"/>
      <component glyphName="uni0308.case" x="-64" y="0" flags="0x400"/>
    </TTGlyph>
    <TTGlyph name="Iotadieresis.cv02" xMin="36" yMin="0" xMax="361" yMax="814">
      <component glyphName="Iota.cv02" x="0" y="0" flags="0x400"/>
      <component glyphName="uni0308.case" x="-112" y="0" flags="0x400"/>
    </TTGlyph>
    <TTGlyph name="Iotatonos" xMin="0" yMin="0" xMax="362" yMax="704">
      <component glyphName="tonos" x="-256" y="0" flags="0x400"/>
      <component glyphName="Iota" x="20" y="0" flags="0x400"/>
    </TTGlyph>
    <TTGlyph name="Iotatonos.cv02" xMin="18" yMin="0" xMax="226" yMax="704">
      <component glyphName="tonos" x="-238" y="0" flags="0x400"/>
      <component glyphName="Iota.cv02" x="0" y="0" flags="0x400"/>
    </TTGlyph>
    <TTGlyph name="Itilde" xMin="11" yMin="0" xMax="431" yMax="837">
      <component glyphName="I" x="0" y="0" flags="0x400"/>
      <component glyphName="tildecomb.case" x="-64" y="0" flags="0x400"/>
    </TTGlyph>
    <TTGlyph name="Itilde.cv02" xMin="36" yMin="0" xMax="383" yMax="837">
      <component glyphName="I.cv02" x="0" y="0" flags="0x400"/>
      <component glyphName="tildecomb.case" x="-112" y="0" flags="0x400"/>
    </TTGlyph>
    <TTGlyph name="J" xMin="12" yMin="-8" xMax="437" yMax="640">
      <contour>
        <pt x="74" y="87" on="0"/>
        <pt x="109" y="48" on="0"/>
        <pt x="152" y="48" on="1"/>
        <pt x="208" y="48" on="0"/>
        <pt x="269" y="111" on="0"/>
        <pt x="281" y="172" on="1"/>
        <pt x="363" y="584" on="1"/>
        <pt x="209" y="584" on="1"/>
        <pt x="220" y="640" on="1"/>
        <pt x="437" y="640" on="1"/>
        <pt x="343" y="170" on="1"/>
        <pt x="324" y="77" on="0"/>
        <pt x="224" y="-8" on="0"/>
        <pt x="150" y="-8" on="1"/>
        <pt x="81" y="-8" on="0"/>
        <pt x="14" y="60" on="0"/>
        <pt x="12" y="118" on="1"/>
        <pt x="70" y="129" on="1"/>
      </contour>
    </TTGlyph>
    <TTGlyph name="J.cv03" xMin="12" yMin="-8" xMax="437" yMax="640">
      <contour>
        <pt x="81" y="-8" on="0"/>
        <pt x="14" y="60" on="0"/>
        <pt x="12" y="118" on="1"/>
        <pt x="70" y="129" on="1"/>
        <pt x="74" y="87" on="0"/>
        <pt x="109" y="48" on="0"/>
        <pt x="152" y="48" on="1"/>
        <pt x="207" y="48" on="0"/>
        <pt x="268" y="111" on="0"/>
        <pt x="281" y="172" on="1"/>
        <pt x="374" y="640" on="1"/>
        <pt x="437" y="640" on="1"/>
        <pt x="343" y="170" on="1"/>
        <pt x="324" y="77" on="0"/>
        <pt x="224" y="-8" on="0"/>
        <pt x="150" y="-8" on="1"/>
      </contour>
    </TTGlyph>
    <TTGlyph name="J.sups" xMin="149" yMin="316" xMax="399" yMax="640">
      <contour>
        <pt x="191" y="316" on="0"/>
        <pt x="149" y="322" on="1"/>
        <pt x="160" y="369" on="1"/>
        <pt x="188" y="365" on="0"/>
        <pt x="215" y="365" on="1"/>
        <pt x="251" y="365" on="0"/>
        <pt x="294" y="396" on="0"/>
        <pt x="301" y="430" on="1"/>
        <pt x="333" y="591" on="1"/>
        <pt x="215" y="591" on="1"/>
        <pt x="225" y="640" on="1"/>
        <pt x="399" y="640" on="1"/>
        <pt x="355" y="422" on="1"/>
        <pt x="344" y="365" on="0"/>
        <pt x="275" y="316" on="0"/>
        <pt x="220" y="316" on="1"/>
      </contour>
    </TTGlyph>
    <TTGlyph name="Jcircumflex" xMin="12" yMin="-8" xMax="466" yMax="841">
      <component glyphName="J" x="0" y="0" flags="0x400"/>
      <component glyphName="uni0302.case" x="14" y="0" flags="0x400"/>
    </TTGlyph>
    <TTGlyph name="Jcircumflex.cv03" xMin="12" yMin="-8" xMax="550" yMax="841">
      <component glyphName="J.cv03" x="0" y="0" flags="0x400"/>
      <component glyphName="uni0302.case" x="98" y="0" flags="0x400"/>
    </TTGlyph>
    <TTGlyph name="K" xMin="17" yMin="0" xMax="481" yMax="640">
      <contour>
        <pt x="145" y="640" on="1"/>
        <pt x="208" y="640" on="1"/>
        <pt x="144" y="321" on="1"/>
        <pt x="196" y="321" on="1"/>
        <pt x="273" y="394" on="0"/>
        <pt x="379" y="541" on="0"/>
        <pt x="414" y="640" on="1"/>
        <pt x="481" y="640" on="1"/>
        <pt x="445" y="542" on="0"/>
        <pt x="342" y="390" on="0"/>
        <pt x="264" y="318" on="1"/>
        <pt x="373" y="299" on="0"/>
        <pt x="373" y="185" on="1"/>
        <pt x="373" y="161" on="0"/>
        <pt x="371" y="148" on="1"/>
        <pt x="353" y="0" on="1"/>
        <pt x="287" y="0" on="1"/>
        <pt x="308" y="150" on="1"/>
        <pt x="311" y="171" on="0"/>
        <pt x="311" y="188" on="1"/>
        <pt x="311" y="229" on="0"/>
        <pt x="265" y="265" on="0"/>
        <pt x="210" y="265" on="1"/>
        <pt x="132" y="265" on="1"/>
        <pt x="80" y="0" on="1"/>
        <pt x="17" y="0" on="1"/>
      </contour>
    </TTGlyph>
    <TTGlyph name="K.short" xMin="17" yMin="0" xMax="468" yMax="576">
      <contour>
        <pt x="132" y="575" on="1"/>
        <pt x="195" y="575" on="1"/>
        <pt x="140" y="299" on="1"/>
        <pt x="192" y="299" on="1"/>
        <pt x="266" y="362" on="0"/>
        <pt x="368" y="490" on="0"/>
        <pt x="401" y="576" on="1"/>
        <pt x="468" y="576" on="1"/>
        <pt x="434" y="489" on="0"/>
        <pt x="336" y="355" on="0"/>
        <pt x="262" y="296" on="1"/>
        <pt x="318" y="287" on="0"/>
        <pt x="374" y="225" on="0"/>
        <pt x="374" y="175" on="1"/>
        <pt x="374" y="166" on="0"/>
        <pt x="372" y="148" on="1"/>
        <pt x="353" y="0" on="1"/>
        <pt x="287" y="0" on="1"/>
        <pt x="308" y="150" on="1"/>
        <pt x="310" y="168" on="0"/>
        <pt x="310" y="176" on="1"/>
        <pt x="310" y="213" on="0"/>
        <pt x="263" y="244" on="0"/>
        <pt x="206" y="244" on="1"/>
        <pt x="128" y="244" on="1"/>
        <pt x="80" y="0" on="1"/>
        <pt x="17" y="0" on="1"/>
      </contour>
    </TTGlyph>
    <TTGlyph name="K.sups" xMin="145" yMin="320" xMax="417" yMax="640">
      <contour>
        <pt x="209" y="640" on="1"/>
        <pt x="265" y="640" on="1"/>
        <pt x="237" y="499" on="1"/>
        <pt x="274" y="499" on="1"/>
        <pt x="303" y="531" on="0"/>
        <pt x="343" y="595" on="0"/>
        <pt x="359" y="640" on="1"/>
        <pt x="417" y="640" on="1"/>
        <pt x="400" y="592" on="0"/>
        <pt x="358" y="524" on="0"/>
        <pt x="327" y="492" on="1"/>
        <pt x="367" y="475" on="0"/>
        <pt x="361" y="407" on="1"/>
        <pt x="352" y="320" on="1"/>
        <pt x="295" y="320" on="1"/>
        <pt x="307" y="414" on="1"/>
        <pt x="308" y="419" on="0"/>
        <pt x="308" y="426" on="1"/>
        <pt x="308" y="440" on="0"/>
        <pt x="292" y="451" on="0"/>
        <pt x="272" y="451" on="1"/>
        <pt x="227" y="451" on="1"/>
        <pt x="201" y="320" on="1"/>
        <pt x="145" y="320" on="1"/>
      </contour>
    </TTGlyph>
    <TTGlyph name="Kappa" xMin="17" yMin="0" xMax="481" yMax="640">
      <component glyphName="K" x="0" y="0" flags="0x400"/>
    </TTGlyph>
    <TTGlyph name="L" xMin="17" yMin="0" xMax="311" yMax="640">
      <contour>
        <pt x="145" y="640" on="1"/>
        <pt x="208" y="640" on="1"/>
        <pt x="91" y="56" on="1"/>
        <pt x="311" y="56" on="1"/>
        <pt x="300" y="0" on="1"/>
        <pt x="17" y="0" on="1"/>
      </contour>
    </TTGlyph>
    <TTGlyph name="L.sups" xMin="151" yMin="320" xMax="345" yMax="640">
      <contour>
        <pt x="335" y="320" on="1"/>
        <pt x="151" y="320" on="1"/>
        <pt x="215" y="640" on="1"/>
        <pt x="271" y="640" on="1"/>
        <pt x="217" y="369" on="1"/>
        <pt x="345" y="369" on="1"/>
      </contour>
    </TTGlyph>
    <TTGlyph name="Lacute" xMin="17" yMin="0" xMax="318" yMax="832">
      <component glyphName="L" x="0" y="0" flags="0x400"/>
      <component glyphName="acutecomb.case" x="-130" y="0" flags="0x400"/>
    </TTGlyph>
    <TTGlyph name="Lambda" xMin="-8" yMin="0" xMax="381" yMax="646">
      <contour>
        <pt x="45" y="187" on="0"/>
        <pt x="193" y="522" on="0"/>
        <pt x="280" y="646" on="1"/>
        <pt x="333" y="640" on="1"/>
        <pt x="381" y="483" on="0"/>
        <pt x="381" y="261" on="1"/>
        <pt x="381" y="142" on="0"/>
        <pt x="365" y="0" on="1"/>
        <pt x="301" y="0" on="1"/>
        <pt x="318" y="145" on="0"/>
        <pt x="318" y="284" on="1"/>
        <pt x="318" y="449" on="0"/>
        <pt x="293" y="562" on="1"/>
        <pt x="228" y="458" on="0"/>
        <pt x="108" y="170" on="0"/>
        <pt x="59" y="0" on="1"/>
        <pt x="-8" y="0" on="1"/>
      </contour>
    </TTGlyph>
    <TTGlyph name="Lcaron" xMin="17" yMin="0" xMax="451" yMax="640">
      <component glyphName="L" x="0" y="0" flags="0x400"/>
      <component glyphName="uni030C.alt" x="-64" y="0" flags="0x400"/>
    </TTGlyph>
    <TTGlyph name="Ldot" xMin="17" yMin="0" xMax="362" yMax="640">
      <contour>
        <pt x="145" y="640" on="1"/>
        <pt x="208" y="640" on="1"/>
        <pt x="91" y="56" on="1"/>
        <pt x="311" y="56" on="1"/>
        <pt x="300" y="0" on="1"/>
        <pt x="17" y="0" on="1"/>
      </contour>
      <contour>
        <pt x="242" y="327" on="0"/>
        <pt x="282" y="364" on="0"/>
        <pt x="310" y="364" on="1"/>
        <pt x="333" y="364" on="0"/>
        <pt x="362" y="337" on="0"/>
        <pt x="362" y="314" on="1"/>
        <pt x="362" y="282" on="0"/>
        <pt x="322" y="246" on="0"/>
        <pt x="295" y="246" on="1"/>
        <pt x="272" y="246" on="0"/>
        <pt x="242" y="272" on="0"/>
        <pt x="242" y="295" on="1"/>
      </contour>
    </TTGlyph>
    <TTGlyph name="Lslash" xMin="-39" yMin="0" xMax="311" yMax="640">
      <component glyphName="L" x="0" y="0" flags="0x400"/>
      <component glyphName="_part.slash.comp" x="-112" y="0" flags="0x400"/>
    </TTGlyph>
    <TTGlyph name="M" xMin="17" yMin="0" xMax="597" yMax="640">
      <contour>
        <pt x="145" y="640" on="1"/>
        <pt x="223" y="640" on="1"/>
        <pt x="277" y="346" on="1"/>
        <pt x="291" y="246" on="1"/>
        <pt x="346" y="346" on="1"/>
        <pt x="518" y="640" on="1"/>
        <pt x="597" y="640" on="1"/>
        <pt x="469" y="0" on="1"/>
        <pt x="406" y="0" on="1"/>
        <pt x="495" y="444" on="1"/>
        <pt x="518" y="537" on="1"/>
        <pt x="459" y="425" on="1"/>
        <pt x="296" y="150" on="1"/>
        <pt x="251" y="150" on="1"/>
        <pt x="201" y="425" on="1"/>
        <pt x="185" y="543" on="1"/>
        <pt x="169" y="444" on="1"/>
        <pt x="80" y="0" on="1"/>
        <pt x="17" y="0" on="1"/>
      </contour>
    </TTGlyph>
    <TTGlyph name="M.sups" xMin="128" yMin="320" xMax="409" yMax="640">
      <contour>
        <pt x="171" y="519" on="0"/>
        <pt x="205" y="640" on="1"/>
        <pt x="267" y="640" on="1"/>
        <pt x="274" y="480" on="1"/>
        <pt x="347" y="640" on="1"/>
        <pt x="409" y="640" on="1"/>
        <pt x="390" y="487" on="0"/>
        <pt x="359" y="320" on="1"/>
        <pt x="304" y="320" on="1"/>
        <pt x="319" y="389" on="0"/>
        <pt x="340" y="524" on="1"/>
        <pt x="280" y="394" on="1"/>
        <pt x="237" y="394" on="1"/>
        <pt x="227" y="526" on="1"/>
        <pt x="204" y="425" on="0"/>
        <pt x="183" y="320" on="1"/>
        <pt x="128" y="320" on="1"/>
      </contour>
    </TTGlyph>
    <TTGlyph name="Mu" xMin="17" yMin="0" xMax="597" yMax="640">
      <component glyphName="M" x="0" y="0" flags="0x400"/>
    </TTGlyph>
    <TTGlyph name="N" xMin="17" yMin="0" xMax="501" yMax="640">
      <contour>
        <pt x="297" y="2" on="1"/>
        <pt x="186" y="529" on="1"/>
        <pt x="80" y="0" on="1"/>
        <pt x="17" y="0" on="1"/>
        <pt x="145" y="640" on="1"/>
        <pt x="228" y="640" on="1"/>
        <pt x="226" y="638" on="1"/>
        <pt x="334" y="121" on="1"/>
        <pt x="438" y="640" on="1"/>
        <pt x="501" y="640" on="1"/>
        <pt x="373" y="0" on="1"/>
        <pt x="295" y="0" on="1"/>
      </contour>
    </TTGlyph>
    <TTGlyph name="N.short" xMin="17" yMin="0" xMax="456" yMax="576">
      <contour>
        <pt x="207" y="576" on="1"/>
        <pt x="282" y="229" on="1"/>
        <pt x="299" y="104" on="1"/>
        <pt x="393" y="576" on="1"/>
        <pt x="456" y="576" on="1"/>
        <pt x="341" y="0" on="1"/>
        <pt x="266" y="0" on="1"/>
        <pt x="192" y="347" on="1"/>
        <pt x="174" y="471" on="1"/>
        <pt x="80" y="0" on="1"/>
        <pt x="17" y="0" on="1"/>
        <pt x="132" y="576" on="1"/>
      </contour>
    </TTGlyph>
    <TTGlyph name="N.sups" xMin="133" yMin="320" xMax="417" yMax="640">
      <contour>
        <pt x="197" y="640" on="1"/>
        <pt x="277" y="640" on="1"/>
        <pt x="316" y="401" on="1"/>
        <pt x="363" y="640" on="1"/>
        <pt x="417" y="640" on="1"/>
        <pt x="353" y="320" on="1"/>
        <pt x="274" y="320" on="1"/>
        <pt x="235" y="560" on="1"/>
        <pt x="187" y="320" on="1"/>
        <pt x="133" y="320" on="1"/>
      </contour>
    </TTGlyph>
    <TTGlyph name="Nacute" xMin="17" yMin="0" xMax="501" yMax="832">
      <component glyphName="N" x="0" y="0" flags="0x400"/>
      <component glyphName="acutecomb.case" x="16" y="0" flags="0x400"/>
    </TTGlyph>
    <TTGlyph name="Ncaron" xMin="17" yMin="0" xMax="501" yMax="839">
      <component glyphName="N" x="0" y="0" flags="0x400"/>
      <component glyphName="uni030C.case" x="16" y="0" flags="0x400"/>
    </TTGlyph>
    <TTGlyph name="Ntilde" xMin="17" yMin="0" xMax="511" yMax="837">
      <component glyphName="N" x="0" y="0" flags="0x400"/>
      <component glyphName="tildecomb.case" x="16" y="0" flags="0x400"/>
    </TTGlyph>
    <TTGlyph name="Nu" xMin="17" yMin="0" xMax="501" yMax="640">
      <component glyphName="N" x="0" y="0" flags="0x400"/>
    </TTGlyph>
    <TTGlyph name="O" xMin="44" yMin="-10" xMax="475" yMax="650">
      <contour>
        <pt x="44" y="-10" on="0"/>
        <pt x="44" y="181" on="1"/>
        <pt x="44" y="245" on="0"/>
        <pt x="60" y="324" on="1"/>
        <pt x="93" y="489" on="0"/>
        <pt x="221" y="650" on="0"/>
        <pt x="321" y="650" on="1"/>
        <pt x="399" y="650" on="0"/>
        <pt x="475" y="557" on="0"/>
        <pt x="475" y="463" on="1"/>
        <pt x="475" y="402" on="0"/>
        <pt x="458" y="314" on="1"/>
        <pt x="425" y="151" on="0"/>
        <pt x="298" y="-10" on="0"/>
        <pt x="198" y="-10" on="1"/>
      </contour>
      <contour>
        <pt x="106" y="224" on="0"/>
        <pt x="106" y="167" on="1"/>
        <pt x="106" y="104" on="0"/>
        <pt x="152" y="47" on="0"/>
        <pt x="200" y="47" on="1"/>
        <pt x="274" y="47" on="0"/>
        <pt x="364" y="176" on="0"/>
        <pt x="394" y="324" on="1"/>
        <pt x="412" y="416" on="0"/>
        <pt x="412" y="473" on="1"/>
        <pt x="412" y="536" on="0"/>
        <pt x="367" y="593" on="0"/>
        <pt x="318" y="593" on="1"/>
        <pt x="245" y="593" on="0"/>
        <pt x="154" y="463" on="0"/>
        <pt x="124" y="314" on="1"/>
      </contour>
    </TTGlyph>
    <TTGlyph name="O.short" xMin="38" yMin="-10" xMax="435" yMax="586">
      <contour>
        <pt x="110" y="-10" on="0"/>
        <pt x="38" y="82" on="0"/>
        <pt x="38" y="169" on="1"/>
        <pt x="38" y="220" on="0"/>
        <pt x="52" y="290" on="1"/>
        <pt x="81" y="434" on="0"/>
        <pt x="203" y="586" on="0"/>
        <pt x="294" y="586" on="1"/>
        <pt x="365" y="586" on="0"/>
        <pt x="435" y="494" on="0"/>
        <pt x="435" y="407" on="1"/>
        <pt x="435" y="356" on="0"/>
        <pt x="421" y="284" on="1"/>
        <pt x="362" y="-10" on="0"/>
        <pt x="180" y="-10" on="1"/>
      </contour>
      <contour>
        <pt x="102" y="202" on="0"/>
        <pt x="102" y="156" on="1"/>
        <pt x="102" y="100" on="0"/>
        <pt x="143" y="47" on="0"/>
        <pt x="186" y="47" on="1"/>
        <pt x="250" y="47" on="0"/>
        <pt x="331" y="166" on="0"/>
        <pt x="355" y="290" on="1"/>
        <pt x="371" y="366" on="0"/>
        <pt x="371" y="420" on="1"/>
        <pt x="371" y="476" on="0"/>
        <pt x="331" y="529" on="0"/>
        <pt x="287" y="529" on="1"/>
        <pt x="224" y="529" on="0"/>
        <pt x="142" y="408" on="0"/>
        <pt x="118" y="284" on="1"/>
      </contour>
    </TTGlyph>
    <TTGlyph name="O.sups" xMin="152" yMin="316" xMax="398" yMax="644">
      <contour>
        <pt x="197" y="316" on="0"/>
        <pt x="152" y="372" on="0"/>
        <pt x="152" y="422" on="1"/>
        <pt x="152" y="447" on="0"/>
        <pt x="159" y="485" on="1"/>
        <pt x="174" y="557" on="0"/>
        <pt x="245" y="644" on="0"/>
        <pt x="306" y="644" on="1"/>
        <pt x="353" y="644" on="0"/>
        <pt x="398" y="587" on="0"/>
        <pt x="398" y="537" on="1"/>
        <pt x="398" y="514" on="0"/>
        <pt x="391" y="475" on="1"/>
        <pt x="376" y="403" on="0"/>
        <pt x="303" y="316" on="0"/>
        <pt x="244" y="316" on="1"/>
      </contour>
      <contour>
        <pt x="207" y="443" on="0"/>
        <pt x="207" y="418" on="1"/>
        <pt x="207" y="390" on="0"/>
        <pt x="228" y="365" on="0"/>
        <pt x="249" y="365" on="1"/>
        <pt x="283" y="365" on="0"/>
        <pt x="323" y="419" on="0"/>
        <pt x="336" y="485" on="1"/>
        <pt x="343" y="516" on="0"/>
        <pt x="343" y="540" on="1"/>
        <pt x="343" y="595" on="0"/>
        <pt x="301" y="595" on="1"/>
        <pt x="267" y="595" on="0"/>
        <pt x="227" y="540" on="0"/>
        <pt x="214" y="475" on="1"/>
      </contour>
    </TTGlyph>
    <TTGlyph name="OE" xMin="45" yMin="0" xMax="710" yMax="640">
      <contour>
        <pt x="139" y="0" on="0"/>
        <pt x="45" y="102" on="0"/>
        <pt x="45" y="201" on="1"/>
        <pt x="45" y="252" on="0"/>
        <pt x="59" y="324" on="1"/>
        <pt x="91" y="485" on="0"/>
        <pt x="235" y="640" on="0"/>
        <pt x="354" y="640" on="1"/>
        <pt x="710" y="640" on="1"/>
        <pt x="698" y="584" on="1"/>
        <pt x="463" y="584" on="1"/>
        <pt x="409" y="316" on="1"/>
        <pt x="591" y="316" on="1"/>
        <pt x="580" y="260" on="1"/>
        <pt x="398" y="260" on="1"/>
        <pt x="357" y="56" on="1"/>
        <pt x="603" y="56" on="1"/>
        <pt x="592" y="0" on="1"/>
        <pt x="232" y="0" on="1"/>
      </contour>
      <contour>
        <pt x="108" y="240" on="0"/>
        <pt x="108" y="186" on="1"/>
        <pt x="108" y="117" on="0"/>
        <pt x="170" y="56" on="0"/>
        <pt x="238" y="56" on="1"/>
        <pt x="295" y="56" on="1"/>
        <pt x="400" y="584" on="1"/>
        <pt x="348" y="584" on="1"/>
        <pt x="286" y="584" on="0"/>
        <pt x="201" y="530" on="0"/>
        <pt x="144" y="413" on="0"/>
        <pt x="124" y="314" on="1"/>
      </contour>
    </TTGlyph>
    <TTGlyph name="Oacute" xMin="44" yMin="-10" xMax="475" yMax="832">
      <component glyphName="O" x="0" y="0" flags="0x400"/>
      <component glyphName="acutecomb.case" x="16" y="0" flags="0x400"/>
    </TTGlyph>
    <TTGlyph name="Obreve" xMin="44" yMin="-10" xMax="487" yMax="834">
      <component glyphName="O" x="0" y="0" flags="0x400"/>
      <component glyphName="uni0306.case" x="16" y="0" flags="0x400"/>
    </TTGlyph>
    <TTGlyph name="Ocircumflex" xMin="44" yMin="-10" xMax="475" yMax="841">
      <component glyphName="O" x="0" y="0" flags="0x400"/>
      <component glyphName="uni0302.case" x="16" y="0" flags="0x400"/>
    </TTGlyph>
    <TTGlyph name="Odieresis" xMin="44" yMin="-10" xMax="489" yMax="814">
      <component glyphName="O" x="0" y="0" flags="0x400"/>
      <component glyphName="uni0308.case" x="16" y="0" flags="0x400"/>
    </TTGlyph>
    <TTGlyph name="Ograve" xMin="44" yMin="-10" xMax="475" yMax="832">
      <component glyphName="O" x="0" y="0" flags="0x400"/>
      <component glyphName="gravecomb.case" x="16" y="0" flags="0x400"/>
    </TTGlyph>
    <TTGlyph name="Ohorn" xMin="44" yMin="-10" xMax="544" yMax="768">
      <contour>
        <pt x="44" y="-10" on="0"/>
        <pt x="44" y="181" on="1"/>
        <pt x="44" y="245" on="0"/>
        <pt x="60" y="324" on="1"/>
        <pt x="93" y="489" on="0"/>
        <pt x="221" y="650" on="0"/>
        <pt x="321" y="650" on="1"/>
        <pt x="338" y="650" on="0"/>
        <pt x="378" y="645" on="1"/>
        <pt x="401" y="640" on="0"/>
        <pt x="421" y="640" on="1"/>
        <pt x="470" y="640" on="0"/>
        <pt x="480" y="695" on="1"/>
        <pt x="486" y="725" on="0"/>
        <pt x="486" y="768" on="1"/>
        <pt x="542" y="768" on="1"/>
        <pt x="544" y="744" on="0"/>
        <pt x="544" y="730" on="1"/>
        <pt x="544" y="701" on="0"/>
        <pt x="539" y="678" on="1"/>
        <pt x="531" y="638" on="0"/>
        <pt x="487" y="596" on="0"/>
        <pt x="448" y="588" on="1"/>
        <pt x="475" y="542" on="0"/>
        <pt x="475" y="463" on="1"/>
        <pt x="475" y="404" on="0"/>
        <pt x="458" y="314" on="1"/>
        <pt x="425" y="151" on="0"/>
        <pt x="298" y="-10" on="0"/>
        <pt x="197" y="-10" on="1"/>
      </contour>
      <contour>
        <pt x="106" y="224" on="0"/>
        <pt x="106" y="167" on="1"/>
        <pt x="106" y="104" on="0"/>
        <pt x="152" y="47" on="0"/>
        <pt x="200" y="47" on="1"/>
        <pt x="274" y="47" on="0"/>
        <pt x="364" y="176" on="0"/>
        <pt x="394" y="324" on="1"/>
        <pt x="412" y="416" on="0"/>
        <pt x="412" y="472" on="1"/>
        <pt x="412" y="535" on="0"/>
        <pt x="366" y="593" on="0"/>
        <pt x="318" y="593" on="1"/>
        <pt x="244" y="593" on="0"/>
        <pt x="154" y="463" on="0"/>
        <pt x="124" y="314" on="1"/>
      </contour>
    </TTGlyph>
    <TTGlyph name="Ohorn.short" xMin="39" yMin="-10" xMax="499" yMax="704">
      <contour>
        <pt x="111" y="-10" on="0"/>
        <pt x="39" y="82" on="0"/>
        <pt x="39" y="169" on="1"/>
        <pt x="39" y="220" on="0"/>
        <pt x="53" y="292" on="1"/>
        <pt x="82" y="434" on="0"/>
        <pt x="202" y="586" on="0"/>
        <pt x="292" y="586" on="1"/>
        <pt x="314" y="586" on="0"/>
        <pt x="340" y="580" on="1"/>
        <pt x="364" y="576" on="0"/>
        <pt x="376" y="576" on="1"/>
        <pt x="424" y="576" on="0"/>
        <pt x="436" y="631" on="1"/>
        <pt x="441" y="656" on="0"/>
        <pt x="441" y="704" on="1"/>
        <pt x="497" y="704" on="1"/>
        <pt x="499" y="680" on="0"/>
        <pt x="499" y="664" on="1"/>
        <pt x="499" y="635" on="0"/>
        <pt x="494" y="614" on="1"/>
        <pt x="487" y="575" on="0"/>
        <pt x="445" y="533" on="0"/>
        <pt x="409" y="525" on="1"/>
        <pt x="434" y="481" on="0"/>
        <pt x="434" y="405" on="1"/>
        <pt x="434" y="350" on="0"/>
        <pt x="421" y="282" on="1"/>
        <pt x="361" y="-10" on="0"/>
        <pt x="182" y="-10" on="1"/>
      </contour>
      <contour>
        <pt x="102" y="207" on="0"/>
        <pt x="102" y="156" on="1"/>
        <pt x="102" y="100" on="0"/>
        <pt x="142" y="47" on="0"/>
        <pt x="184" y="47" on="1"/>
        <pt x="249" y="47" on="0"/>
        <pt x="331" y="166" on="0"/>
        <pt x="356" y="292" on="1"/>
        <pt x="372" y="374" on="0"/>
        <pt x="372" y="419" on="1"/>
        <pt x="372" y="475" on="0"/>
        <pt x="332" y="529" on="0"/>
        <pt x="289" y="529" on="1"/>
        <pt x="224" y="529" on="0"/>
        <pt x="142" y="408" on="0"/>
        <pt x="117" y="282" on="1"/>
      </contour>
    </TTGlyph>
    <TTGlyph name="Ohungarumlaut" xMin="44" yMin="-10" xMax="497" yMax="832">
      <component glyphName="O" x="0" y="0" flags="0x400"/>
      <component glyphName="uni030B.case" x="16" y="0" flags="0x400"/>
    </TTGlyph>
    <TTGlyph name="Omacron" xMin="44" yMin="-10" xMax="475" yMax="765">
      <component glyphName="O" x="0" y="0" flags="0x400"/>
      <component glyphName="uni0304.case" x="16" y="0" flags="0x400"/>
    </TTGlyph>
    <TTGlyph name="Omegatonos" xMin="0" yMin="0" xMax="452" yMax="704">
      <component glyphName="tonos" x="-256" y="0" flags="0x400"/>
      <component glyphName="uni03A9" x="0" y="0" flags="0x400"/>
    </TTGlyph>
    <TTGlyph name="Omicron" xMin="44" yMin="-10" xMax="475" yMax="650">
      <component glyphName="O" x="0" y="0" flags="0x400"/>
    </TTGlyph>
    <TTGlyph name="Omicrontonos" xMin="0" yMin="-10" xMax="474" yMax="704">
      <component glyphName="tonos" x="-256" y="0" flags="0x400"/>
      <component glyphName="Omicron" x="-1" y="0" flags="0x400"/>
    </TTGlyph>
    <TTGlyph name="Oslash" xMin="12" yMin="-12" xMax="506" yMax="653">
      <component glyphName="O" x="0" y="0" flags="0x400"/>
      <component glyphName="_part.slash.O" x="16" y="0" flags="0x400"/>
    </TTGlyph>
    <TTGlyph name="Oslashacute" xMin="12" yMin="-12" xMax="506" yMax="832">
      <component glyphName="Oslash" x="0" y="0" flags="0x400"/>
      <component glyphName="acutecomb.case" x="16" y="0" flags="0x400"/>
    </TTGlyph>
    <TTGlyph name="Otilde" xMin="44" yMin="-10" xMax="511" yMax="837">
      <component glyphName="O" x="0" y="0" flags="0x400"/>
      <component glyphName="tildecomb.case" x="16" y="0" flags="0x400"/>
    </TTGlyph>
    <TTGlyph name="P" xMin="17" yMin="0" xMax="443" yMax="640">
      <contour>
        <pt x="145" y="640" on="1"/>
        <pt x="295" y="640" on="1"/>
        <pt x="364" y="640" on="0"/>
        <pt x="443" y="556" on="0"/>
        <pt x="443" y="480" on="1"/>
        <pt x="443" y="446" on="0"/>
        <pt x="436" y="411" on="1"/>
        <pt x="415" y="306" on="0"/>
        <pt x="295" y="196" on="0"/>
        <pt x="211" y="196" on="1"/>
        <pt x="119" y="196" on="1"/>
        <pt x="80" y="0" on="1"/>
        <pt x="17" y="0" on="1"/>
      </contour>
      <contour>
        <pt x="213" y="252" on="1"/>
        <pt x="281" y="252" on="0"/>
        <pt x="356" y="340" on="0"/>
        <pt x="372" y="421" on="1"/>
        <pt x="380" y="459" on="0"/>
        <pt x="380" y="488" on="1"/>
        <pt x="380" y="535" on="0"/>
        <pt x="334" y="584" on="0"/>
        <pt x="283" y="584" on="1"/>
        <pt x="196" y="584" on="1"/>
        <pt x="130" y="252" on="1"/>
      </contour>
    </TTGlyph>
    <TTGlyph name="P.short" xMin="17" yMin="0" xMax="436" yMax="575">
      <contour>
        <pt x="132" y="575" on="1"/>
        <pt x="283" y="575" on="1"/>
        <pt x="354" y="575" on="0"/>
        <pt x="436" y="501" on="0"/>
        <pt x="436" y="433" on="1"/>
        <pt x="436" y="408" on="0"/>
        <pt x="430" y="381" on="1"/>
        <pt x="412" y="290" on="0"/>
        <pt x="296" y="196" on="0"/>
        <pt x="211" y="196" on="1"/>
        <pt x="119" y="196" on="1"/>
        <pt x="80" y="0" on="1"/>
        <pt x="17" y="0" on="1"/>
      </contour>
      <contour>
        <pt x="213" y="252" on="1"/>
        <pt x="281" y="252" on="0"/>
        <pt x="352" y="322" on="0"/>
        <pt x="365" y="386" on="1"/>
        <pt x="370" y="414" on="0"/>
        <pt x="370" y="434" on="1"/>
        <pt x="370" y="476" on="0"/>
        <pt x="323" y="520" on="0"/>
        <pt x="270" y="520" on="1"/>
        <pt x="184" y="520" on="1"/>
        <pt x="130" y="252" on="1"/>
      </contour>
    </TTGlyph>
    <TTGlyph name="P.sups" xMin="146" yMin="320" xMax="403" yMax="640">
      <contour>
        <pt x="210" y="640" on="1"/>
        <pt x="304" y="640" on="1"/>
        <pt x="351" y="640" on="0"/>
        <pt x="402" y="596" on="0"/>
        <pt x="403" y="554" on="1"/>
        <pt x="403" y="505" on="0"/>
        <pt x="332" y="443" on="0"/>
        <pt x="273" y="443" on="1"/>
        <pt x="227" y="443" on="1"/>
        <pt x="202" y="320" on="1"/>
        <pt x="146" y="320" on="1"/>
      </contour>
      <contour>
        <pt x="276" y="491" on="1"/>
        <pt x="308" y="491" on="0"/>
        <pt x="344" y="526" on="0"/>
        <pt x="344" y="554" on="1"/>
        <pt x="344" y="593" on="0"/>
        <pt x="299" y="593" on="1"/>
        <pt x="257" y="593" on="1"/>
        <pt x="236" y="491" on="1"/>
      </contour>
    </TTGlyph>
    <TTGlyph name="Phi" xMin="51" yMin="0" xMax="607" yMax="640">
      <component glyphName="uni0424" x="0" y="0" flags="0x400"/>
    </TTGlyph>
    <TTGlyph name="Pi" xMin="17" yMin="0" xMax="501" yMax="640">
      <component glyphName="uni041F" x="0" y="0" flags="0x400"/>
    </TTGlyph>
    <TTGlyph name="Psi" xMin="70" yMin="0" xMax="474" yMax="640">
      <contour>
        <pt x="257" y="238" on="1"/>
        <pt x="308" y="250" on="0"/>
        <pt x="369" y="348" on="0"/>
        <pt x="388" y="441" on="1"/>
        <pt x="406" y="532" on="0"/>
        <pt x="418" y="640" on="1"/>
        <pt x="474" y="640" on="1"/>
        <pt x="467" y="517" on="0"/>
        <pt x="450" y="433" on="1"/>
        <pt x="427" y="318" on="0"/>
        <pt x="332" y="191" on="0"/>
        <pt x="246" y="182" on="1"/>
        <pt x="209" y="0" on="1"/>
        <pt x="147" y="0" on="1"/>
        <pt x="184" y="183" on="1"/>
        <pt x="70" y="200" on="0"/>
        <pt x="70" y="335" on="1"/>
        <pt x="70" y="375" on="0"/>
        <pt x="82" y="438" on="1"/>
        <pt x="98" y="523" on="0"/>
        <pt x="137" y="640" on="1"/>
        <pt x="196" y="640" on="1"/>
        <pt x="160" y="513" on="0"/>
        <pt x="144" y="436" on="1"/>
        <pt x="132" y="375" on="0"/>
        <pt x="132" y="333" on="1"/>
        <pt x="132" y="290" on="0"/>
        <pt x="162" y="243" on="0"/>
        <pt x="195" y="236" on="1"/>
        <pt x="275" y="640" on="1"/>
        <pt x="337" y="640" on="1"/>
      </contour>
    </TTGlyph>
    <TTGlyph name="Q" xMin="44" yMin="-138" xMax="475" yMax="650">
      <contour>
        <pt x="271" y="-134" on="0"/>
        <pt x="186" y="-73" on="0"/>
        <pt x="185" y="-10" on="1"/>
        <pt x="44" y="-1" on="0"/>
        <pt x="44" y="181" on="1"/>
        <pt x="44" y="245" on="0"/>
        <pt x="60" y="324" on="1"/>
        <pt x="93" y="489" on="0"/>
        <pt x="221" y="650" on="0"/>
        <pt x="321" y="650" on="1"/>
        <pt x="399" y="650" on="0"/>
        <pt x="475" y="557" on="0"/>
        <pt x="475" y="463" on="1"/>
        <pt x="475" y="402" on="0"/>
        <pt x="458" y="314" on="1"/>
        <pt x="429" y="171" on="0"/>
        <pt x="325" y="13" on="0"/>
        <pt x="246" y="-5" on="1"/>
        <pt x="245" y="-34" on="0"/>
        <pt x="268" y="-65" on="0"/>
        <pt x="318" y="-78" on="0"/>
        <pt x="364" y="-80" on="1"/>
        <pt x="350" y="-138" on="1"/>
      </contour>
      <contour>
        <pt x="106" y="224" on="0"/>
        <pt x="106" y="167" on="1"/>
        <pt x="106" y="104" on="0"/>
        <pt x="152" y="47" on="0"/>
        <pt x="200" y="47" on="1"/>
        <pt x="274" y="47" on="0"/>
        <pt x="364" y="176" on="0"/>
        <pt x="394" y="324" on="1"/>
        <pt x="412" y="416" on="0"/>
        <pt x="412" y="473" on="1"/>
        <pt x="412" y="536" on="0"/>
        <pt x="367" y="593" on="0"/>
        <pt x="318" y="593" on="1"/>
        <pt x="245" y="593" on="0"/>
        <pt x="154" y="463" on="0"/>
        <pt x="124" y="314" on="1"/>
      </contour>
    </TTGlyph>
    <TTGlyph name="Q.sups" xMin="152" yMin="256" xMax="398" yMax="644">
      <contour>
        <pt x="152" y="337" on="0"/>
        <pt x="152" y="421" on="1"/>
        <pt x="152" y="445" on="0"/>
        <pt x="159" y="485" on="1"/>
        <pt x="174" y="557" on="0"/>
        <pt x="245" y="644" on="0"/>
        <pt x="306" y="644" on="1"/>
        <pt x="353" y="644" on="0"/>
        <pt x="398" y="587" on="0"/>
        <pt x="398" y="537" on="1"/>
        <pt x="398" y="514" on="0"/>
        <pt x="391" y="475" on="1"/>
        <pt x="378" y="411" on="0"/>
        <pt x="316" y="327" on="0"/>
        <pt x="267" y="318" on="1"/>
        <pt x="255" y="256" on="1"/>
        <pt x="199" y="256" on="1"/>
        <pt x="212" y="320" on="1"/>
      </contour>
      <contour>
        <pt x="207" y="443" on="0"/>
        <pt x="207" y="418" on="1"/>
        <pt x="207" y="390" on="0"/>
        <pt x="228" y="365" on="0"/>
        <pt x="249" y="365" on="1"/>
        <pt x="283" y="365" on="0"/>
        <pt x="323" y="419" on="0"/>
        <pt x="336" y="485" on="1"/>
        <pt x="343" y="516" on="0"/>
        <pt x="343" y="540" on="1"/>
        <pt x="343" y="595" on="0"/>
        <pt x="301" y="595" on="1"/>
        <pt x="267" y="595" on="0"/>
        <pt x="227" y="540" on="0"/>
        <pt x="214" y="475" on="1"/>
      </contour>
    </TTGlyph>
    <TTGlyph name="R" xMin="17" yMin="0" xMax="447" yMax="640">
      <contour>
        <pt x="367" y="640" on="0"/>
        <pt x="447" y="563" on="0"/>
        <pt x="447" y="494" on="1"/>
        <pt x="447" y="467" on="0"/>
        <pt x="441" y="437" on="1"/>
        <pt x="425" y="356" on="0"/>
        <pt x="332" y="264" on="0"/>
        <pt x="262" y="255" on="1"/>
        <pt x="313" y="232" on="0"/>
        <pt x="366" y="124" on="0"/>
        <pt x="366" y="48" on="1"/>
        <pt x="366" y="26" on="0"/>
        <pt x="363" y="0" on="1"/>
        <pt x="300" y="0" on="1"/>
        <pt x="302" y="18" on="0"/>
        <pt x="302" y="50" on="1"/>
        <pt x="302" y="125" on="0"/>
        <pt x="249" y="216" on="0"/>
        <pt x="191" y="245" on="1"/>
        <pt x="128" y="245" on="1"/>
        <pt x="80" y="0" on="1"/>
        <pt x="17" y="0" on="1"/>
        <pt x="145" y="640" on="1"/>
        <pt x="296" y="640" on="1"/>
      </contour>
      <contour>
        <pt x="224" y="301" on="1"/>
        <pt x="292" y="301" on="0"/>
        <pt x="363" y="377" on="0"/>
        <pt x="377" y="447" on="1"/>
        <pt x="383" y="476" on="0"/>
        <pt x="383" y="500" on="1"/>
        <pt x="383" y="541" on="0"/>
        <pt x="338" y="584" on="0"/>
        <pt x="285" y="584" on="1"/>
        <pt x="196" y="584" on="1"/>
        <pt x="140" y="301" on="1"/>
      </contour>
    </TTGlyph>
    <TTGlyph name="R.short" xMin="17" yMin="0" xMax="437" yMax="576">
      <contour>
        <pt x="355" y="576" on="0"/>
        <pt x="437" y="504" on="0"/>
        <pt x="437" y="439" on="1"/>
        <pt x="437" y="420" on="0"/>
        <pt x="432" y="392" on="1"/>
        <pt x="417" y="317" on="0"/>
        <pt x="328" y="232" on="0"/>
        <pt x="260" y="223" on="1"/>
        <pt x="311" y="201" on="0"/>
        <pt x="365" y="103" on="0"/>
        <pt x="365" y="34" on="1"/>
        <pt x="365" y="24" on="0"/>
        <pt x="363" y="0" on="1"/>
        <pt x="300" y="0" on="1"/>
        <pt x="301" y="12" on="0"/>
        <pt x="301" y="34" on="1"/>
        <pt x="301" y="103" on="0"/>
        <pt x="247" y="187" on="0"/>
        <pt x="186" y="214" on="1"/>
        <pt x="122" y="214" on="1"/>
        <pt x="80" y="0" on="1"/>
        <pt x="17" y="0" on="1"/>
        <pt x="132" y="576" on="1"/>
        <pt x="283" y="576" on="1"/>
      </contour>
      <contour>
        <pt x="217" y="269" on="1"/>
        <pt x="285" y="269" on="0"/>
        <pt x="355" y="335" on="0"/>
        <pt x="367" y="397" on="1"/>
        <pt x="372" y="424" on="0"/>
        <pt x="372" y="441" on="1"/>
        <pt x="372" y="480" on="0"/>
        <pt x="326" y="520" on="0"/>
        <pt x="272" y="520" on="1"/>
        <pt x="184" y="520" on="1"/>
        <pt x="134" y="269" on="1"/>
      </contour>
    </TTGlyph>
    <TTGlyph name="R.sups" xMin="146" yMin="320" xMax="391" yMax="640">
      <contour>
        <pt x="342" y="640" on="0"/>
        <pt x="391" y="597" on="0"/>
        <pt x="391" y="558" on="1"/>
        <pt x="391" y="545" on="0"/>
        <pt x="388" y="530" on="1"/>
        <pt x="375" y="463" on="0"/>
        <pt x="314" y="447" on="1"/>
        <pt x="350" y="416" on="0"/>
        <pt x="350" y="350" on="1"/>
        <pt x="350" y="340" on="0"/>
        <pt x="348" y="320" on="1"/>
        <pt x="291" y="320" on="1"/>
        <pt x="293" y="342" on="0"/>
        <pt x="293" y="350" on="1"/>
        <pt x="293" y="379" on="0"/>
        <pt x="277" y="417" on="0"/>
        <pt x="261" y="431" on="1"/>
        <pt x="224" y="431" on="1"/>
        <pt x="202" y="320" on="1"/>
        <pt x="146" y="320" on="1"/>
        <pt x="210" y="640" on="1"/>
        <pt x="301" y="640" on="1"/>
      </contour>
      <contour>
        <pt x="266" y="481" on="1"/>
        <pt x="321" y="481" on="0"/>
        <pt x="333" y="541" on="1"/>
        <pt x="335" y="553" on="0"/>
        <pt x="335" y="558" on="1"/>
        <pt x="335" y="574" on="0"/>
        <pt x="316" y="591" on="0"/>
        <pt x="293" y="591" on="1"/>
        <pt x="256" y="591" on="1"/>
        <pt x="234" y="481" on="1"/>
      </contour>
    </TTGlyph>
    <TTGlyph name="Racute" xMin="17" yMin="0" xMax="447" yMax="832">
      <component glyphName="R" x="0" y="0" flags="0x400"/>
      <component glyphName="acutecomb.case" x="-16" y="0" flags="0x400"/>
    </TTGlyph>
    <TTGlyph name="Rcaron" xMin="17" yMin="0" xMax="465" yMax="839">
      <component glyphName="R" x="0" y="0" flags="0x400"/>
      <component glyphName="uni030C.case" x="-16" y="0" flags="0x400"/>
    </TTGlyph>
    <TTGlyph name="Rho" xMin="17" yMin="0" xMax="443" yMax="640">
      <component glyphName="P" x="0" y="0" flags="0x400"/>
    </TTGlyph>
    <TTGlyph name="S" xMin="16" yMin="-8" xMax="449" yMax="648">
      <contour>
        <pt x="78" y="-8" on="0"/>
        <pt x="16" y="23" on="1"/>
        <pt x="36" y="70" on="1"/>
        <pt x="96" y="48" on="0"/>
        <pt x="161" y="48" on="1"/>
        <pt x="236" y="48" on="0"/>
        <pt x="311" y="106" on="0"/>
        <pt x="311" y="155" on="1"/>
        <pt x="311" y="194" on="0"/>
        <pt x="267" y="242" on="0"/>
        <pt x="222" y="272" on="1"/>
        <pt x="185" y="296" on="0"/>
        <pt x="139" y="336" on="0"/>
        <pt x="107" y="398" on="0"/>
        <pt x="107" y="443" on="1"/>
        <pt x="107" y="537" on="0"/>
        <pt x="223" y="648" on="0"/>
        <pt x="334" y="648" on="1"/>
        <pt x="394" y="648" on="0"/>
        <pt x="449" y="629" on="1"/>
        <pt x="434" y="580" on="1"/>
        <pt x="384" y="592" on="0"/>
        <pt x="334" y="592" on="1"/>
        <pt x="252" y="592" on="0"/>
        <pt x="170" y="519" on="0"/>
        <pt x="170" y="448" on="1"/>
        <pt x="170" y="416" on="0"/>
        <pt x="196" y="370" on="0"/>
        <pt x="233" y="339" on="0"/>
        <pt x="266" y="318" on="1"/>
        <pt x="302" y="295" on="0"/>
        <pt x="344" y="259" on="0"/>
        <pt x="374" y="202" on="0"/>
        <pt x="374" y="161" on="1"/>
        <pt x="374" y="84" on="0"/>
        <pt x="264" y="-8" on="0"/>
        <pt x="161" y="-8" on="1"/>
      </contour>
    </TTGlyph>
    <TTGlyph name="S.short" xMin="16" yMin="-8" xMax="438" yMax="584">
      <contour>
        <pt x="78" y="-8" on="0"/>
        <pt x="16" y="23" on="1"/>
        <pt x="36" y="70" on="1"/>
        <pt x="96" y="48" on="0"/>
        <pt x="161" y="48" on="1"/>
        <pt x="235" y="48" on="0"/>
        <pt x="309" y="100" on="0"/>
        <pt x="309" y="145" on="1"/>
        <pt x="309" y="177" on="0"/>
        <pt x="265" y="217" on="0"/>
        <pt x="219" y="241" on="1"/>
        <pt x="179" y="263" on="0"/>
        <pt x="132" y="298" on="0"/>
        <pt x="98" y="354" on="0"/>
        <pt x="98" y="395" on="1"/>
        <pt x="98" y="481" on="0"/>
        <pt x="214" y="584" on="0"/>
        <pt x="323" y="584" on="1"/>
        <pt x="383" y="584" on="0"/>
        <pt x="438" y="565" on="1"/>
        <pt x="423" y="516" on="1"/>
        <pt x="373" y="528" on="0"/>
        <pt x="323" y="528" on="1"/>
        <pt x="162" y="528" on="0"/>
        <pt x="162" y="400" on="1"/>
        <pt x="162" y="363" on="0"/>
        <pt x="210" y="318" on="0"/>
        <pt x="258" y="293" on="1"/>
        <pt x="295" y="273" on="0"/>
        <pt x="340" y="240" on="0"/>
        <pt x="372" y="188" on="0"/>
        <pt x="372" y="151" on="1"/>
        <pt x="372" y="79" on="0"/>
        <pt x="263" y="-8" on="0"/>
        <pt x="161" y="-8" on="1"/>
      </contour>
    </TTGlyph>
    <TTGlyph name="S.sups" xMin="153" yMin="316" xMax="390" yMax="644">
      <contour>
        <pt x="195" y="316" on="0"/>
        <pt x="153" y="326" on="1"/>
        <pt x="163" y="370" on="1"/>
        <pt x="207" y="364" on="0"/>
        <pt x="227" y="364" on="1"/>
        <pt x="263" y="364" on="0"/>
        <pt x="299" y="393" on="0"/>
        <pt x="299" y="417" on="1"/>
        <pt x="299" y="434" on="0"/>
        <pt x="278" y="452" on="0"/>
        <pt x="256" y="463" on="1"/>
        <pt x="227" y="478" on="0"/>
        <pt x="195" y="510" on="0"/>
        <pt x="195" y="544" on="1"/>
        <pt x="195" y="582" on="0"/>
        <pt x="256" y="644" on="0"/>
        <pt x="315" y="644" on="1"/>
        <pt x="353" y="644" on="0"/>
        <pt x="390" y="634" on="1"/>
        <pt x="378" y="590" on="1"/>
        <pt x="334" y="596" on="0"/>
        <pt x="319" y="596" on="1"/>
        <pt x="288" y="596" on="0"/>
        <pt x="252" y="571" on="0"/>
        <pt x="252" y="548" on="1"/>
        <pt x="252" y="533" on="0"/>
        <pt x="271" y="516" on="0"/>
        <pt x="293" y="504" on="1"/>
        <pt x="324" y="488" on="0"/>
        <pt x="356" y="454" on="0"/>
        <pt x="356" y="420" on="1"/>
        <pt x="356" y="378" on="0"/>
        <pt x="293" y="316" on="0"/>
        <pt x="232" y="316" on="1"/>
      </contour>
    </TTGlyph>
    <TTGlyph name="Sacute" xMin="16" yMin="-8" xMax="449" yMax="832">
      <component glyphName="S" x="0" y="0" flags="0x400"/>
      <component glyphName="acutecomb.case" x="0" y="0" flags="0x400"/>
    </TTGlyph>
    <TTGlyph name="Scaron" xMin="16" yMin="-8" xMax="481" yMax="839">
      <component glyphName="S" x="0" y="0" flags="0x400"/>
      <component glyphName="uni030C.case" x="0" y="0" flags="0x400"/>
    </TTGlyph>
    <TTGlyph name="Scedilla" xMin="7" yMin="-192" xMax="449" yMax="648">
      <component glyphName="S" x="0" y="0" flags="0x400"/>
      <component glyphName="uni0327" x="-40" y="0" flags="0x400"/>
    </TTGlyph>
    <TTGlyph name="Scircumflex" xMin="16" yMin="-8" xMax="452" yMax="841">
      <component glyphName="S" x="0" y="0" flags="0x400"/>
      <component glyphName="uni0302.case" x="0" y="0" flags="0x400"/>
    </TTGlyph>
    <TTGlyph name="Sigma" xMin="12" yMin="0" xMax="469" yMax="640">
      <contour>
        <pt x="210" y="320" on="1"/>
        <pt x="212" y="320" on="1"/>
        <pt x="144" y="594" on="1"/>
        <pt x="152" y="640" on="1"/>
        <pt x="469" y="640" on="1"/>
        <pt x="457" y="584" on="1"/>
        <pt x="212" y="584" on="1"/>
        <pt x="278" y="320" on="1"/>
        <pt x="280" y="320" on="1"/>
        <pt x="97" y="56" on="1"/>
        <pt x="352" y="56" on="1"/>
        <pt x="341" y="0" on="1"/>
        <pt x="12" y="0" on="1"/>
        <pt x="22" y="46" on="1"/>
        <pt x="21" y="46" on="1"/>
      </contour>
    </TTGlyph>
    <TTGlyph name="T" xMin="121" yMin="0" xMax="482" yMax="640">
      <contour>
        <pt x="327" y="584" on="1"/>
        <pt x="210" y="0" on="1"/>
        <pt x="148" y="0" on="1"/>
        <pt x="264" y="584" on="1"/>
        <pt x="121" y="584" on="1"/>
        <pt x="132" y="640" on="1"/>
        <pt x="482" y="640" on="1"/>
        <pt x="471" y="584" on="1"/>
      </contour>
    </TTGlyph>
    <TTGlyph name="T.short" xMin="109" yMin="0" xMax="469" yMax="576">
      <contour>
        <pt x="315" y="520" on="1"/>
        <pt x="210" y="0" on="1"/>
        <pt x="148" y="0" on="1"/>
        <pt x="252" y="520" on="1"/>
        <pt x="109" y="520" on="1"/>
        <pt x="119" y="576" on="1"/>
        <pt x="469" y="576" on="1"/>
        <pt x="459" y="520" on="1"/>
      </contour>
    </TTGlyph>
    <TTGlyph name="T.sups" xMin="197" yMin="320" xMax="407" yMax="640">
      <contour>
        <pt x="269" y="591" on="1"/>
        <pt x="197" y="591" on="1"/>
        <pt x="207" y="640" on="1"/>
        <pt x="407" y="640" on="1"/>
        <pt x="397" y="591" on="1"/>
        <pt x="325" y="591" on="1"/>
        <pt x="271" y="320" on="1"/>
        <pt x="215" y="320" on="1"/>
      </contour>
    </TTGlyph>
    <TTGlyph name="Tau" xMin="121" yMin="0" xMax="482" yMax="640">
      <component glyphName="T" x="0" y="0" flags="0x400"/>
    </TTGlyph>
    <TTGlyph name="Tbar" xMin="105" yMin="0" xMax="482" yMax="640">
      <component glyphName="T" x="0" y="0" flags="0x400"/>
      <component glyphName="uni0335" x="13" y="64" flags="0x404"/>
    </TTGlyph>
    <TTGlyph name="Tcaron" xMin="121" yMin="0" xMax="482" yMax="839">
      <component glyphName="T" x="0" y="0" flags="0x400"/>
      <component glyphName="uni030C.case" x="0" y="0" flags="0x400"/>
    </TTGlyph>
    <TTGlyph name="Theta" xMin="44" yMin="-10" xMax="475" yMax="650">
      <contour>
        <pt x="44" y="-10" on="0"/>
        <pt x="44" y="181" on="1"/>
        <pt x="44" y="245" on="0"/>
        <pt x="60" y="324" on="1"/>
        <pt x="93" y="489" on="0"/>
        <pt x="221" y="650" on="0"/>
        <pt x="321" y="650" on="1"/>
        <pt x="399" y="650" on="0"/>
        <pt x="475" y="557" on="0"/>
        <pt x="475" y="463" on="1"/>
        <pt x="475" y="402" on="0"/>
        <pt x="458" y="314" on="1"/>
        <pt x="425" y="151" on="0"/>
        <pt x="298" y="-10" on="0"/>
        <pt x="198" y="-10" on="1"/>
      </contour>
      <contour>
        <pt x="106" y="202" on="0"/>
        <pt x="106" y="167" on="1"/>
        <pt x="106" y="104" on="0"/>
        <pt x="152" y="47" on="0"/>
        <pt x="200" y="47" on="1"/>
        <pt x="265" y="47" on="0"/>
        <pt x="350" y="147" on="0"/>
        <pt x="379" y="258" on="1"/>
        <pt x="114" y="258" on="1"/>
      </contour>
      <contour>
        <pt x="393" y="318" on="1"/>
        <pt x="394" y="324" on="1"/>
        <pt x="412" y="416" on="0"/>
        <pt x="412" y="473" on="1"/>
        <pt x="412" y="536" on="0"/>
        <pt x="367" y="593" on="0"/>
        <pt x="318" y="593" on="1"/>
        <pt x="245" y="593" on="0"/>
        <pt x="155" y="464" on="0"/>
        <pt x="125" y="318" on="1"/>
      </contour>
    </TTGlyph>
    <TTGlyph name="Thorn" xMin="17" yMin="0" xMax="422" yMax="640">
      <contour>
        <pt x="341" y="508" on="0"/>
        <pt x="422" y="433" on="0"/>
        <pt x="422" y="364" on="1"/>
        <pt x="422" y="343" on="0"/>
        <pt x="417" y="313" on="1"/>
        <pt x="399" y="224" on="0"/>
        <pt x="283" y="132" on="0"/>
        <pt x="198" y="132" on="1"/>
        <pt x="106" y="132" on="1"/>
        <pt x="80" y="0" on="1"/>
        <pt x="17" y="0" on="1"/>
        <pt x="145" y="640" on="1"/>
        <pt x="208" y="640" on="1"/>
        <pt x="182" y="508" on="1"/>
        <pt x="268" y="508" on="1"/>
      </contour>
      <contour>
        <pt x="199" y="188" on="1"/>
        <pt x="269" y="188" on="0"/>
        <pt x="341" y="258" on="0"/>
        <pt x="354" y="323" on="1"/>
        <pt x="359" y="351" on="0"/>
        <pt x="359" y="369" on="1"/>
        <pt x="359" y="410" on="0"/>
        <pt x="311" y="452" on="0"/>
        <pt x="256" y="452" on="1"/>
        <pt x="170" y="452" on="1"/>
        <pt x="118" y="188" on="1"/>
      </contour>
    </TTGlyph>
    <TTGlyph name="U" xMin="62" yMin="-8" xMax="485" yMax="640">
      <contour>
        <pt x="224" y="640" on="1"/>
        <pt x="128" y="163" on="1"/>
        <pt x="122" y="136" on="0"/>
        <pt x="122" y="114" on="1"/>
        <pt x="122" y="81" on="0"/>
        <pt x="158" y="48" on="0"/>
        <pt x="200" y="48" on="1"/>
        <pt x="257" y="48" on="0"/>
        <pt x="318" y="111" on="0"/>
        <pt x="329" y="168" on="1"/>
        <pt x="422" y="640" on="1"/>
        <pt x="485" y="640" on="1"/>
        <pt x="390" y="167" on="1"/>
        <pt x="372" y="76" on="0"/>
        <pt x="271" y="-8" on="0"/>
        <pt x="198" y="-8" on="1"/>
        <pt x="134" y="-8" on="0"/>
        <pt x="62" y="53" on="0"/>
        <pt x="62" y="116" on="1"/>
        <pt x="62" y="141" on="0"/>
        <pt x="68" y="171" on="1"/>
        <pt x="161" y="640" on="1"/>
      </contour>
    </TTGlyph>
    <TTGlyph name="U.short" xMin="46" yMin="-8" xMax="456" yMax="576">
      <contour>
        <pt x="195" y="576" on="1"/>
        <pt x="112" y="163" on="1"/>
        <pt x="106" y="136" on="0"/>
        <pt x="106" y="114" on="1"/>
        <pt x="106" y="81" on="0"/>
        <pt x="142" y="48" on="0"/>
        <pt x="184" y="48" on="1"/>
        <pt x="241" y="48" on="0"/>
        <pt x="302" y="111" on="0"/>
        <pt x="313" y="168" on="1"/>
        <pt x="393" y="576" on="1"/>
        <pt x="456" y="576" on="1"/>
        <pt x="374" y="167" on="1"/>
        <pt x="356" y="76" on="0"/>
        <pt x="255" y="-8" on="0"/>
        <pt x="182" y="-8" on="1"/>
        <pt x="118" y="-8" on="0"/>
        <pt x="46" y="53" on="0"/>
        <pt x="46" y="116" on="1"/>
        <pt x="46" y="141" on="0"/>
        <pt x="52" y="171" on="1"/>
        <pt x="132" y="576" on="1"/>
      </contour>
    </TTGlyph>
    <TTGlyph name="U.sups" xMin="156" yMin="316" xMax="411" yMax="640">
      <contour>
        <pt x="205" y="316" on="0"/>
        <pt x="156" y="355" on="0"/>
        <pt x="156" y="393" on="1"/>
        <pt x="156" y="405" on="0"/>
        <pt x="159" y="420" on="1"/>
        <pt x="203" y="640" on="1"/>
        <pt x="259" y="640" on="1"/>
        <pt x="214" y="414" on="1"/>
        <pt x="212" y="402" on="0"/>
        <pt x="212" y="398" on="1"/>
        <pt x="212" y="365" on="0"/>
        <pt x="248" y="365" on="1"/>
        <pt x="273" y="365" on="0"/>
        <pt x="306" y="395" on="0"/>
        <pt x="311" y="419" on="1"/>
        <pt x="355" y="640" on="1"/>
        <pt x="411" y="640" on="1"/>
        <pt x="366" y="416" on="1"/>
        <pt x="355" y="364" on="0"/>
        <pt x="293" y="316" on="0"/>
        <pt x="247" y="316" on="1"/>
      </contour>
    </TTGlyph>
    <TTGlyph name="Uacute" xMin="62" yMin="-8" xMax="485" yMax="832">
      <component glyphName="U" x="0" y="0" flags="0x400"/>
      <component glyphName="acutecomb.case" x="16" y="0" flags="0x400"/>
    </TTGlyph>
    <TTGlyph name="Ubreve" xMin="62" yMin="-8" xMax="487" yMax="834">
      <component glyphName="U" x="0" y="0" flags="0x400"/>
      <component glyphName="uni0306.case" x="16" y="0" flags="0x400"/>
    </TTGlyph>
    <TTGlyph name="Ucircumflex" xMin="62" yMin="-8" xMax="485" yMax="841">
      <component glyphName="U" x="0" y="0" flags="0x400"/>
      <component glyphName="uni0302.case" x="16" y="0" flags="0x400"/>
    </TTGlyph>
    <TTGlyph name="Udieresis" xMin="62" yMin="-8" xMax="489" yMax="814">
      <component glyphName="U" x="0" y="0" flags="0x400"/>
      <component glyphName="uni0308.case" x="16" y="0" flags="0x400"/>
    </TTGlyph>
    <TTGlyph name="Ugrave" xMin="62" yMin="-8" xMax="485" yMax="832">
      <component glyphName="U" x="0" y="0" flags="0x400"/>
      <component glyphName="gravecomb.case" x="16" y="0" flags="0x400"/>
    </TTGlyph>
    <TTGlyph name="Uhorn" xMin="62" yMin="-8" xMax="564" yMax="768">
      <component glyphName="U" x="0" y="0" flags="0x400"/>
      <component glyphName="uni031B.case" x="16" y="0" flags="0x400"/>
    </TTGlyph>
    <TTGlyph name="Uhorn.short" xMin="46" yMin="-8" xMax="535" yMax="704">
      <component glyphName="U.short" x="0" y="0" flags="0x400"/>
      <component glyphName="uni031B.case" x="-13" y="-64" flags="0x404"/>
    </TTGlyph>
    <TTGlyph name="Uhungarumlaut" xMin="62" yMin="-8" xMax="497" yMax="832">
      <component glyphName="U" x="0" y="0" flags="0x400"/>
      <component glyphName="uni030B.case" x="16" y="0" flags="0x400"/>
    </TTGlyph>
    <TTGlyph name="Umacron" xMin="62" yMin="-8" xMax="485" yMax="765">
      <component glyphName="U" x="0" y="0" flags="0x400"/>
      <component glyphName="uni0304.case" x="16" y="0" flags="0x400"/>
    </TTGlyph>
    <TTGlyph name="Uogonek" xMin="62" yMin="-197" xMax="485" yMax="640">
      <component glyphName="U" x="0" y="0" flags="0x400"/>
      <component glyphName="uni0328" x="-83" y="0" flags="0x400"/>
    </TTGlyph>
    <TTGlyph name="Upsilon" xMin="110" yMin="0" xMax="508" yMax="640">
      <contour>
        <pt x="199" y="258" on="0"/>
        <pt x="199" y="329" on="1"/>
        <pt x="199" y="503" on="0"/>
        <pt x="110" y="640" on="1"/>
        <pt x="186" y="640" on="1"/>
        <pt x="252" y="519" on="0"/>
        <pt x="249" y="358" on="1"/>
        <pt x="311" y="520" on="0"/>
        <pt x="423" y="640" on="1"/>
        <pt x="508" y="640" on="1"/>
        <pt x="295" y="435" on="0"/>
        <pt x="243" y="167" on="1"/>
        <pt x="209" y="0" on="1"/>
        <pt x="147" y="0" on="1"/>
        <pt x="182" y="173" on="1"/>
      </contour>
    </TTGlyph>
    <TTGlyph name="Upsilondieresis" xMin="110" yMin="0" xMax="508" yMax="814">
      <component glyphName="Upsilon" x="0" y="0" flags="0x400"/>
      <component glyphName="uni0308.case" x="0" y="0" flags="0x400"/>
    </TTGlyph>
    <TTGlyph name="Upsilontonos" xMin="0" yMin="0" xMax="508" yMax="704">
      <component glyphName="Upsilon" x="0" y="0" flags="0x400"/>
      <component glyphName="tonos" x="-256" y="0" flags="0x400"/>
    </TTGlyph>
    <TTGlyph name="Uring" xMin="62" yMin="-8" xMax="485" yMax="885">
      <component glyphName="U" x="0" y="0" flags="0x400"/>
      <component glyphName="uni030A.case" x="29" y="64" flags="0x404"/>
    </TTGlyph>
    <TTGlyph name="Utilde" xMin="62" yMin="-8" xMax="511" yMax="837">
      <component glyphName="U" x="0" y="0" flags="0x400"/>
      <component glyphName="tildecomb.case" x="16" y="0" flags="0x400"/>
    </TTGlyph>
    <TTGlyph name="V" xMin="105" yMin="-3" xMax="494" yMax="640">
      <contour>
        <pt x="105" y="154" on="0"/>
        <pt x="105" y="380" on="1"/>
        <pt x="105" y="511" on="0"/>
        <pt x="121" y="640" on="1"/>
        <pt x="186" y="640" on="1"/>
        <pt x="170" y="492" on="0"/>
        <pt x="170" y="357" on="1"/>
        <pt x="170" y="198" on="0"/>
        <pt x="193" y="78" on="1"/>
        <pt x="258" y="183" on="0"/>
        <pt x="378" y="470" on="0"/>
        <pt x="428" y="640" on="1"/>
        <pt x="494" y="640" on="1"/>
        <pt x="441" y="453" on="0"/>
        <pt x="294" y="119" on="0"/>
        <pt x="207" y="-3" on="1"/>
        <pt x="154" y="-3" on="1"/>
      </contour>
    </TTGlyph>
    <TTGlyph name="V.sups" xMin="191" yMin="320" xMax="422" yMax="640">
      <contour>
        <pt x="191" y="451" on="0"/>
        <pt x="191" y="578" on="1"/>
        <pt x="191" y="598" on="0"/>
        <pt x="193" y="640" on="1"/>
        <pt x="252" y="640" on="1"/>
        <pt x="248" y="591" on="0"/>
        <pt x="248" y="528" on="1"/>
        <pt x="248" y="449" on="0"/>
        <pt x="255" y="383" on="1"/>
        <pt x="324" y="524" on="0"/>
        <pt x="361" y="640" on="1"/>
        <pt x="422" y="640" on="1"/>
        <pt x="369" y="479" on="0"/>
        <pt x="271" y="320" on="1"/>
        <pt x="220" y="320" on="1"/>
      </contour>
    </TTGlyph>
    <TTGlyph name="W" xMin="83" yMin="0" xMax="618" yMax="640">
      <contour>
        <pt x="83" y="105" on="0"/>
        <pt x="83" y="222" on="1"/>
        <pt x="83" y="405" on="0"/>
        <pt x="124" y="640" on="1"/>
        <pt x="186" y="640" on="1"/>
        <pt x="142" y="400" on="0"/>
        <pt x="142" y="169" on="1"/>
        <pt x="142" y="109" on="0"/>
        <pt x="145" y="49" on="1"/>
        <pt x="270" y="305" on="0"/>
        <pt x="327" y="576" on="1"/>
        <pt x="389" y="576" on="1"/>
        <pt x="356" y="398" on="0"/>
        <pt x="356" y="219" on="1"/>
        <pt x="356" y="129" on="0"/>
        <pt x="363" y="51" on="1"/>
        <pt x="428" y="197" on="0"/>
        <pt x="522" y="483" on="0"/>
        <pt x="556" y="640" on="1"/>
        <pt x="618" y="640" on="1"/>
        <pt x="579" y="460" on="0"/>
        <pt x="470" y="153" on="0"/>
        <pt x="389" y="0" on="1"/>
        <pt x="316" y="0" on="1"/>
        <pt x="304" y="96" on="0"/>
        <pt x="304" y="190" on="1"/>
        <pt x="304" y="270" on="0"/>
        <pt x="311" y="341" on="1"/>
        <pt x="257" y="167" on="0"/>
        <pt x="170" y="0" on="1"/>
        <pt x="97" y="0" on="1"/>
      </contour>
    </TTGlyph>
    <TTGlyph name="W.short" xMin="67" yMin="0" xMax="477" yMax="576">
      <contour>
        <pt x="67" y="82" on="0"/>
        <pt x="67" y="119" on="1"/>
        <pt x="67" y="221" on="0"/>
        <pt x="90" y="435" on="0"/>
        <pt x="114" y="576" on="1"/>
        <pt x="176" y="576" on="1"/>
        <pt x="147" y="417" on="0"/>
        <pt x="120" y="190" on="0"/>
        <pt x="118" y="74" on="1"/>
        <pt x="163" y="179" on="0"/>
        <pt x="223" y="357" on="0"/>
        <pt x="241" y="448" on="1"/>
        <pt x="297" y="448" on="1"/>
        <pt x="267" y="304" on="0"/>
        <pt x="267" y="153" on="1"/>
        <pt x="267" y="128" on="0"/>
        <pt x="269" y="74" on="1"/>
        <pt x="315" y="190" on="0"/>
        <pt x="381" y="420" on="0"/>
        <pt x="414" y="576" on="1"/>
        <pt x="477" y="576" on="1"/>
        <pt x="437" y="397" on="0"/>
        <pt x="353" y="135" on="0"/>
        <pt x="289" y="0" on="1"/>
        <pt x="233" y="0" on="1"/>
        <pt x="224" y="66" on="0"/>
        <pt x="224" y="132" on="1"/>
        <pt x="224" y="194" on="0"/>
        <pt x="231" y="254" on="1"/>
        <pt x="194" y="121" on="0"/>
        <pt x="130" y="0" on="1"/>
        <pt x="71" y="0" on="1"/>
      </contour>
    </TTGlyph>
    <TTGlyph name="W.sups" xMin="166" yMin="320" xMax="424" yMax="640">
      <contour>
        <pt x="166" y="339" on="0"/>
        <pt x="166" y="375" on="1"/>
        <pt x="166" y="504" on="0"/>
        <pt x="192" y="640" on="1"/>
        <pt x="246" y="640" on="1"/>
        <pt x="230" y="560" on="0"/>
        <pt x="213" y="442" on="0"/>
        <pt x="211" y="384" on="1"/>
        <pt x="243" y="463" on="0"/>
        <pt x="264" y="554" on="1"/>
        <pt x="316" y="554" on="1"/>
        <pt x="300" y="462" on="0"/>
        <pt x="299" y="383" on="1"/>
        <pt x="320" y="441" on="0"/>
        <pt x="352" y="559" on="0"/>
        <pt x="369" y="640" on="1"/>
        <pt x="424" y="640" on="1"/>
        <pt x="404" y="546" on="0"/>
        <pt x="357" y="400" on="0"/>
        <pt x="321" y="320" on="1"/>
        <pt x="265" y="320" on="1"/>
        <pt x="262" y="350" on="0"/>
        <pt x="262" y="381" on="1"/>
        <pt x="262" y="404" on="0"/>
        <pt x="263" y="416" on="1"/>
        <pt x="247" y="366" on="0"/>
        <pt x="223" y="320" on="1"/>
        <pt x="167" y="320" on="1"/>
      </contour>
    </TTGlyph>
    <TTGlyph name="Wacute" xMin="83" yMin="0" xMax="618" yMax="832">
      <component glyphName="W" x="0" y="0" flags="0x400"/>
      <component glyphName="acutecomb.case" x="64" y="0" flags="0x400"/>
    </TTGlyph>
    <TTGlyph name="Wcircumflex" xMin="83" yMin="0" xMax="618" yMax="841">
      <component glyphName="W" x="0" y="0" flags="0x400"/>
      <component glyphName="uni0302.case" x="64" y="0" flags="0x400"/>
    </TTGlyph>
    <TTGlyph name="Wdieresis" xMin="83" yMin="0" xMax="618" yMax="814">
      <component glyphName="W" x="0" y="0" flags="0x400"/>
      <component glyphName="uni0308.case" x="64" y="0" flags="0x400"/>
    </TTGlyph>
    <TTGlyph name="Wgrave" xMin="83" yMin="0" xMax="618" yMax="832">
      <component glyphName="W" x="0" y="0" flags="0x400"/>
      <component glyphName="gravecomb.case" x="64" y="0" flags="0x400"/>
    </TTGlyph>
    <TTGlyph name="X" xMin="3" yMin="0" xMax="473" yMax="640">
      <contour>
        <pt x="41" y="98" on="0"/>
        <pt x="125" y="232" on="0"/>
        <pt x="196" y="304" on="1"/>
        <pt x="164" y="353" on="0"/>
        <pt x="135" y="455" on="0"/>
        <pt x="135" y="524" on="1"/>
        <pt x="135" y="578" on="0"/>
        <pt x="142" y="640" on="1"/>
        <pt x="204" y="640" on="1"/>
        <pt x="196" y="563" on="0"/>
        <pt x="196" y="518" on="1"/>
        <pt x="196" y="460" on="0"/>
        <pt x="219" y="378" on="0"/>
        <pt x="245" y="337" on="1"/>
        <pt x="304" y="390" on="0"/>
        <pt x="376" y="523" on="0"/>
        <pt x="410" y="640" on="1"/>
        <pt x="473" y="640" on="1"/>
        <pt x="437" y="516" on="0"/>
        <pt x="353" y="362" on="0"/>
        <pt x="282" y="295" on="1"/>
        <pt x="324" y="226" on="0"/>
        <pt x="353" y="97" on="0"/>
        <pt x="352" y="0" on="1"/>
        <pt x="289" y="0" on="1"/>
        <pt x="290" y="95" on="0"/>
        <pt x="267" y="204" on="0"/>
        <pt x="232" y="262" on="1"/>
        <pt x="176" y="206" on="0"/>
        <pt x="107" y="93" on="0"/>
        <pt x="70" y="0" on="1"/>
        <pt x="3" y="0" on="1"/>
      </contour>
    </TTGlyph>
    <TTGlyph name="X.sups" xMin="133" yMin="320" xMax="410" yMax="640">
      <contour>
        <pt x="154" y="371" on="0"/>
        <pt x="198" y="438" on="0"/>
        <pt x="234" y="472" on="1"/>
        <pt x="217" y="496" on="0"/>
        <pt x="202" y="549" on="0"/>
        <pt x="202" y="584" on="1"/>
        <pt x="202" y="598" on="0"/>
        <pt x="206" y="640" on="1"/>
        <pt x="260" y="640" on="1"/>
        <pt x="257" y="609" on="0"/>
        <pt x="257" y="585" on="1"/>
        <pt x="257" y="533" on="0"/>
        <pt x="278" y="505" on="1"/>
        <pt x="306" y="528" on="0"/>
        <pt x="338" y="587" on="0"/>
        <pt x="353" y="640" on="1"/>
        <pt x="410" y="640" on="1"/>
        <pt x="392" y="577" on="0"/>
        <pt x="349" y="500" on="0"/>
        <pt x="312" y="467" on="1"/>
        <pt x="334" y="435" on="0"/>
        <pt x="350" y="369" on="0"/>
        <pt x="350" y="320" on="1"/>
        <pt x="294" y="320" on="1"/>
        <pt x="293" y="364" on="0"/>
        <pt x="283" y="413" on="0"/>
        <pt x="267" y="434" on="1"/>
        <pt x="241" y="410" on="0"/>
        <pt x="210" y="361" on="0"/>
        <pt x="193" y="320" on="1"/>
        <pt x="133" y="320" on="1"/>
      </contour>
    </TTGlyph>
    <TTGlyph name="Xi" xMin="5" yMin="0" xMax="476" yMax="640">
      <contour>
        <pt x="476" y="640" on="1"/>
        <pt x="465" y="584" on="1"/>
        <pt x="127" y="584" on="1"/>
        <pt x="138" y="640" on="1"/>
      </contour>
      <contour>
        <pt x="16" y="56" on="1"/>
        <pt x="364" y="56" on="1"/>
        <pt x="353" y="0" on="1"/>
        <pt x="5" y="0" on="1"/>
      </contour>
      <contour>
        <pt x="122" y="316" on="1"/>
        <pt x="362" y="316" on="1"/>
        <pt x="351" y="260" on="1"/>
        <pt x="111" y="260" on="1"/>
      </contour>
    </TTGlyph>
    <TTGlyph name="Y" xMin="117" yMin="0" xMax="494" yMax="640">
      <contour>
        <pt x="189" y="202" on="1"/>
        <pt x="117" y="333" on="0"/>
        <pt x="117" y="528" on="1"/>
        <pt x="117" y="575" on="0"/>
        <pt x="122" y="640" on="1"/>
        <pt x="183" y="640" on="1"/>
        <pt x="178" y="570" on="0"/>
        <pt x="178" y="525" on="1"/>
        <pt x="178" y="446" on="0"/>
        <pt x="201" y="314" on="0"/>
        <pt x="226" y="246" on="1"/>
        <pt x="297" y="338" on="0"/>
        <pt x="390" y="517" on="0"/>
        <pt x="429" y="640" on="1"/>
        <pt x="494" y="640" on="1"/>
        <pt x="449" y="498" on="0"/>
        <pt x="331" y="285" on="0"/>
        <pt x="251" y="202" on="1"/>
        <pt x="210" y="0" on="1"/>
        <pt x="148" y="0" on="1"/>
      </contour>
    </TTGlyph>
    <TTGlyph name="Y.short" xMin="105" yMin="0" xMax="481" yMax="576">
      <contour>
        <pt x="183" y="170" on="1"/>
        <pt x="105" y="304" on="0"/>
        <pt x="105" y="485" on="1"/>
        <pt x="105" y="533" on="0"/>
        <pt x="109" y="576" on="1"/>
        <pt x="170" y="576" on="1"/>
        <pt x="166" y="531" on="0"/>
        <pt x="166" y="481" on="1"/>
        <pt x="166" y="405" on="0"/>
        <pt x="192" y="277" on="0"/>
        <pt x="220" y="211" on="1"/>
        <pt x="289" y="294" on="0"/>
        <pt x="377" y="460" on="0"/>
        <pt x="416" y="576" on="1"/>
        <pt x="481" y="576" on="1"/>
        <pt x="436" y="442" on="0"/>
        <pt x="323" y="246" on="0"/>
        <pt x="245" y="170" on="1"/>
        <pt x="210" y="0" on="1"/>
        <pt x="148" y="0" on="1"/>
      </contour>
    </TTGlyph>
    <TTGlyph name="Y.sups" xMin="180" yMin="313" xMax="411" yMax="640">
      <contour>
        <pt x="229" y="371" on="0"/>
        <pt x="282" y="407" on="0"/>
        <pt x="299" y="441" on="1"/>
        <pt x="241" y="449" on="0"/>
        <pt x="198" y="505" on="0"/>
        <pt x="198" y="562" on="1"/>
        <pt x="198" y="592" on="0"/>
        <pt x="203" y="640" on="1"/>
        <pt x="259" y="640" on="1"/>
        <pt x="253" y="594" on="0"/>
        <pt x="253" y="564" on="1"/>
        <pt x="253" y="524" on="0"/>
        <pt x="281" y="494" on="0"/>
        <pt x="319" y="489" on="1"/>
        <pt x="332" y="527" on="0"/>
        <pt x="355" y="640" on="1"/>
        <pt x="411" y="640" on="1"/>
        <pt x="392" y="546" on="0"/>
        <pt x="370" y="460" on="0"/>
        <pt x="354" y="425" on="1"/>
        <pt x="329" y="377" on="0"/>
        <pt x="247" y="321" on="0"/>
        <pt x="183" y="313" on="1"/>
        <pt x="180" y="362" on="1"/>
      </contour>
    </TTGlyph>
    <TTGlyph name="Yacute" xMin="117" yMin="0" xMax="494" yMax="832">
      <component glyphName="Y" x="0" y="0" flags="0x400"/>
      <component glyphName="acutecomb.case" x="0" y="0" flags="0x400"/>
    </TTGlyph>
    <TTGlyph name="Ycircumflex" xMin="117" yMin="0" xMax="494" yMax="841">
      <component glyphName="Y" x="0" y="0" flags="0x400"/>
      <component glyphName="uni0302.case" x="0" y="0" flags="0x400"/>
    </TTGlyph>
    <TTGlyph name="Ydieresis" xMin="117" yMin="0" xMax="494" yMax="814">
      <component glyphName="Y" x="0" y="0" flags="0x400"/>
      <component glyphName="uni0308.case" x="0" y="0" flags="0x400"/>
    </TTGlyph>
    <TTGlyph name="Ygrave" xMin="117" yMin="0" xMax="494" yMax="832">
      <component glyphName="Y" x="0" y="0" flags="0x400"/>
      <component glyphName="gravecomb.case" x="0" y="0" flags="0x400"/>
    </TTGlyph>
    <TTGlyph name="Z" xMin="0" yMin="0" xMax="449" yMax="640">
      <contour>
        <pt x="10" y="46" on="1"/>
        <pt x="362" y="584" on="1"/>
        <pt x="129" y="584" on="1"/>
        <pt x="140" y="640" on="1"/>
        <pt x="449" y="640" on="1"/>
        <pt x="440" y="594" on="1"/>
        <pt x="88" y="56" on="1"/>
        <pt x="332" y="56" on="1"/>
        <pt x="321" y="0" on="1"/>
        <pt x="0" y="0" on="1"/>
      </contour>
    </TTGlyph>
    <TTGlyph name="Z.sups" xMin="145" yMin="320" xMax="395" yMax="640">
      <contour>
        <pt x="153" y="363" on="1"/>
        <pt x="319" y="592" on="1"/>
        <pt x="203" y="592" on="1"/>
        <pt x="213" y="640" on="1"/>
        <pt x="395" y="640" on="1"/>
        <pt x="387" y="597" on="1"/>
        <pt x="388" y="597" on="1"/>
        <pt x="221" y="368" on="1"/>
        <pt x="341" y="368" on="1"/>
        <pt x="331" y="320" on="1"/>
        <pt x="145" y="320" on="1"/>
      </contour>
    </TTGlyph>
    <TTGlyph name="Zacute" xMin="0" yMin="0" xMax="449" yMax="832">
      <component glyphName="Z" x="0" y="0" flags="0x400"/>
      <component glyphName="acutecomb.case" x="-20" y="0" flags="0x400"/>
    </TTGlyph>
    <TTGlyph name="Zcaron" xMin="0" yMin="0" xMax="461" yMax="839">
      <component glyphName="Z" x="0" y="0" flags="0x400"/>
      <component glyphName="uni030C.case" x="-20" y="0" flags="0x400"/>
    </TTGlyph>
    <TTGlyph name="Zdotaccent" xMin="0" yMin="0" xMax="449" yMax="840">
      <component glyphName="Z" x="0" y="0" flags="0x400"/>
      <component glyphName="uni0307" x="18" y="192" flags="0x404"/>
    </TTGlyph>
    <TTGlyph name="Zeta" xMin="0" yMin="0" xMax="449" yMax="640">
      <component glyphName="Z" x="0" y="0" flags="0x400"/>
    </TTGlyph>
    <TTGlyph name="_part.slash.O" xMin="-4" yMin="-12" xMax="490" yMax="653">
      <contour>
        <pt x="490" y="627" on="1"/>
        <pt x="44" y="-12" on="1"/>
        <pt x="-4" y="14" on="1"/>
        <pt x="443" y="653" on="1"/>
      </contour>
    </TTGlyph>
    <TTGlyph name="_part.slash.comp" xMin="73" yMin="154" xMax="392" yMax="383">
      <contour>
        <pt x="367" y="383" on="1"/>
        <pt x="392" y="338" on="1"/>
        <pt x="98" y="154" on="1"/>
        <pt x="73" y="199" on="1"/>
      </contour>
    </TTGlyph>
    <TTGlyph name="_part.slash.o" xMin="15" yMin="-21" xMax="435" yMax="471">
      <contour>
        <pt x="435" y="442" on="1"/>
        <pt x="58" y="-21" on="1"/>
        <pt x="15" y="9" on="1"/>
        <pt x="390" y="471" on="1"/>
      </contour>
    </TTGlyph>
    <TTGlyph name="a" xMin="18" yMin="-4" xMax="375" yMax="453">
      <contour>
        <pt x="262" y="62" on="1"/>
        <pt x="229" y="29" on="0"/>
        <pt x="163" y="-4" on="0"/>
        <pt x="122" y="-4" on="1"/>
        <pt x="73" y="-4" on="0"/>
        <pt x="18" y="49" on="0"/>
        <pt x="18" y="94" on="1"/>
        <pt x="18" y="177" on="0"/>
        <pt x="165" y="260" on="0"/>
        <pt x="300" y="262" on="1"/>
        <pt x="306" y="293" on="1"/>
        <pt x="311" y="316" on="0"/>
        <pt x="311" y="338" on="1"/>
        <pt x="311" y="370" on="0"/>
        <pt x="278" y="396" on="0"/>
        <pt x="241" y="396" on="1"/>
        <pt x="210" y="396" on="0"/>
        <pt x="147" y="381" on="0"/>
        <pt x="109" y="367" on="1"/>
        <pt x="98" y="419" on="1"/>
        <pt x="180" y="453" on="0"/>
        <pt x="249" y="453" on="1"/>
        <pt x="309" y="453" on="0"/>
        <pt x="375" y="401" on="0"/>
        <pt x="375" y="347" on="1"/>
        <pt x="375" y="329" on="0"/>
        <pt x="370" y="302" on="1"/>
        <pt x="324" y="70" on="1"/>
        <pt x="313" y="0" on="1"/>
        <pt x="256" y="0" on="1"/>
      </contour>
      <contour>
        <pt x="84" y="78" on="0"/>
        <pt x="107" y="52" on="0"/>
        <pt x="134" y="52" on="1"/>
        <pt x="172" y="52" on="0"/>
        <pt x="234" y="92" on="0"/>
        <pt x="276" y="141" on="1"/>
        <pt x="290" y="212" on="1"/>
        <pt x="186" y="209" on="0"/>
        <pt x="84" y="153" on="0"/>
        <pt x="84" y="102" on="1"/>
      </contour>
    </TTGlyph>
    <TTGlyph name="aacute" xMin="18" yMin="-4" xMax="413" yMax="704">
      <component glyphName="a" x="0" y="0" flags="0x400"/>
      <component glyphName="acutecomb" x="-14" y="0" flags="0x400"/>
    </TTGlyph>
    <TTGlyph name="abreve" xMin="18" yMin="-4" xMax="419" yMax="642">
      <component glyphName="a" x="0" y="0" flags="0x400"/>
      <component glyphName="uni0306" x="-14" y="0" flags="0x400"/>
    </TTGlyph>
    <TTGlyph name="acircumflex" xMin="18" yMin="-4" xMax="400" yMax="649">
      <component glyphName="a" x="0" y="0" flags="0x400"/>
      <component glyphName="uni0302" x="-14" y="0" flags="0x400"/>
    </TTGlyph>
    <TTGlyph name="acute" xMin="185" yMin="384" xMax="393" yMax="640">
      <contour>
        <pt x="185" y="384" on="1"/>
        <pt x="301" y="640" on="1"/>
        <pt x="393" y="640" on="1"/>
        <pt x="250" y="384" on="1"/>
      </contour>
    </TTGlyph>
    <TTGlyph name="acutecomb" xMin="253" yMin="512" xMax="427" yMax="704">
      <contour>
        <pt x="342" y="704" on="1"/>
        <pt x="427" y="704" on="1"/>
        <pt x="311" y="512" on="1"/>
        <pt x="253" y="512" on="1"/>
      </contour>
    </TTGlyph>
    <TTGlyph name="acutecomb.alt" xMin="253" yMin="513" xMax="417" yMax="649">
      <contour>
        <pt x="331" y="649" on="1"/>
        <pt x="417" y="649" on="1"/>
        <pt x="311" y="513" on="1"/>
        <pt x="253" y="513" on="1"/>
      </contour>
    </TTGlyph>
    <TTGlyph name="acutecomb.case" xMin="291" yMin="705" xMax="448" yMax="832">
      <contour>
        <pt x="363" y="832" on="1"/>
        <pt x="448" y="832" on="1"/>
        <pt x="349" y="705" on="1"/>
        <pt x="291" y="705" on="1"/>
      </contour>
    </TTGlyph>
    <TTGlyph name="adieresis" xMin="18" yMin="-4" xMax="425" yMax="646">
      <component glyphName="a" x="0" y="0" flags="0x400"/>
      <component glyphName="uni0308" x="-14" y="0" flags="0x400"/>
    </TTGlyph>
    <TTGlyph name="ae" xMin="29" yMin="-10" xMax="658" yMax="459">
      <contour>
        <pt x="354" y="-10" on="0"/>
        <pt x="322" y="59" on="1"/>
        <pt x="273" y="28" on="0"/>
        <pt x="185" y="-8" on="0"/>
        <pt x="140" y="-8" on="1"/>
        <pt x="91" y="-8" on="0"/>
        <pt x="29" y="42" on="0"/>
        <pt x="29" y="88" on="1"/>
        <pt x="29" y="102" on="0"/>
        <pt x="32" y="117" on="1"/>
        <pt x="46" y="186" on="0"/>
        <pt x="182" y="257" on="0"/>
        <pt x="323" y="261" on="1"/>
        <pt x="330" y="293" on="1"/>
        <pt x="336" y="320" on="0"/>
        <pt x="336" y="340" on="1"/>
        <pt x="336" y="372" on="0"/>
        <pt x="300" y="398" on="0"/>
        <pt x="261" y="398" on="1"/>
        <pt x="204" y="398" on="0"/>
        <pt x="124" y="370" on="1"/>
        <pt x="113" y="422" on="1"/>
        <pt x="195" y="455" on="0"/>
        <pt x="265" y="455" on="1"/>
        <pt x="363" y="455" on="0"/>
        <pt x="386" y="388" on="1"/>
        <pt x="439" y="459" on="0"/>
        <pt x="525" y="459" on="1"/>
        <pt x="590" y="459" on="0"/>
        <pt x="658" y="382" on="0"/>
        <pt x="658" y="311" on="1"/>
        <pt x="658" y="261" on="0"/>
        <pt x="642" y="203" on="1"/>
        <pt x="375" y="206" on="1"/>
        <pt x="368" y="168" on="0"/>
        <pt x="368" y="136" on="1"/>
        <pt x="368" y="86" on="0"/>
        <pt x="413" y="45" on="0"/>
        <pt x="464" y="45" on="1"/>
        <pt x="515" y="45" on="0"/>
        <pt x="583" y="66" on="1"/>
        <pt x="590" y="15" on="1"/>
        <pt x="522" y="-10" on="0"/>
        <pt x="456" y="-10" on="1"/>
      </contour>
      <contour>
        <pt x="95" y="98" on="0"/>
        <pt x="95" y="92" on="1"/>
        <pt x="95" y="71" on="0"/>
        <pt x="122" y="48" on="0"/>
        <pt x="149" y="48" on="1"/>
        <pt x="212" y="48" on="0"/>
        <pt x="308" y="110" on="1"/>
        <pt x="306" y="132" on="0"/>
        <pt x="306" y="143" on="1"/>
        <pt x="306" y="170" on="0"/>
        <pt x="311" y="207" on="1"/>
        <pt x="205" y="203" on="0"/>
        <pt x="106" y="155" on="0"/>
        <pt x="97" y="110" on="1"/>
      </contour>
      <contour>
        <pt x="589" y="261" on="1"/>
        <pt x="595" y="293" on="0"/>
        <pt x="595" y="317" on="1"/>
        <pt x="595" y="361" on="0"/>
        <pt x="557" y="403" on="0"/>
        <pt x="520" y="403" on="1"/>
        <pt x="472" y="403" on="0"/>
        <pt x="408" y="337" on="0"/>
        <pt x="388" y="261" on="1"/>
      </contour>
    </TTGlyph>
    <TTGlyph name="aeacute" xMin="29" yMin="-10" xMax="658" yMax="704">
      <component glyphName="ae" x="0" y="0" flags="0x400"/>
      <component glyphName="acutecomb" x="128" y="0" flags="0x400"/>
    </TTGlyph>
    <TTGlyph name="agrave" xMin="18" yMin="-4" xMax="375" yMax="704">
      <component glyphName="a" x="0" y="0" flags="0x400"/>
      <component glyphName="gravecomb" x="-14" y="0" flags="0x400"/>
    </TTGlyph>
    <TTGlyph name="alpha" xMin="35" yMin="-8" xMax="419" yMax="456">
      <contour>
        <pt x="314" y="-6" on="0"/>
        <pt x="285" y="14" on="0"/>
        <pt x="281" y="32" on="1"/>
        <pt x="233" y="-8" on="0"/>
        <pt x="173" y="-8" on="1"/>
        <pt x="112" y="-8" on="0"/>
        <pt x="77" y="27" on="1"/>
        <pt x="35" y="69" on="0"/>
        <pt x="35" y="158" on="1"/>
        <pt x="35" y="226" on="0"/>
        <pt x="80" y="358" on="0"/>
        <pt x="123" y="401" on="1"/>
        <pt x="178" y="456" on="0"/>
        <pt x="255" y="456" on="1"/>
        <pt x="322" y="456" on="0"/>
        <pt x="353" y="414" on="1"/>
        <pt x="364" y="448" on="1"/>
        <pt x="419" y="448" on="1"/>
        <pt x="404" y="384" on="1"/>
        <pt x="341" y="74" on="1"/>
        <pt x="340" y="71" on="0"/>
        <pt x="340" y="65" on="1"/>
        <pt x="340" y="49" on="0"/>
        <pt x="361" y="49" on="1"/>
        <pt x="372" y="49" on="0"/>
        <pt x="386" y="51" on="1"/>
        <pt x="384" y="-1" on="1"/>
        <pt x="364" y="-6" on="0"/>
        <pt x="338" y="-6" on="1"/>
      </contour>
      <contour>
        <pt x="102" y="92" on="0"/>
        <pt x="128" y="66" on="1"/>
        <pt x="147" y="47" on="0"/>
        <pt x="183" y="47" on="1"/>
        <pt x="241" y="47" on="0"/>
        <pt x="283" y="89" on="1"/>
        <pt x="338" y="368" on="1"/>
        <pt x="313" y="402" on="0"/>
        <pt x="261" y="402" on="1"/>
        <pt x="210" y="402" on="0"/>
        <pt x="170" y="364" on="1"/>
        <pt x="136" y="330" on="0"/>
        <pt x="102" y="217" on="0"/>
        <pt x="102" y="158" on="1"/>
      </contour>
    </TTGlyph>
    <TTGlyph name="alphatonos" xMin="35" yMin="-8" xMax="419" yMax="704">
      <component glyphName="alpha" x="0" y="0" flags="0x400"/>
      <component glyphName="tonos" x="0" y="0" flags="0x400"/>
    </TTGlyph>
    <TTGlyph name="amacron" xMin="18" yMin="-4" xMax="409" yMax="621">
      <component glyphName="a" x="0" y="0" flags="0x400"/>
      <component glyphName="uni0304" x="-14" y="0" flags="0x400"/>
    </TTGlyph>
    <TTGlyph name="ampersand" xMin="18" yMin="-10" xMax="444" yMax="542">
      <contour>
        <pt x="310" y="486" on="0"/>
        <pt x="268" y="486" on="1"/>
        <pt x="207" y="486" on="0"/>
        <pt x="147" y="419" on="0"/>
        <pt x="147" y="375" on="1"/>
        <pt x="147" y="347" on="0"/>
        <pt x="187" y="316" on="0"/>
        <pt x="236" y="316" on="1"/>
        <pt x="444" y="316" on="1"/>
        <pt x="432" y="260" on="1"/>
        <pt x="374" y="260" on="1"/>
        <pt x="326" y="17" on="1"/>
        <pt x="287" y="4" on="0"/>
        <pt x="200" y="-10" on="0"/>
        <pt x="166" y="-10" on="1"/>
        <pt x="89" y="-10" on="0"/>
        <pt x="18" y="56" on="0"/>
        <pt x="18" y="110" on="1"/>
        <pt x="18" y="132" on="0"/>
        <pt x="22" y="149" on="1"/>
        <pt x="30" y="190" on="0"/>
        <pt x="88" y="266" on="0"/>
        <pt x="144" y="289" on="1"/>
        <pt x="115" y="303" on="0"/>
        <pt x="86" y="350" on="0"/>
        <pt x="86" y="380" on="1"/>
        <pt x="86" y="395" on="0"/>
        <pt x="89" y="408" on="1"/>
        <pt x="101" y="468" on="0"/>
        <pt x="197" y="542" on="0"/>
        <pt x="274" y="542" on="1"/>
        <pt x="325" y="542" on="0"/>
        <pt x="377" y="529" on="1"/>
        <pt x="360" y="477" on="1"/>
      </contour>
      <contour>
        <pt x="81" y="124" on="0"/>
        <pt x="81" y="110" on="1"/>
        <pt x="81" y="46" on="0"/>
        <pt x="163" y="46" on="1"/>
        <pt x="218" y="46" on="0"/>
        <pt x="270" y="58" on="1"/>
        <pt x="310" y="260" on="1"/>
        <pt x="242" y="260" on="1"/>
        <pt x="170" y="260" on="0"/>
        <pt x="94" y="190" on="0"/>
        <pt x="84" y="139" on="1"/>
      </contour>
    </TTGlyph>
    <TTGlyph name="angle" xMin="35" yMin="69" xMax="365" yMax="517">
      <contour>
        <pt x="35" y="69" on="1"/>
        <pt x="46" y="125" on="1"/>
        <pt x="318" y="517" on="1"/>
        <pt x="365" y="493" on="1"/>
        <pt x="108" y="123" on="1"/>
        <pt x="362" y="123" on="1"/>
        <pt x="351" y="69" on="1"/>
      </contour>
    </TTGlyph>
    <TTGlyph name="anoteleia" xMin="135" yMin="340" xMax="255" yMax="458">
      <component glyphName="period" x="102" y="350" flags="0x404"/>
    </TTGlyph>
    <TTGlyph name="aogonek" xMin="18" yMin="-197" xMax="375" yMax="453">
      <component glyphName="a" x="0" y="0" flags="0x400"/>
      <component glyphName="uni0328" x="-24" y="0" flags="0x400"/>
    </TTGlyph>
    <TTGlyph name="approxequal" xMin="16" yMin="149" xMax="458" yMax="427">
      <contour>
        <pt x="271" y="149" on="0"/>
        <pt x="229" y="168" on="0"/>
        <pt x="201" y="188" on="1"/>
        <pt x="182" y="202" on="0"/>
        <pt x="154" y="216" on="0"/>
        <pt x="137" y="216" on="1"/>
        <pt x="89" y="216" on="0"/>
        <pt x="66" y="149" on="1"/>
        <pt x="16" y="159" on="1"/>
        <pt x="51" y="270" on="0"/>
        <pt x="139" y="270" on="1"/>
        <pt x="171" y="270" on="0"/>
        <pt x="213" y="251" on="0"/>
        <pt x="241" y="231" on="1"/>
        <pt x="260" y="217" on="0"/>
        <pt x="288" y="203" on="0"/>
        <pt x="305" y="203" on="1"/>
        <pt x="352" y="203" on="0"/>
        <pt x="376" y="270" on="1"/>
        <pt x="427" y="260" on="1"/>
        <pt x="409" y="206" on="0"/>
        <pt x="349" y="149" on="0"/>
        <pt x="303" y="149" on="1"/>
      </contour>
      <contour>
        <pt x="65" y="370" on="0"/>
        <pt x="125" y="427" on="0"/>
        <pt x="171" y="427" on="1"/>
        <pt x="202" y="427" on="0"/>
        <pt x="248" y="406" on="0"/>
        <pt x="272" y="388" on="1"/>
        <pt x="292" y="373" on="0"/>
        <pt x="320" y="360" on="0"/>
        <pt x="337" y="360" on="1"/>
        <pt x="362" y="360" on="0"/>
        <pt x="396" y="393" on="0"/>
        <pt x="408" y="427" on="1"/>
        <pt x="458" y="417" on="1"/>
        <pt x="423" y="306" on="0"/>
        <pt x="334" y="306" on="1"/>
        <pt x="303" y="306" on="0"/>
        <pt x="259" y="326" on="0"/>
        <pt x="233" y="345" on="1"/>
        <pt x="213" y="360" on="0"/>
        <pt x="186" y="373" on="0"/>
        <pt x="169" y="373" on="1"/>
        <pt x="144" y="373" on="0"/>
        <pt x="110" y="339" on="0"/>
        <pt x="97" y="306" on="1"/>
        <pt x="47" y="316" on="1"/>
      </contour>
    </TTGlyph>
    <TTGlyph name="aring" xMin="18" yMin="-4" xMax="386" yMax="693">
      <component glyphName="a" x="0" y="0" flags="0x400"/>
      <component glyphName="uni030A" x="-14" y="0" flags="0x400"/>
    </TTGlyph>
    <TTGlyph name="aringacute" xMin="18" yMin="-4" xMax="448" yMax="873">
      <component glyphName="a" x="0" y="0" flags="0x400"/>
      <component glyphName="uni030A" x="-14" y="0" flags="0x400"/>
      <component glyphName="acutecomb.alt" x="31" y="224" flags="0x404"/>
    </TTGlyph>
    <TTGlyph name="arrowboth" xMin="-8" yMin="118" xMax="456" yMax="458">
      <contour>
        <pt x="204" y="155" on="1"/>
        <pt x="171" y="118" on="1"/>
        <pt x="-8" y="269" on="1"/>
        <pt x="-8" y="307" on="1"/>
        <pt x="171" y="458" on="1"/>
        <pt x="204" y="421" on="1"/>
        <pt x="86" y="316" on="1"/>
        <pt x="363" y="316" on="1"/>
        <pt x="245" y="421" on="1"/>
        <pt x="277" y="458" on="1"/>
        <pt x="456" y="307" on="1"/>
        <pt x="456" y="269" on="1"/>
        <pt x="277" y="118" on="1"/>
        <pt x="245" y="155" on="1"/>
        <pt x="363" y="260" on="1"/>
        <pt x="86" y="260" on="1"/>
      </contour>
    </TTGlyph>
    <TTGlyph name="arrowdown" xMin="54" yMin="54" xMax="394" yMax="512">
      <contour>
        <pt x="252" y="147" on="1"/>
        <pt x="357" y="266" on="1"/>
        <pt x="394" y="233" on="1"/>
        <pt x="243" y="54" on="1"/>
        <pt x="205" y="54" on="1"/>
        <pt x="54" y="233" on="1"/>
        <pt x="91" y="266" on="1"/>
        <pt x="196" y="147" on="1"/>
        <pt x="196" y="512" on="1"/>
        <pt x="252" y="512" on="1"/>
      </contour>
    </TTGlyph>
    <TTGlyph name="arrowleft" xMin="-10" yMin="118" xMax="448" yMax="458">
      <contour>
        <pt x="83" y="260" on="1"/>
        <pt x="202" y="155" on="1"/>
        <pt x="169" y="118" on="1"/>
        <pt x="-10" y="269" on="1"/>
        <pt x="-10" y="307" on="1"/>
        <pt x="169" y="458" on="1"/>
        <pt x="202" y="421" on="1"/>
        <pt x="83" y="316" on="1"/>
        <pt x="448" y="316" on="1"/>
        <pt x="448" y="260" on="1"/>
      </contour>
    </TTGlyph>
    <TTGlyph name="arrowright" xMin="0" yMin="118" xMax="458" yMax="458">
      <contour>
        <pt x="365" y="316" on="1"/>
        <pt x="246" y="421" on="1"/>
        <pt x="279" y="458" on="1"/>
        <pt x="458" y="307" on="1"/>
        <pt x="458" y="269" on="1"/>
        <pt x="279" y="118" on="1"/>
        <pt x="246" y="155" on="1"/>
        <pt x="365" y="260" on="1"/>
        <pt x="0" y="260" on="1"/>
        <pt x="0" y="316" on="1"/>
      </contour>
    </TTGlyph>
    <TTGlyph name="arrowup" xMin="54" yMin="64" xMax="394" yMax="522">
      <contour>
        <pt x="196" y="429" on="1"/>
        <pt x="91" y="310" on="1"/>
        <pt x="54" y="343" on="1"/>
        <pt x="205" y="522" on="1"/>
        <pt x="243" y="522" on="1"/>
        <pt x="394" y="343" on="1"/>
        <pt x="357" y="310" on="1"/>
        <pt x="252" y="429" on="1"/>
        <pt x="252" y="64" on="1"/>
        <pt x="196" y="64" on="1"/>
      </contour>
    </TTGlyph>
    <TTGlyph name="arrowupdn" xMin="60" yMin="58" xMax="388" yMax="518">
      <contour>
        <pt x="98" y="311" on="1"/>
        <pt x="60" y="343" on="1"/>
        <pt x="204" y="518" on="1"/>
        <pt x="244" y="518" on="1"/>
        <pt x="388" y="343" on="1"/>
        <pt x="350" y="311" on="1"/>
        <pt x="252" y="425" on="1"/>
        <pt x="252" y="151" on="1"/>
        <pt x="350" y="265" on="1"/>
        <pt x="388" y="233" on="1"/>
        <pt x="244" y="58" on="1"/>
        <pt x="204" y="58" on="1"/>
        <pt x="60" y="233" on="1"/>
        <pt x="98" y="265" on="1"/>
        <pt x="196" y="151" on="1"/>
        <pt x="196" y="425" on="1"/>
      </contour>
    </TTGlyph>
    <TTGlyph name="arrowupdnbse" xMin="60" yMin="0" xMax="388" yMax="582">
      <contour>
        <pt x="68" y="56" on="1"/>
        <pt x="380" y="56" on="1"/>
        <pt x="380" y="0" on="1"/>
        <pt x="68" y="0" on="1"/>
      </contour>
      <contour>
        <pt x="98" y="329" on="1"/>
        <pt x="196" y="215" on="1"/>
        <pt x="196" y="489" on="1"/>
        <pt x="98" y="375" on="1"/>
        <pt x="60" y="407" on="1"/>
        <pt x="204" y="582" on="1"/>
        <pt x="244" y="582" on="1"/>
        <pt x="388" y="407" on="1"/>
        <pt x="350" y="375" on="1"/>
        <pt x="252" y="489" on="1"/>
        <pt x="252" y="215" on="1"/>
        <pt x="350" y="329" on="1"/>
        <pt x="388" y="297" on="1"/>
        <pt x="244" y="122" on="1"/>
        <pt x="204" y="122" on="1"/>
        <pt x="60" y="297" on="1"/>
      </contour>
    </TTGlyph>
    <TTGlyph name="asciicircum" xMin="43" yMin="192" xMax="391" yMax="566">
      <contour>
        <pt x="331" y="566" on="1"/>
        <pt x="391" y="192" on="1"/>
        <pt x="326" y="192" on="1"/>
        <pt x="280" y="503" on="1"/>
        <pt x="110" y="192" on="1"/>
        <pt x="43" y="192" on="1"/>
        <pt x="253" y="566" on="1"/>
      </contour>
    </TTGlyph>
    <TTGlyph name="asciitilde" xMin="-7" yMin="192" xMax="481" yMax="384">
      <contour>
        <pt x="292" y="192" on="0"/>
        <pt x="249" y="215" on="0"/>
        <pt x="224" y="247" on="0"/>
        <pt x="209" y="273" on="1"/>
        <pt x="194" y="301" on="0"/>
        <pt x="167" y="328" on="0"/>
        <pt x="145" y="328" on="1"/>
        <pt x="108" y="328" on="0"/>
        <pt x="66" y="270" on="0"/>
        <pt x="47" y="203" on="1"/>
        <pt x="-7" y="212" on="1"/>
        <pt x="16" y="301" on="0"/>
        <pt x="87" y="384" on="0"/>
        <pt x="150" y="384" on="1"/>
        <pt x="195" y="384" on="0"/>
        <pt x="242" y="342" on="0"/>
        <pt x="264" y="304" on="1"/>
        <pt x="280" y="275" on="0"/>
        <pt x="307" y="248" on="0"/>
        <pt x="329" y="248" on="1"/>
        <pt x="366" y="248" on="0"/>
        <pt x="408" y="306" on="0"/>
        <pt x="426" y="373" on="1"/>
        <pt x="481" y="365" on="1"/>
        <pt x="458" y="276" on="0"/>
        <pt x="387" y="192" on="0"/>
        <pt x="325" y="192" on="1"/>
      </contour>
    </TTGlyph>
    <TTGlyph name="asterisk" xMin="37" yMin="74" xMax="437" yMax="502">
      <contour>
        <pt x="277" y="280" on="1"/>
        <pt x="393" y="142" on="1"/>
        <pt x="344" y="104" on="1"/>
        <pt x="252" y="225" on="1"/>
        <pt x="225" y="74" on="1"/>
        <pt x="165" y="87" on="1"/>
        <pt x="199" y="236" on="1"/>
        <pt x="66" y="159" on="1"/>
        <pt x="37" y="214" on="1"/>
        <pt x="196" y="296" on="1"/>
        <pt x="80" y="434" on="1"/>
        <pt x="129" y="472" on="1"/>
        <pt x="222" y="351" on="1"/>
        <pt x="248" y="502" on="1"/>
        <pt x="308" y="489" on="1"/>
        <pt x="274" y="340" on="1"/>
        <pt x="407" y="417" on="1"/>
        <pt x="437" y="362" on="1"/>
      </contour>
    </TTGlyph>
    <TTGlyph name="at" xMin="33" yMin="-128" xMax="422" yMax="586">
      <contour>
        <pt x="325" y="66" on="0"/>
        <pt x="277" y="66" on="1"/>
        <pt x="224" y="66" on="0"/>
        <pt x="167" y="124" on="0"/>
        <pt x="167" y="177" on="1"/>
        <pt x="167" y="197" on="0"/>
        <pt x="172" y="225" on="1"/>
        <pt x="186" y="294" on="0"/>
        <pt x="271" y="374" on="0"/>
        <pt x="353" y="386" on="1"/>
        <pt x="362" y="430" on="0"/>
        <pt x="362" y="459" on="1"/>
        <pt x="362" y="495" on="0"/>
        <pt x="331" y="530" on="0"/>
        <pt x="297" y="530" on="1"/>
        <pt x="253" y="530" on="0"/>
        <pt x="187" y="467" on="0"/>
        <pt x="136" y="331" on="0"/>
        <pt x="114" y="218" on="1"/>
        <pt x="94" y="118" on="0"/>
        <pt x="94" y="52" on="1"/>
        <pt x="94" y="-15" on="0"/>
        <pt x="137" y="-73" on="0"/>
        <pt x="181" y="-73" on="1"/>
        <pt x="224" y="-73" on="0"/>
        <pt x="267" y="-58" on="1"/>
        <pt x="275" y="-110" on="1"/>
        <pt x="251" y="-119" on="0"/>
        <pt x="198" y="-128" on="0"/>
        <pt x="178" y="-128" on="1"/>
        <pt x="104" y="-128" on="0"/>
        <pt x="33" y="-41" on="0"/>
        <pt x="33" y="50" on="1"/>
        <pt x="33" y="123" on="0"/>
        <pt x="54" y="228" on="1"/>
        <pt x="91" y="413" on="0"/>
        <pt x="206" y="586" on="0"/>
        <pt x="301" y="586" on="1"/>
        <pt x="362" y="586" on="0"/>
        <pt x="422" y="515" on="0"/>
        <pt x="422" y="451" on="1"/>
        <pt x="422" y="422" on="0"/>
        <pt x="414" y="380" on="1"/>
        <pt x="355" y="75" on="1"/>
      </contour>
      <contour>
        <pt x="230" y="195" on="0"/>
        <pt x="230" y="175" on="1"/>
        <pt x="230" y="150" on="0"/>
        <pt x="254" y="123" on="0"/>
        <pt x="281" y="123" on="1"/>
        <pt x="292" y="123" on="0"/>
        <pt x="299" y="124" on="1"/>
        <pt x="342" y="329" on="1"/>
        <pt x="292" y="320" on="0"/>
        <pt x="243" y="266" on="0"/>
        <pt x="234" y="215" on="1"/>
      </contour>
    </TTGlyph>
    <TTGlyph name="atilde" xMin="18" yMin="-4" xMax="443" yMax="645">
      <component glyphName="a" x="0" y="0" flags="0x400"/>
      <component glyphName="tildecomb" x="-14" y="0" flags="0x400"/>
    </TTGlyph>
    <TTGlyph name="b" xMin="15" yMin="-8" xMax="407" yMax="640">
      <contour>
        <pt x="30" y="64" on="1"/>
        <pt x="145" y="640" on="1"/>
        <pt x="208" y="640" on="1"/>
        <pt x="164" y="418" on="1"/>
        <pt x="208" y="456" on="0"/>
        <pt x="269" y="456" on="1"/>
        <pt x="330" y="456" on="0"/>
        <pt x="365" y="421" on="1"/>
        <pt x="407" y="379" on="0"/>
        <pt x="407" y="290" on="1"/>
        <pt x="407" y="222" on="0"/>
        <pt x="362" y="90" on="0"/>
        <pt x="319" y="47" on="1"/>
        <pt x="264" y="-8" on="0"/>
        <pt x="187" y="-8" on="1"/>
        <pt x="116" y="-8" on="0"/>
        <pt x="84" y="41" on="1"/>
        <pt x="70" y="0" on="1"/>
        <pt x="15" y="0" on="1"/>
      </contour>
      <contour>
        <pt x="122" y="46" on="0"/>
        <pt x="181" y="46" on="1"/>
        <pt x="232" y="46" on="0"/>
        <pt x="272" y="84" on="1"/>
        <pt x="306" y="118" on="0"/>
        <pt x="340" y="231" on="0"/>
        <pt x="340" y="290" on="1"/>
        <pt x="340" y="356" on="0"/>
        <pt x="314" y="382" on="1"/>
        <pt x="295" y="401" on="0"/>
        <pt x="259" y="401" on="1"/>
        <pt x="197" y="401" on="0"/>
        <pt x="150" y="350" on="1"/>
        <pt x="98" y="90" on="1"/>
      </contour>
    </TTGlyph>
    <TTGlyph name="backslash" xMin="79" yMin="-68" xMax="279" yMax="709">
      <contour>
        <pt x="218" y="-68" on="1"/>
        <pt x="79" y="699" on="1"/>
        <pt x="140" y="709" on="1"/>
        <pt x="279" y="-58" on="1"/>
      </contour>
    </TTGlyph>
    <TTGlyph name="bar" xMin="135" yMin="-64" xMax="351" yMax="704">
      <contour>
        <pt x="135" y="-64" on="1"/>
        <pt x="289" y="704" on="1"/>
        <pt x="351" y="704" on="1"/>
        <pt x="197" y="-64" on="1"/>
      </contour>
    </TTGlyph>
    <TTGlyph name="beta" xMin="-21" yMin="-192" xMax="433" yMax="648">
      <contour>
        <pt x="129" y="560" on="0"/>
        <pt x="233" y="648" on="0"/>
        <pt x="303" y="648" on="1"/>
        <pt x="369" y="648" on="0"/>
        <pt x="433" y="579" on="0"/>
        <pt x="433" y="526" on="1"/>
        <pt x="433" y="504" on="0"/>
        <pt x="429" y="487" on="1"/>
        <pt x="420" y="441" on="0"/>
        <pt x="360" y="372" on="0"/>
        <pt x="313" y="355" on="1"/>
        <pt x="402" y="328" on="0"/>
        <pt x="402" y="230" on="1"/>
        <pt x="402" y="202" on="0"/>
        <pt x="396" y="173" on="1"/>
        <pt x="380" y="92" on="0"/>
        <pt x="277" y="-6" on="0"/>
        <pt x="194" y="-6" on="1"/>
        <pt x="129" y="-6" on="0"/>
        <pt x="87" y="33" on="1"/>
        <pt x="42" y="-192" on="1"/>
        <pt x="-21" y="-192" on="1"/>
        <pt x="113" y="480" on="1"/>
      </contour>
      <contour>
        <pt x="134" y="49" on="0"/>
        <pt x="196" y="49" on="1"/>
        <pt x="252" y="49" on="0"/>
        <pt x="319" y="115" on="0"/>
        <pt x="332" y="183" on="1"/>
        <pt x="338" y="212" on="0"/>
        <pt x="338" y="234" on="1"/>
        <pt x="338" y="280" on="0"/>
        <pt x="286" y="325" on="0"/>
        <pt x="227" y="325" on="1"/>
        <pt x="196" y="325" on="1"/>
        <pt x="208" y="379" on="1"/>
        <pt x="234" y="379" on="1"/>
        <pt x="290" y="379" on="0"/>
        <pt x="354" y="438" on="0"/>
        <pt x="364" y="489" on="1"/>
        <pt x="368" y="506" on="0"/>
        <pt x="368" y="524" on="1"/>
        <pt x="368" y="592" on="0"/>
        <pt x="295" y="592" on="1"/>
        <pt x="249" y="592" on="0"/>
        <pt x="186" y="531" on="0"/>
        <pt x="175" y="473" on="1"/>
        <pt x="98" y="88" on="1"/>
      </contour>
    </TTGlyph>
    <TTGlyph name="block" xMin="-5" yMin="-197" xMax="453" yMax="837">
      <contour>
        <pt x="-5" y="-197" on="1"/>
        <pt x="-5" y="837" on="1"/>
        <pt x="453" y="837" on="1"/>
        <pt x="453" y="-197" on="1"/>
      </contour>
    </TTGlyph>
    <TTGlyph name="braceleft" xMin="101" yMin="-64" xMax="421" yMax="704">
      <contour>
        <pt x="198" y="-55" on="0"/>
        <pt x="122" y="-6" on="0"/>
        <pt x="122" y="45" on="1"/>
        <pt x="122" y="60" on="0"/>
        <pt x="125" y="78" on="1"/>
        <pt x="127" y="91" on="0"/>
        <pt x="140" y="129" on="1"/>
        <pt x="156" y="170" on="0"/>
        <pt x="161" y="199" on="1"/>
        <pt x="164" y="213" on="0"/>
        <pt x="164" y="223" on="1"/>
        <pt x="164" y="248" on="0"/>
        <pt x="133" y="278" on="0"/>
        <pt x="101" y="284" on="1"/>
        <pt x="111" y="356" on="1"/>
        <pt x="196" y="371" on="0"/>
        <pt x="212" y="452" on="1"/>
        <pt x="216" y="474" on="0"/>
        <pt x="218" y="513" on="1"/>
        <pt x="218" y="518" on="0"/>
        <pt x="220" y="555" on="0"/>
        <pt x="224" y="573" on="1"/>
        <pt x="237" y="639" on="0"/>
        <pt x="331" y="693" on="0"/>
        <pt x="417" y="704" on="1"/>
        <pt x="421" y="655" on="1"/>
        <pt x="350" y="643" on="0"/>
        <pt x="289" y="605" on="0"/>
        <pt x="280" y="564" on="1"/>
        <pt x="278" y="553" on="0"/>
        <pt x="276" y="524" on="0"/>
        <pt x="276" y="518" on="1"/>
        <pt x="276" y="477" on="0"/>
        <pt x="269" y="443" on="1"/>
        <pt x="258" y="387" on="0"/>
        <pt x="203" y="334" on="0"/>
        <pt x="152" y="318" on="1"/>
        <pt x="187" y="306" on="0"/>
        <pt x="222" y="265" on="0"/>
        <pt x="222" y="229" on="1"/>
        <pt x="222" y="214" on="0"/>
        <pt x="217" y="187" on="1"/>
        <pt x="210" y="153" on="0"/>
        <pt x="197" y="120" on="1"/>
        <pt x="184" y="77" on="0"/>
        <pt x="181" y="66" on="1"/>
        <pt x="179" y="52" on="0"/>
        <pt x="179" y="48" on="1"/>
        <pt x="179" y="21" on="0"/>
        <pt x="225" y="-5" on="0"/>
        <pt x="283" y="-16" on="1"/>
        <pt x="268" y="-64" on="1"/>
      </contour>
    </TTGlyph>
    <TTGlyph name="braceright" xMin="65" yMin="-64" xMax="385" yMax="704">
      <contour>
        <pt x="136" y="-3" on="0"/>
        <pt x="197" y="35" on="0"/>
        <pt x="206" y="76" on="1"/>
        <pt x="208" y="87" on="0"/>
        <pt x="210" y="116" on="0"/>
        <pt x="210" y="122" on="1"/>
        <pt x="210" y="163" on="0"/>
        <pt x="217" y="197" on="1"/>
        <pt x="228" y="253" on="0"/>
        <pt x="283" y="306" on="0"/>
        <pt x="334" y="322" on="1"/>
        <pt x="299" y="334" on="0"/>
        <pt x="264" y="375" on="0"/>
        <pt x="264" y="411" on="1"/>
        <pt x="264" y="426" on="0"/>
        <pt x="269" y="453" on="1"/>
        <pt x="276" y="487" on="0"/>
        <pt x="289" y="520" on="1"/>
        <pt x="303" y="563" on="0"/>
        <pt x="305" y="574" on="1"/>
        <pt x="307" y="588" on="0"/>
        <pt x="307" y="592" on="1"/>
        <pt x="307" y="619" on="0"/>
        <pt x="261" y="645" on="0"/>
        <pt x="203" y="656" on="1"/>
        <pt x="218" y="704" on="1"/>
        <pt x="288" y="695" on="0"/>
        <pt x="364" y="646" on="0"/>
        <pt x="364" y="595" on="1"/>
        <pt x="364" y="580" on="0"/>
        <pt x="361" y="562" on="1"/>
        <pt x="359" y="549" on="0"/>
        <pt x="346" y="511" on="1"/>
        <pt x="330" y="470" on="0"/>
        <pt x="325" y="441" on="1"/>
        <pt x="322" y="428" on="0"/>
        <pt x="322" y="417" on="1"/>
        <pt x="322" y="392" on="0"/>
        <pt x="353" y="362" on="0"/>
        <pt x="385" y="356" on="1"/>
        <pt x="375" y="284" on="1"/>
        <pt x="290" y="269" on="0"/>
        <pt x="274" y="188" on="1"/>
        <pt x="270" y="166" on="0"/>
        <pt x="268" y="127" on="1"/>
        <pt x="268" y="122" on="0"/>
        <pt x="266" y="85" on="0"/>
        <pt x="262" y="67" on="1"/>
        <pt x="249" y="1" on="0"/>
        <pt x="155" y="-53" on="0"/>
        <pt x="69" y="-64" on="1"/>
        <pt x="65" y="-15" on="1"/>
      </contour>
    </TTGlyph>
    <TTGlyph name="bracketleft" xMin="91" yMin="-64" xMax="431" yMax="704">
      <contour>
        <pt x="296" y="648" on="1"/>
        <pt x="164" y="-8" on="1"/>
        <pt x="288" y="-8" on="1"/>
        <pt x="277" y="-64" on="1"/>
        <pt x="91" y="-64" on="1"/>
        <pt x="245" y="704" on="1"/>
        <pt x="431" y="704" on="1"/>
        <pt x="420" y="648" on="1"/>
      </contour>
    </TTGlyph>
    <TTGlyph name="bracketright" xMin="55" yMin="-64" xMax="395" yMax="704">
      <contour>
        <pt x="55" y="-64" on="1"/>
        <pt x="66" y="-8" on="1"/>
        <pt x="190" y="-8" on="1"/>
        <pt x="322" y="648" on="1"/>
        <pt x="198" y="648" on="1"/>
        <pt x="209" y="704" on="1"/>
        <pt x="395" y="704" on="1"/>
        <pt x="241" y="-64" on="1"/>
      </contour>
    </TTGlyph>
    <TTGlyph name="breve" xMin="178" yMin="504" xMax="433" yMax="642">
      <component glyphName="uni0306" x="0" y="0" flags="0x400"/>
    </TTGlyph>
    <TTGlyph name="brokenbar" xMin="135" yMin="-64" xMax="351" yMax="704">
      <contour>
        <pt x="225" y="384" on="1"/>
        <pt x="289" y="704" on="1"/>
        <pt x="351" y="704" on="1"/>
        <pt x="287" y="384" on="1"/>
      </contour>
      <contour>
        <pt x="199" y="256" on="1"/>
        <pt x="261" y="256" on="1"/>
        <pt x="197" y="-64" on="1"/>
        <pt x="135" y="-64" on="1"/>
      </contour>
    </TTGlyph>
    <TTGlyph name="bullet" xMin="126" yMin="125" xMax="322" yMax="323">
      <contour>
        <pt x="277" y="323" on="0"/>
        <pt x="322" y="278" on="0"/>
        <pt x="322" y="242" on="1"/>
        <pt x="322" y="194" on="0"/>
        <pt x="254" y="125" on="0"/>
        <pt x="208" y="125" on="1"/>
        <pt x="172" y="125" on="0"/>
        <pt x="126" y="171" on="0"/>
        <pt x="126" y="206" on="1"/>
        <pt x="126" y="254" on="0"/>
        <pt x="194" y="323" on="0"/>
        <pt x="240" y="323" on="1"/>
      </contour>
    </TTGlyph>
    <TTGlyph name="c" xMin="44" yMin="-7" xMax="373" yMax="455">
      <contour>
        <pt x="110" y="-7" on="0"/>
        <pt x="44" y="73" on="0"/>
        <pt x="44" y="143" on="1"/>
        <pt x="44" y="184" on="0"/>
        <pt x="53" y="229" on="1"/>
        <pt x="98" y="455" on="0"/>
        <pt x="267" y="455" on="1"/>
        <pt x="327" y="455" on="0"/>
        <pt x="373" y="435" on="1"/>
        <pt x="356" y="386" on="1"/>
        <pt x="315" y="400" on="0"/>
        <pt x="268" y="400" on="1"/>
        <pt x="205" y="400" on="0"/>
        <pt x="137" y="316" on="0"/>
        <pt x="118" y="219" on="1"/>
        <pt x="108" y="170" on="0"/>
        <pt x="108" y="134" on="1"/>
        <pt x="108" y="88" on="0"/>
        <pt x="147" y="48" on="0"/>
        <pt x="190" y="48" on="1"/>
        <pt x="233" y="48" on="0"/>
        <pt x="287" y="65" on="1"/>
        <pt x="292" y="11" on="1"/>
        <pt x="239" y="-7" on="0"/>
        <pt x="183" y="-7" on="1"/>
      </contour>
    </TTGlyph>
    <TTGlyph name="cacute" xMin="44" yMin="-7" xMax="421" yMax="704">
      <component glyphName="c" x="0" y="0" flags="0x400"/>
      <component glyphName="acutecomb" x="-6" y="0" flags="0x400"/>
    </TTGlyph>
    <TTGlyph name="caron" xMin="175" yMin="509" xMax="443" yMax="647">
      <component glyphName="uni030C" x="0" y="0" flags="0x400"/>
    </TTGlyph>
    <TTGlyph name="carriagereturn" xMin="4" yMin="60" xMax="424" yMax="444">
      <contour>
        <pt x="211" y="98" on="1"/>
        <pt x="179" y="60" on="1"/>
        <pt x="4" y="204" on="1"/>
        <pt x="4" y="244" on="1"/>
        <pt x="179" y="388" on="1"/>
        <pt x="211" y="350" on="1"/>
        <pt x="97" y="252" on="1"/>
        <pt x="364" y="252" on="1"/>
        <pt x="364" y="444" on="1"/>
        <pt x="424" y="444" on="1"/>
        <pt x="424" y="196" on="1"/>
        <pt x="97" y="196" on="1"/>
      </contour>
    </TTGlyph>
    <TTGlyph name="ccaron" xMin="44" yMin="-7" xMax="437" yMax="647">
      <component glyphName="c" x="0" y="0" flags="0x400"/>
      <component glyphName="uni030C" x="-6" y="0" flags="0x400"/>
    </TTGlyph>
    <TTGlyph name="ccedilla" xMin="-1" yMin="-192" xMax="373" yMax="455">
      <component glyphName="c" x="0" y="0" flags="0x400"/>
      <component glyphName="uni0327" x="-48" y="0" flags="0x400"/>
    </TTGlyph>
    <TTGlyph name="ccircumflex" xMin="44" yMin="-7" xMax="408" yMax="649">
      <component glyphName="c" x="0" y="0" flags="0x400"/>
      <component glyphName="uni0302" x="-6" y="0" flags="0x400"/>
    </TTGlyph>
    <TTGlyph name="cdotaccent" xMin="44" yMin="-7" xMax="373" yMax="648">
      <component glyphName="c" x="0" y="0" flags="0x400"/>
      <component glyphName="uni0307" x="-6" y="0" flags="0x400"/>
    </TTGlyph>
    <TTGlyph name="cedilla" xMin="47" yMin="-192" xMax="274" yMax="13">
      <component glyphName="uni0327" x="0" y="0" flags="0x400"/>
    </TTGlyph>
    <TTGlyph name="cent" xMin="53" yMin="-64" xMax="406" yMax="640">
      <contour>
        <pt x="342" y="464" on="0"/>
        <pt x="289" y="464" on="1"/>
        <pt x="219" y="464" on="0"/>
        <pt x="145" y="380" on="0"/>
        <pt x="126" y="283" on="1"/>
        <pt x="116" y="231" on="0"/>
        <pt x="116" y="203" on="1"/>
        <pt x="116" y="155" on="0"/>
        <pt x="161" y="112" on="0"/>
        <pt x="210" y="112" on="1"/>
        <pt x="258" y="112" on="0"/>
        <pt x="320" y="129" on="1"/>
        <pt x="325" y="75" on="1"/>
        <pt x="276" y="60" on="0"/>
        <pt x="219" y="57" on="1"/>
        <pt x="195" y="-64" on="1"/>
        <pt x="138" y="-64" on="1"/>
        <pt x="162" y="60" on="1"/>
        <pt x="53" y="79" on="0"/>
        <pt x="53" y="211" on="1"/>
        <pt x="53" y="250" on="0"/>
        <pt x="62" y="293" on="1"/>
        <pt x="103" y="497" on="0"/>
        <pt x="254" y="517" on="1"/>
        <pt x="278" y="640" on="1"/>
        <pt x="336" y="640" on="1"/>
        <pt x="311" y="518" on="1"/>
        <pt x="363" y="515" on="0"/>
        <pt x="406" y="499" on="1"/>
        <pt x="388" y="450" on="1"/>
      </contour>
    </TTGlyph>
    <TTGlyph name="chi" xMin="-56" yMin="-192" xMax="442" yMax="448">
      <contour>
        <pt x="442" y="448" on="1"/>
        <pt x="242" y="153" on="1"/>
        <pt x="280" y="102" on="0"/>
        <pt x="313" y="-5" on="0"/>
        <pt x="313" y="-78" on="1"/>
        <pt x="313" y="-117" on="0"/>
        <pt x="306" y="-192" on="1"/>
        <pt x="246" y="-192" on="1"/>
        <pt x="253" y="-110" on="0"/>
        <pt x="253" y="-72" on="1"/>
        <pt x="253" y="-15" on="0"/>
        <pt x="232" y="67" on="0"/>
        <pt x="208" y="103" on="1"/>
        <pt x="8" y="-192" on="1"/>
        <pt x="-56" y="-192" on="1"/>
        <pt x="170" y="142" on="1"/>
        <pt x="126" y="211" on="0"/>
        <pt x="96" y="345" on="0"/>
        <pt x="97" y="448" on="1"/>
        <pt x="158" y="448" on="1"/>
        <pt x="156" y="360" on="0"/>
        <pt x="176" y="249" on="0"/>
        <pt x="205" y="195" on="1"/>
        <pt x="376" y="448" on="1"/>
      </contour>
    </TTGlyph>
    <TTGlyph name="circle" xMin="59" yMin="124" xMax="389" yMax="452">
      <contour>
        <pt x="178" y="124" on="0"/>
        <pt x="102" y="167" on="0"/>
        <pt x="59" y="242" on="0"/>
        <pt x="59" y="288" on="1"/>
        <pt x="59" y="334" on="0"/>
        <pt x="102" y="409" on="0"/>
        <pt x="178" y="452" on="0"/>
        <pt x="224" y="452" on="1"/>
        <pt x="270" y="452" on="0"/>
        <pt x="346" y="409" on="0"/>
        <pt x="389" y="334" on="0"/>
        <pt x="389" y="288" on="1"/>
        <pt x="389" y="242" on="0"/>
        <pt x="346" y="167" on="0"/>
        <pt x="270" y="124" on="0"/>
        <pt x="224" y="124" on="1"/>
      </contour>
      <contour>
        <pt x="119" y="242" on="0"/>
        <pt x="180" y="180" on="0"/>
        <pt x="224" y="180" on="1"/>
        <pt x="268" y="180" on="0"/>
        <pt x="329" y="242" on="0"/>
        <pt x="329" y="288" on="1"/>
        <pt x="329" y="334" on="0"/>
        <pt x="268" y="396" on="0"/>
        <pt x="224" y="396" on="1"/>
        <pt x="180" y="396" on="0"/>
        <pt x="119" y="334" on="0"/>
        <pt x="119" y="288" on="1"/>
      </contour>
    </TTGlyph>
    <TTGlyph name="circumflex" xMin="147" yMin="511" xMax="414" yMax="649">
      <component glyphName="uni0302" x="0" y="0" flags="0x400"/>
    </TTGlyph>
    <TTGlyph name="club" xMin="32" yMin="64" xMax="416" yMax="512">
      <contour>
        <pt x="416" y="384" on="1"/>
        <pt x="378" y="192" on="1"/>
        <pt x="314" y="192" on="1"/>
        <pt x="326" y="256" on="1"/>
        <pt x="262" y="256" on="1"/>
        <pt x="237" y="128" on="1"/>
        <pt x="365" y="128" on="1"/>
        <pt x="352" y="64" on="1"/>
        <pt x="32" y="64" on="1"/>
        <pt x="45" y="128" on="1"/>
        <pt x="173" y="128" on="1"/>
        <pt x="198" y="256" on="1"/>
        <pt x="134" y="256" on="1"/>
        <pt x="122" y="192" on="1"/>
        <pt x="58" y="192" on="1"/>
        <pt x="96" y="384" on="1"/>
        <pt x="160" y="384" on="1"/>
        <pt x="147" y="320" on="1"/>
        <pt x="211" y="320" on="1"/>
        <pt x="237" y="448" on="1"/>
        <pt x="173" y="448" on="1"/>
        <pt x="186" y="512" on="1"/>
        <pt x="378" y="512" on="1"/>
        <pt x="365" y="448" on="1"/>
        <pt x="301" y="448" on="1"/>
        <pt x="275" y="320" on="1"/>
        <pt x="339" y="320" on="1"/>
        <pt x="352" y="384" on="1"/>
      </contour>
    </TTGlyph>
    <TTGlyph name="colon" xMin="33" yMin="-10" xMax="223" yMax="458">
      <contour>
        <pt x="63" y="-10" on="0"/>
        <pt x="33" y="16" on="0"/>
        <pt x="33" y="39" on="1"/>
        <pt x="33" y="71" on="0"/>
        <pt x="73" y="108" on="0"/>
        <pt x="101" y="108" on="1"/>
        <pt x="124" y="108" on="0"/>
        <pt x="153" y="81" on="0"/>
        <pt x="153" y="58" on="1"/>
        <pt x="153" y="26" on="0"/>
        <pt x="113" y="-10" on="0"/>
        <pt x="86" y="-10" on="1"/>
      </contour>
      <contour>
        <pt x="103" y="421" on="0"/>
        <pt x="143" y="458" on="0"/>
        <pt x="170" y="458" on="1"/>
        <pt x="193" y="458" on="0"/>
        <pt x="223" y="432" on="0"/>
        <pt x="223" y="409" on="1"/>
        <pt x="223" y="376" on="0"/>
        <pt x="183" y="340" on="0"/>
        <pt x="155" y="340" on="1"/>
        <pt x="133" y="340" on="0"/>
        <pt x="103" y="366" on="0"/>
        <pt x="103" y="389" on="1"/>
      </contour>
    </TTGlyph>
    <TTGlyph name="colon.alt" xMin="46" yMin="54" xMax="236" yMax="522">
      <component glyphName="colon" x="13" y="64" flags="0x404"/>
    </TTGlyph>
    <TTGlyph name="colonmonetary" xMin="60" yMin="-128" xMax="450" yMax="704">
      <contour>
        <pt x="114" y="19" on="1"/>
        <pt x="60" y="55" on="0"/>
        <pt x="60" y="155" on="1"/>
        <pt x="60" y="213" on="0"/>
        <pt x="76" y="292" on="1"/>
        <pt x="102" y="424" on="0"/>
        <pt x="190" y="556" on="0"/>
        <pt x="265" y="575" on="1"/>
        <pt x="300" y="704" on="1"/>
        <pt x="353" y="704" on="1"/>
        <pt x="320" y="582" on="1"/>
        <pt x="327" y="583" on="0"/>
        <pt x="341" y="583" on="1"/>
        <pt x="356" y="583" on="0"/>
        <pt x="364" y="582" on="1"/>
        <pt x="397" y="704" on="1"/>
        <pt x="450" y="704" on="1"/>
        <pt x="415" y="576" on="1"/>
        <pt x="425" y="575" on="0"/>
        <pt x="443" y="571" on="1"/>
        <pt x="426" y="520" on="1"/>
        <pt x="401" y="524" on="1"/>
        <pt x="272" y="48" on="1"/>
        <pt x="302" y="51" on="0"/>
        <pt x="334" y="57" on="1"/>
        <pt x="338" y="4" on="1"/>
        <pt x="302" y="-5" on="0"/>
        <pt x="257" y="-8" on="1"/>
        <pt x="225" y="-128" on="1"/>
        <pt x="172" y="-128" on="1"/>
        <pt x="204" y="-8" on="1"/>
        <pt x="182" y="-7" on="0"/>
        <pt x="162" y="-2" on="1"/>
        <pt x="128" y="-128" on="1"/>
        <pt x="75" y="-128" on="1"/>
      </contour>
      <contour>
        <pt x="246" y="506" on="1"/>
        <pt x="206" y="483" on="0"/>
        <pt x="161" y="379" on="0"/>
        <pt x="142" y="282" on="1"/>
        <pt x="124" y="192" on="0"/>
        <pt x="124" y="148" on="1"/>
        <pt x="124" y="112" on="0"/>
        <pt x="134" y="91" on="1"/>
      </contour>
      <contour>
        <pt x="193" y="50" on="0"/>
        <pt x="219" y="48" on="1"/>
        <pt x="349" y="527" on="1"/>
        <pt x="343" y="527" on="1"/>
        <pt x="328" y="527" on="0"/>
        <pt x="304" y="525" on="1"/>
        <pt x="177" y="55" on="1"/>
      </contour>
    </TTGlyph>
    <TTGlyph name="comma" xMin="8" yMin="-132" xMax="152" yMax="108">
      <contour>
        <pt x="36" y="-70" on="0"/>
        <pt x="74" y="-31" on="0"/>
        <pt x="84" y="-8" on="1"/>
        <pt x="59" y="-9" on="0"/>
        <pt x="33" y="17" on="0"/>
        <pt x="33" y="39" on="1"/>
        <pt x="33" y="69" on="0"/>
        <pt x="72" y="108" on="0"/>
        <pt x="98" y="108" on="1"/>
        <pt x="122" y="108" on="0"/>
        <pt x="152" y="79" on="0"/>
        <pt x="152" y="51" on="1"/>
        <pt x="152" y="39" on="0"/>
        <pt x="149" y="22" on="1"/>
        <pt x="133" y="-61" on="0"/>
        <pt x="37" y="-132" on="1"/>
        <pt x="8" y="-91" on="1"/>
      </contour>
    </TTGlyph>
    <TTGlyph name="copyright" xMin="11" yMin="13" xMax="450" yMax="499">
      <contour>
        <pt x="138" y="13" on="0"/>
        <pt x="59" y="55" on="0"/>
        <pt x="11" y="138" on="0"/>
        <pt x="11" y="196" on="1"/>
        <pt x="11" y="229" on="0"/>
        <pt x="18" y="261" on="1"/>
        <pt x="33" y="338" on="0"/>
        <pt x="114" y="445" on="0"/>
        <pt x="220" y="499" on="0"/>
        <pt x="274" y="499" on="1"/>
        <pt x="322" y="499" on="0"/>
        <pt x="402" y="458" on="0"/>
        <pt x="450" y="376" on="0"/>
        <pt x="450" y="317" on="1"/>
        <pt x="450" y="285" on="0"/>
        <pt x="443" y="251" on="1"/>
        <pt x="428" y="175" on="0"/>
        <pt x="347" y="67" on="0"/>
        <pt x="240" y="13" on="0"/>
        <pt x="186" y="13" on="1"/>
      </contour>
      <contour>
        <pt x="57" y="218" on="0"/>
        <pt x="57" y="191" on="1"/>
        <pt x="57" y="125" on="0"/>
        <pt x="125" y="57" on="0"/>
        <pt x="186" y="57" on="1"/>
        <pt x="263" y="57" on="0"/>
        <pt x="378" y="164" on="0"/>
        <pt x="398" y="261" on="1"/>
        <pt x="404" y="294" on="0"/>
        <pt x="404" y="320" on="1"/>
        <pt x="404" y="386" on="0"/>
        <pt x="336" y="455" on="0"/>
        <pt x="275" y="455" on="1"/>
        <pt x="197" y="455" on="0"/>
        <pt x="83" y="349" on="0"/>
        <pt x="63" y="251" on="1"/>
      </contour>
      <contour>
        <pt x="134" y="326" on="0"/>
        <pt x="206" y="397" on="0"/>
        <pt x="265" y="397" on="1"/>
        <pt x="305" y="397" on="0"/>
        <pt x="342" y="381" on="1"/>
        <pt x="324" y="345" on="1"/>
        <pt x="300" y="355" on="0"/>
        <pt x="267" y="355" on="1"/>
        <pt x="228" y="355" on="0"/>
        <pt x="181" y="307" on="0"/>
        <pt x="170" y="253" on="1"/>
        <pt x="166" y="233" on="0"/>
        <pt x="166" y="214" on="1"/>
        <pt x="166" y="186" on="0"/>
        <pt x="192" y="162" on="0"/>
        <pt x="220" y="162" on="1"/>
        <pt x="245" y="162" on="0"/>
        <pt x="287" y="173" on="1"/>
        <pt x="295" y="134" on="1"/>
        <pt x="257" y="120" on="0"/>
        <pt x="218" y="120" on="1"/>
        <pt x="167" y="120" on="0"/>
        <pt x="117" y="171" on="0"/>
        <pt x="117" y="217" on="1"/>
        <pt x="117" y="236" on="0"/>
        <pt x="122" y="263" on="1"/>
      </contour>
    </TTGlyph>
    <TTGlyph name="currency" xMin="19" yMin="59" xMax="454" yMax="517">
      <contour>
        <pt x="312" y="464" on="0"/>
        <pt x="346" y="444" on="1"/>
        <pt x="413" y="517" on="1"/>
        <pt x="454" y="483" on="1"/>
        <pt x="387" y="410" on="1"/>
        <pt x="416" y="373" on="0"/>
        <pt x="416" y="320" on="1"/>
        <pt x="416" y="300" on="0"/>
        <pt x="412" y="283" on="1"/>
        <pt x="405" y="247" on="0"/>
        <pt x="366" y="185" on="0"/>
        <pt x="338" y="161" on="1"/>
        <pt x="376" y="93" on="1"/>
        <pt x="324" y="59" on="1"/>
        <pt x="286" y="129" on="1"/>
        <pt x="247" y="112" on="0"/>
        <pt x="206" y="112" on="1"/>
        <pt x="162" y="112" on="0"/>
        <pt x="127" y="131" on="1"/>
        <pt x="61" y="59" on="1"/>
        <pt x="19" y="93" on="1"/>
        <pt x="87" y="166" on="1"/>
        <pt x="58" y="204" on="0"/>
        <pt x="58" y="258" on="1"/>
        <pt x="58" y="275" on="0"/>
        <pt x="61" y="293" on="1"/>
        <pt x="68" y="329" on="0"/>
        <pt x="107" y="391" on="0"/>
        <pt x="135" y="415" on="1"/>
        <pt x="98" y="483" on="1"/>
        <pt x="149" y="517" on="1"/>
        <pt x="187" y="447" on="1"/>
        <pt x="226" y="464" on="0"/>
        <pt x="267" y="464" on="1"/>
      </contour>
      <contour>
        <pt x="117" y="275" on="0"/>
        <pt x="117" y="260" on="1"/>
        <pt x="117" y="220" on="0"/>
        <pt x="167" y="168" on="0"/>
        <pt x="208" y="168" on="1"/>
        <pt x="246" y="168" on="0"/>
        <pt x="315" y="210" on="0"/>
        <pt x="357" y="279" on="0"/>
        <pt x="357" y="318" on="1"/>
        <pt x="357" y="358" on="0"/>
        <pt x="307" y="408" on="0"/>
        <pt x="265" y="408" on="1"/>
        <pt x="214" y="408" on="0"/>
        <pt x="130" y="335" on="0"/>
        <pt x="119" y="283" on="1"/>
      </contour>
    </TTGlyph>
    <TTGlyph name="d" xMin="38" yMin="-8" xMax="469" yMax="640">
      <contour>
        <pt x="291" y="39" on="1"/>
        <pt x="241" y="-8" on="0"/>
        <pt x="176" y="-8" on="1"/>
        <pt x="115" y="-8" on="0"/>
        <pt x="80" y="27" on="1"/>
        <pt x="38" y="69" on="0"/>
        <pt x="38" y="158" on="1"/>
        <pt x="38" y="226" on="0"/>
        <pt x="83" y="358" on="0"/>
        <pt x="126" y="401" on="1"/>
        <pt x="181" y="456" on="0"/>
        <pt x="258" y="456" on="1"/>
        <pt x="328" y="456" on="0"/>
        <pt x="360" y="409" on="1"/>
        <pt x="406" y="640" on="1"/>
        <pt x="469" y="640" on="1"/>
        <pt x="354" y="64" on="1"/>
        <pt x="343" y="0" on="1"/>
        <pt x="288" y="0" on="1"/>
      </contour>
      <contour>
        <pt x="105" y="92" on="0"/>
        <pt x="131" y="66" on="1"/>
        <pt x="150" y="47" on="0"/>
        <pt x="186" y="47" on="1"/>
        <pt x="218" y="47" on="0"/>
        <pt x="277" y="76" on="0"/>
        <pt x="300" y="104" on="1"/>
        <pt x="349" y="353" on="1"/>
        <pt x="327" y="402" on="0"/>
        <pt x="264" y="402" on="1"/>
        <pt x="213" y="402" on="0"/>
        <pt x="173" y="364" on="1"/>
        <pt x="139" y="330" on="0"/>
        <pt x="105" y="217" on="0"/>
        <pt x="105" y="158" on="1"/>
      </contour>
    </TTGlyph>
    <TTGlyph name="dagger" xMin="102" yMin="0" xMax="428" yMax="640">
      <contour>
        <pt x="299" y="454" on="1"/>
        <pt x="428" y="454" on="1"/>
        <pt x="417" y="400" on="1"/>
        <pt x="288" y="400" on="1"/>
        <pt x="208" y="0" on="1"/>
        <pt x="150" y="0" on="1"/>
        <pt x="230" y="400" on="1"/>
        <pt x="102" y="400" on="1"/>
        <pt x="113" y="454" on="1"/>
        <pt x="241" y="454" on="1"/>
        <pt x="278" y="640" on="1"/>
        <pt x="336" y="640" on="1"/>
      </contour>
    </TTGlyph>
    <TTGlyph name="daggerdbl" xMin="59" yMin="0" xMax="428" yMax="640">
      <contour>
        <pt x="299" y="454" on="1"/>
        <pt x="428" y="454" on="1"/>
        <pt x="416" y="398" on="1"/>
        <pt x="288" y="398" on="1"/>
        <pt x="256" y="242" on="1"/>
        <pt x="385" y="242" on="1"/>
        <pt x="374" y="186" on="1"/>
        <pt x="245" y="186" on="1"/>
        <pt x="208" y="0" on="1"/>
        <pt x="150" y="0" on="1"/>
        <pt x="187" y="186" on="1"/>
        <pt x="59" y="186" on="1"/>
        <pt x="70" y="242" on="1"/>
        <pt x="198" y="242" on="1"/>
        <pt x="230" y="398" on="1"/>
        <pt x="101" y="398" on="1"/>
        <pt x="113" y="454" on="1"/>
        <pt x="241" y="454" on="1"/>
        <pt x="278" y="640" on="1"/>
        <pt x="336" y="640" on="1"/>
      </contour>
    </TTGlyph>
    <TTGlyph name="dcaron" xMin="38" yMin="-8" xMax="616" yMax="640">
      <component glyphName="d" x="0" y="0" flags="0x400"/>
      <component glyphName="uni030C.alt" x="101" y="0" flags="0x400"/>
    </TTGlyph>
    <TTGlyph name="dcroat" xMin="38" yMin="-8" xMax="504" yMax="640">
      <component glyphName="d" x="0" y="0" flags="0x400"/>
      <component glyphName="uni0335" x="148" y="310" flags="0x404"/>
    </TTGlyph>
    <TTGlyph name="degree" xMin="150" yMin="377" xMax="424" yMax="647">
      <contour>
        <pt x="362" y="647" on="0"/>
        <pt x="424" y="583" on="0"/>
        <pt x="424" y="535" on="1"/>
        <pt x="424" y="495" on="0"/>
        <pt x="380" y="422" on="0"/>
        <pt x="307" y="377" on="0"/>
        <pt x="265" y="377" on="1"/>
        <pt x="213" y="377" on="0"/>
        <pt x="150" y="441" on="0"/>
        <pt x="150" y="489" on="1"/>
        <pt x="150" y="529" on="0"/>
        <pt x="193" y="602" on="0"/>
        <pt x="267" y="647" on="0"/>
        <pt x="310" y="647" on="1"/>
      </contour>
      <contour>
        <pt x="206" y="461" on="0"/>
        <pt x="235" y="428" on="0"/>
        <pt x="266" y="428" on="1"/>
        <pt x="297" y="428" on="0"/>
        <pt x="344" y="462" on="0"/>
        <pt x="368" y="512" on="0"/>
        <pt x="368" y="536" on="1"/>
        <pt x="368" y="562" on="0"/>
        <pt x="339" y="596" on="0"/>
        <pt x="308" y="596" on="1"/>
        <pt x="276" y="596" on="0"/>
        <pt x="229" y="561" on="0"/>
        <pt x="206" y="509" on="0"/>
        <pt x="206" y="486" on="1"/>
      </contour>
    </TTGlyph>
    <TTGlyph name="delta" xMin="38" yMin="-13" xMax="461" yMax="642">
      <contour>
        <pt x="113" y="-13" on="0"/>
        <pt x="38" y="67" on="0"/>
        <pt x="38" y="133" on="1"/>
        <pt x="38" y="152" on="0"/>
        <pt x="43" y="180" on="1"/>
        <pt x="72" y="322" on="0"/>
        <pt x="225" y="399" on="1"/>
        <pt x="202" y="421" on="0"/>
        <pt x="178" y="463" on="0"/>
        <pt x="178" y="492" on="1"/>
        <pt x="178" y="505" on="0"/>
        <pt x="181" y="521" on="1"/>
        <pt x="192" y="577" on="0"/>
        <pt x="285" y="642" on="0"/>
        <pt x="360" y="642" on="1"/>
        <pt x="405" y="642" on="0"/>
        <pt x="461" y="635" on="1"/>
        <pt x="450" y="581" on="1"/>
        <pt x="393" y="586" on="0"/>
        <pt x="356" y="586" on="1"/>
        <pt x="310" y="586" on="0"/>
        <pt x="252" y="548" on="0"/>
        <pt x="244" y="515" on="1"/>
        <pt x="243" y="510" on="0"/>
        <pt x="243" y="501" on="1"/>
        <pt x="243" y="476" on="0"/>
        <pt x="259" y="456" on="1"/>
        <pt x="268" y="445" on="0"/>
        <pt x="297" y="418" on="1"/>
        <pt x="336" y="384" on="0"/>
        <pt x="349" y="367" on="1"/>
        <pt x="394" y="309" on="0"/>
        <pt x="394" y="239" on="1"/>
        <pt x="394" y="212" on="0"/>
        <pt x="389" y="189" on="1"/>
        <pt x="370" y="97" on="0"/>
        <pt x="255" y="-13" on="0"/>
        <pt x="176" y="-13" on="1"/>
      </contour>
      <contour>
        <pt x="103" y="148" on="0"/>
        <pt x="103" y="130" on="1"/>
        <pt x="103" y="89" on="0"/>
        <pt x="144" y="43" on="0"/>
        <pt x="183" y="43" on="1"/>
        <pt x="238" y="43" on="0"/>
        <pt x="311" y="121" on="0"/>
        <pt x="325" y="195" on="1"/>
        <pt x="330" y="222" on="0"/>
        <pt x="330" y="239" on="1"/>
        <pt x="330" y="280" on="0"/>
        <pt x="297" y="337" on="0"/>
        <pt x="267" y="363" on="1"/>
        <pt x="191" y="324" on="0"/>
        <pt x="120" y="235" on="0"/>
        <pt x="108" y="173" on="1"/>
      </contour>
    </TTGlyph>
    <TTGlyph name="diamond" xMin="71" yMin="80" xMax="395" yMax="456">
      <contour>
        <pt x="247" y="456" on="1"/>
        <pt x="291" y="456" on="1"/>
        <pt x="395" y="284" on="1"/>
        <pt x="390" y="252" on="1"/>
        <pt x="218" y="80" on="1"/>
        <pt x="174" y="80" on="1"/>
        <pt x="71" y="252" on="1"/>
        <pt x="75" y="284" on="1"/>
      </contour>
    </TTGlyph>
    <TTGlyph name="dieresis" xMin="156" yMin="539" xMax="439" yMax="646">
      <component glyphName="uni0308" x="0" y="0" flags="0x400"/>
    </TTGlyph>
    <TTGlyph name="dieresistonos" xMin="117" yMin="512" xMax="481" yMax="704">
      <contour>
        <pt x="365" y="704" on="1"/>
        <pt x="298" y="512" on="1"/>
        <pt x="243" y="512" on="1"/>
        <pt x="294" y="704" on="1"/>
      </contour>
      <contour>
        <pt x="117" y="611" on="0"/>
        <pt x="154" y="646" on="0"/>
        <pt x="178" y="646" on="1"/>
        <pt x="200" y="646" on="0"/>
        <pt x="226" y="614" on="0"/>
        <pt x="222" y="590" on="1"/>
        <pt x="216" y="565" on="0"/>
        <pt x="183" y="539" on="0"/>
        <pt x="161" y="539" on="1"/>
        <pt x="143" y="539" on="0"/>
        <pt x="117" y="562" on="0"/>
        <pt x="117" y="581" on="1"/>
      </contour>
      <contour>
        <pt x="373" y="612" on="0"/>
        <pt x="409" y="646" on="0"/>
        <pt x="434" y="646" on="1"/>
        <pt x="455" y="646" on="0"/>
        <pt x="481" y="614" on="0"/>
        <pt x="477" y="590" on="1"/>
        <pt x="471" y="565" on="0"/>
        <pt x="438" y="539" on="0"/>
        <pt x="416" y="539" on="1"/>
        <pt x="397" y="539" on="0"/>
        <pt x="373" y="562" on="0"/>
        <pt x="373" y="582" on="1"/>
      </contour>
    </TTGlyph>
    <TTGlyph name="divide" xMin="31" yMin="67" xMax="442" yMax="509">
      <contour>
        <pt x="42" y="315" on="1"/>
        <pt x="442" y="315" on="1"/>
        <pt x="431" y="261" on="1"/>
        <pt x="31" y="261" on="1"/>
      </contour>
      <contour>
        <pt x="145" y="147" on="0"/>
        <pt x="185" y="185" on="0"/>
        <pt x="212" y="185" on="1"/>
        <pt x="235" y="185" on="0"/>
        <pt x="264" y="159" on="0"/>
        <pt x="264" y="136" on="1"/>
        <pt x="264" y="103" on="0"/>
        <pt x="225" y="67" on="0"/>
        <pt x="197" y="67" on="1"/>
        <pt x="174" y="67" on="0"/>
        <pt x="145" y="92" on="0"/>
        <pt x="145" y="115" on="1"/>
      </contour>
      <contour>
        <pt x="209" y="472" on="0"/>
        <pt x="249" y="509" on="0"/>
        <pt x="277" y="509" on="1"/>
        <pt x="300" y="509" on="0"/>
        <pt x="329" y="483" on="0"/>
        <pt x="329" y="460" on="1"/>
        <pt x="329" y="427" on="0"/>
        <pt x="289" y="391" on="0"/>
        <pt x="261" y="391" on="1"/>
        <pt x="238" y="391" on="0"/>
        <pt x="209" y="417" on="0"/>
        <pt x="209" y="440" on="1"/>
      </contour>
    </TTGlyph>
    <TTGlyph name="dkshade" xMin="0" yMin="-192" xMax="384" yMax="832">
      <contour>
        <pt x="64" y="-128" on="1"/>
        <pt x="0" y="-128" on="1"/>
        <pt x="0" y="64" on="1"/>
        <pt x="64" y="64" on="1"/>
        <pt x="64" y="128" on="1"/>
        <pt x="0" y="128" on="1"/>
        <pt x="0" y="320" on="1"/>
        <pt x="64" y="320" on="1"/>
        <pt x="64" y="384" on="1"/>
        <pt x="0" y="384" on="1"/>
        <pt x="0" y="576" on="1"/>
        <pt x="64" y="576" on="1"/>
        <pt x="64" y="640" on="1"/>
        <pt x="0" y="640" on="1"/>
        <pt x="0" y="832" on="1"/>
        <pt x="384" y="832" on="1"/>
        <pt x="384" y="768" on="1"/>
        <pt x="320" y="768" on="1"/>
        <pt x="320" y="704" on="1"/>
        <pt x="384" y="704" on="1"/>
        <pt x="384" y="512" on="1"/>
        <pt x="320" y="512" on="1"/>
        <pt x="320" y="448" on="1"/>
        <pt x="384" y="448" on="1"/>
        <pt x="384" y="256" on="1"/>
        <pt x="320" y="256" on="1"/>
        <pt x="320" y="192" on="1"/>
        <pt x="384" y="192" on="1"/>
        <pt x="384" y="0" on="1"/>
        <pt x="320" y="0" on="1"/>
        <pt x="320" y="-64" on="1"/>
        <pt x="384" y="-64" on="1"/>
        <pt x="384" y="-192" on="1"/>
        <pt x="320" y="-192" on="1"/>
        <pt x="320" y="-128" on="1"/>
        <pt x="256" y="-128" on="1"/>
        <pt x="256" y="-192" on="1"/>
        <pt x="192" y="-192" on="1"/>
        <pt x="192" y="-128" on="1"/>
        <pt x="128" y="-128" on="1"/>
        <pt x="128" y="-192" on="1"/>
        <pt x="64" y="-192" on="1"/>
      </contour>
      <contour>
        <pt x="128" y="-64" on="1"/>
        <pt x="128" y="0" on="1"/>
        <pt x="64" y="0" on="1"/>
        <pt x="64" y="-64" on="1"/>
      </contour>
      <contour>
        <pt x="128" y="192" on="1"/>
        <pt x="128" y="256" on="1"/>
        <pt x="64" y="256" on="1"/>
        <pt x="64" y="192" on="1"/>
      </contour>
      <contour>
        <pt x="128" y="448" on="1"/>
        <pt x="128" y="512" on="1"/>
        <pt x="64" y="512" on="1"/>
        <pt x="64" y="448" on="1"/>
      </contour>
      <contour>
        <pt x="128" y="704" on="1"/>
        <pt x="128" y="768" on="1"/>
        <pt x="64" y="768" on="1"/>
        <pt x="64" y="704" on="1"/>
      </contour>
      <contour>
        <pt x="192" y="64" on="1"/>
        <pt x="192" y="128" on="1"/>
        <pt x="128" y="128" on="1"/>
        <pt x="128" y="64" on="1"/>
      </contour>
      <contour>
        <pt x="192" y="320" on="1"/>
        <pt x="192" y="384" on="1"/>
        <pt x="128" y="384" on="1"/>
        <pt x="128" y="320" on="1"/>
      </contour>
      <contour>
        <pt x="192" y="576" on="1"/>
        <pt x="192" y="640" on="1"/>
        <pt x="128" y="640" on="1"/>
        <pt x="128" y="576" on="1"/>
      </contour>
      <contour>
        <pt x="256" y="-64" on="1"/>
        <pt x="256" y="0" on="1"/>
        <pt x="192" y="0" on="1"/>
        <pt x="192" y="-64" on="1"/>
      </contour>
      <contour>
        <pt x="256" y="192" on="1"/>
        <pt x="256" y="256" on="1"/>
        <pt x="192" y="256" on="1"/>
        <pt x="192" y="192" on="1"/>
      </contour>
      <contour>
        <pt x="256" y="448" on="1"/>
        <pt x="256" y="512" on="1"/>
        <pt x="192" y="512" on="1"/>
        <pt x="192" y="448" on="1"/>
      </contour>
      <contour>
        <pt x="256" y="704" on="1"/>
        <pt x="256" y="768" on="1"/>
        <pt x="192" y="768" on="1"/>
        <pt x="192" y="704" on="1"/>
      </contour>
      <contour>
        <pt x="320" y="64" on="1"/>
        <pt x="320" y="128" on="1"/>
        <pt x="256" y="128" on="1"/>
        <pt x="256" y="64" on="1"/>
      </contour>
      <contour>
        <pt x="320" y="320" on="1"/>
        <pt x="320" y="384" on="1"/>
        <pt x="256" y="384" on="1"/>
        <pt x="256" y="320" on="1"/>
      </contour>
      <contour>
        <pt x="320" y="576" on="1"/>
        <pt x="320" y="640" on="1"/>
        <pt x="256" y="640" on="1"/>
        <pt x="256" y="576" on="1"/>
      </contour>
    </TTGlyph>
    <TTGlyph name="dnblock" xMin="-5" yMin="-197" xMax="453" yMax="325">
      <contour>
        <pt x="-5" y="-197" on="1"/>
        <pt x="-5" y="325" on="1"/>
        <pt x="453" y="325" on="1"/>
        <pt x="453" y="-197" on="1"/>
      </contour>
    </TTGlyph>
    <TTGlyph name="dollar" xMin="16" yMin="-128" xMax="438" yMax="704">
      <contour>
        <pt x="148" y="-8" on="1"/>
        <pt x="71" y="-5" on="0"/>
        <pt x="16" y="23" on="1"/>
        <pt x="36" y="70" on="1"/>
        <pt x="96" y="48" on="0"/>
        <pt x="161" y="48" on="1"/>
        <pt x="235" y="48" on="0"/>
        <pt x="309" y="100" on="0"/>
        <pt x="309" y="145" on="1"/>
        <pt x="309" y="177" on="0"/>
        <pt x="265" y="217" on="0"/>
        <pt x="219" y="241" on="1"/>
        <pt x="179" y="263" on="0"/>
        <pt x="132" y="298" on="0"/>
        <pt x="98" y="354" on="0"/>
        <pt x="98" y="395" on="1"/>
        <pt x="98" y="469" on="0"/>
        <pt x="184" y="567" on="0"/>
        <pt x="266" y="580" on="1"/>
        <pt x="291" y="704" on="1"/>
        <pt x="349" y="704" on="1"/>
        <pt x="325" y="584" on="1"/>
        <pt x="383" y="584" on="0"/>
        <pt x="438" y="565" on="1"/>
        <pt x="423" y="516" on="1"/>
        <pt x="373" y="528" on="0"/>
        <pt x="323" y="528" on="1"/>
        <pt x="162" y="528" on="0"/>
        <pt x="162" y="400" on="1"/>
        <pt x="162" y="363" on="0"/>
        <pt x="210" y="318" on="0"/>
        <pt x="258" y="293" on="1"/>
        <pt x="295" y="273" on="0"/>
        <pt x="340" y="240" on="0"/>
        <pt x="372" y="188" on="0"/>
        <pt x="372" y="151" on="1"/>
        <pt x="372" y="88" on="0"/>
        <pt x="288" y="5" on="0"/>
        <pt x="207" y="-5" on="1"/>
        <pt x="183" y="-128" on="1"/>
        <pt x="125" y="-128" on="1"/>
      </contour>
    </TTGlyph>
    <TTGlyph name="dong" xMin="-19" yMin="-123" xMax="504" yMax="640">
      <component glyphName="dcroat" x="0" y="0" flags="0x400"/>
      <component glyphName="minus" x="-62" y="-384" flags="0x404"/>
    </TTGlyph>
    <TTGlyph name="dotaccent" xMin="240" yMin="535" xMax="355" yMax="648">
      <component glyphName="uni0307" x="0" y="0" flags="0x400"/>
    </TTGlyph>
    <TTGlyph name="dotbelowcomb" xMin="98" yMin="-175" xMax="213" yMax="-62">
      <component glyphName="uni0307" x="-142" y="-710" flags="0x404"/>
    </TTGlyph>
    <TTGlyph name="dotlessi" xMin="65" yMin="0" xMax="222" yMax="448">
      <contour>
        <pt x="149" y="392" on="1"/>
        <pt x="65" y="398" on="1"/>
        <pt x="75" y="448" on="1"/>
        <pt x="222" y="448" on="1"/>
        <pt x="132" y="0" on="1"/>
        <pt x="70" y="0" on="1"/>
      </contour>
    </TTGlyph>
    <TTGlyph name="dotlessi.cv02" xMin="36" yMin="0" xMax="188" yMax="448">
      <contour>
        <pt x="126" y="448" on="1"/>
        <pt x="188" y="448" on="1"/>
        <pt x="98" y="0" on="1"/>
        <pt x="36" y="0" on="1"/>
      </contour>
    </TTGlyph>
    <TTGlyph name="dotmath" xMin="65" yMin="229" xMax="185" yMax="347">
      <component glyphName="period" x="32" y="239" flags="0x404"/>
    </TTGlyph>
    <TTGlyph name="e" xMin="40" yMin="-13" xMax="386" yMax="461">
      <contour>
        <pt x="70" y="334" on="0"/>
        <pt x="173" y="461" on="0"/>
        <pt x="256" y="461" on="1"/>
        <pt x="320" y="461" on="0"/>
        <pt x="386" y="385" on="0"/>
        <pt x="386" y="314" on="1"/>
        <pt x="386" y="263" on="0"/>
        <pt x="370" y="203" on="1"/>
        <pt x="110" y="206" on="1"/>
        <pt x="103" y="170" on="0"/>
        <pt x="103" y="138" on="1"/>
        <pt x="103" y="87" on="0"/>
        <pt x="148" y="42" on="0"/>
        <pt x="197" y="42" on="1"/>
        <pt x="245" y="42" on="0"/>
        <pt x="310" y="63" on="1"/>
        <pt x="316" y="11" on="1"/>
        <pt x="250" y="-13" on="0"/>
        <pt x="188" y="-13" on="1"/>
        <pt x="40" y="-13" on="0"/>
        <pt x="40" y="141" on="1"/>
        <pt x="40" y="177" on="0"/>
        <pt x="50" y="229" on="1"/>
      </contour>
      <contour>
        <pt x="317" y="261" on="1"/>
        <pt x="324" y="301" on="0"/>
        <pt x="324" y="323" on="1"/>
        <pt x="324" y="365" on="0"/>
        <pt x="289" y="405" on="0"/>
        <pt x="253" y="405" on="1"/>
        <pt x="206" y="405" on="0"/>
        <pt x="142" y="336" on="0"/>
        <pt x="123" y="261" on="1"/>
      </contour>
    </TTGlyph>
    <TTGlyph name="eacute" xMin="40" yMin="-13" xMax="416" yMax="704">
      <component glyphName="e" x="0" y="0" flags="0x400"/>
      <component glyphName="acutecomb" x="-11" y="0" flags="0x400"/>
    </TTGlyph>
    <TTGlyph name="ebreve" xMin="40" yMin="-13" xMax="422" yMax="642">
      <component glyphName="e" x="0" y="0" flags="0x400"/>
      <component glyphName="uni0306" x="-11" y="0" flags="0x400"/>
    </TTGlyph>
    <TTGlyph name="ecaron" xMin="40" yMin="-13" xMax="432" yMax="647">
      <component glyphName="e" x="0" y="0" flags="0x400"/>
      <component glyphName="uni030C" x="-11" y="0" flags="0x400"/>
    </TTGlyph>
    <TTGlyph name="ecircumflex" xMin="40" yMin="-13" xMax="403" yMax="649">
      <component glyphName="e" x="0" y="0" flags="0x400"/>
      <component glyphName="uni0302" x="-11" y="0" flags="0x400"/>
    </TTGlyph>
    <TTGlyph name="edieresis" xMin="40" yMin="-13" xMax="428" yMax="646">
      <component glyphName="e" x="0" y="0" flags="0x400"/>
      <component glyphName="uni0308" x="-11" y="0" flags="0x400"/>
    </TTGlyph>
    <TTGlyph name="edotaccent" xMin="40" yMin="-13" xMax="386" yMax="648">
      <component glyphName="e" x="0" y="0" flags="0x400"/>
      <component glyphName="uni0307" x="-11" y="0" flags="0x400"/>
    </TTGlyph>
    <TTGlyph name="egrave" xMin="40" yMin="-13" xMax="386" yMax="704">
      <component glyphName="e" x="0" y="0" flags="0x400"/>
      <component glyphName="gravecomb" x="-11" y="0" flags="0x400"/>
    </TTGlyph>
    <TTGlyph name="eight" xMin="16" yMin="-11" xMax="433" yMax="586">
      <contour>
        <pt x="98" y="-11" on="0"/>
        <pt x="16" y="57" on="0"/>
        <pt x="16" y="113" on="1"/>
        <pt x="16" y="130" on="0"/>
        <pt x="19" y="146" on="1"/>
        <pt x="29" y="196" on="0"/>
        <pt x="98" y="276" on="0"/>
        <pt x="149" y="305" on="1"/>
        <pt x="99" y="350" on="0"/>
        <pt x="99" y="404" on="1"/>
        <pt x="99" y="419" on="0"/>
        <pt x="102" y="434" on="1"/>
        <pt x="115" y="500" on="0"/>
        <pt x="227" y="586" on="0"/>
        <pt x="299" y="586" on="1"/>
        <pt x="360" y="586" on="0"/>
        <pt x="433" y="522" on="0"/>
        <pt x="433" y="467" on="1"/>
        <pt x="433" y="456" on="0"/>
        <pt x="429" y="432" on="1"/>
        <pt x="421" y="392" on="0"/>
        <pt x="364" y="311" on="0"/>
        <pt x="315" y="279" on="1"/>
        <pt x="357" y="254" on="0"/>
        <pt x="399" y="200" on="0"/>
        <pt x="399" y="166" on="1"/>
        <pt x="399" y="122" on="0"/>
        <pt x="342" y="40" on="0"/>
        <pt x="239" y="-11" on="0"/>
        <pt x="174" y="-11" on="1"/>
      </contour>
      <contour>
        <pt x="82" y="141" on="0"/>
        <pt x="82" y="129" on="1"/>
        <pt x="82" y="91" on="0"/>
        <pt x="136" y="45" on="0"/>
        <pt x="191" y="45" on="1"/>
        <pt x="252" y="45" on="0"/>
        <pt x="323" y="98" on="0"/>
        <pt x="330" y="132" on="1"/>
        <pt x="332" y="144" on="0"/>
        <pt x="332" y="150" on="1"/>
        <pt x="332" y="176" on="0"/>
        <pt x="283" y="223" on="0"/>
        <pt x="217" y="258" on="1"/>
        <pt x="185" y="277" on="1"/>
        <pt x="136" y="252" on="0"/>
        <pt x="92" y="191" on="0"/>
        <pt x="85" y="154" on="1"/>
      </contour>
      <contour>
        <pt x="165" y="387" on="0"/>
        <pt x="213" y="334" on="0"/>
        <pt x="277" y="301" on="1"/>
        <pt x="348" y="354" on="0"/>
        <pt x="364" y="428" on="1"/>
        <pt x="367" y="442" on="0"/>
        <pt x="367" y="454" on="1"/>
        <pt x="367" y="488" on="0"/>
        <pt x="325" y="530" on="0"/>
        <pt x="282" y="530" on="1"/>
        <pt x="223" y="530" on="0"/>
        <pt x="165" y="460" on="0"/>
        <pt x="165" y="416" on="1"/>
      </contour>
    </TTGlyph>
    <TTGlyph name="eight.dnom" xMin="-19" yMin="-198" xMax="227" yMax="134">
      <component glyphName="uni2078" x="-102" y="-512" flags="0x404"/>
    </TTGlyph>
    <TTGlyph name="eight.numr" xMin="83" yMin="314" xMax="329" yMax="646">
      <component glyphName="uni2078" x="0" y="0" flags="0x400"/>
    </TTGlyph>
    <TTGlyph name="eight.osf" xMin="16" yMin="-11" xMax="433" yMax="586">
      <component glyphName="eight" x="0" y="0" flags="0x400"/>
    </TTGlyph>
    <TTGlyph name="ellipsis" xMin="33" yMin="-10" xMax="665" yMax="108">
      <component glyphName="period" x="0" y="0" flags="0x400"/>
      <component glyphName="period" x="256" y="0" flags="0x400"/>
      <component glyphName="period" x="512" y="0" flags="0x400"/>
    </TTGlyph>
    <TTGlyph name="emacron" xMin="40" yMin="-13" xMax="412" yMax="621">
      <component glyphName="e" x="0" y="0" flags="0x400"/>
      <component glyphName="uni0304" x="-11" y="0" flags="0x400"/>
    </TTGlyph>
    <TTGlyph name="emdash" xMin="-3" yMin="260" xMax="476" yMax="316">
      <contour>
        <pt x="-3" y="260" on="1"/>
        <pt x="8" y="316" on="1"/>
        <pt x="476" y="316" on="1"/>
        <pt x="465" y="260" on="1"/>
      </contour>
    </TTGlyph>
    <TTGlyph name="emptyset" xMin="-6" yMin="-12" xMax="454" yMax="588">
      <contour>
        <pt x="169" y="60" on="0"/>
        <pt x="124" y="81" on="1"/>
        <pt x="64" y="-12" on="1"/>
        <pt x="14" y="10" on="1"/>
        <pt x="78" y="109" on="1"/>
        <pt x="38" y="140" on="0"/>
        <pt x="-6" y="233" on="0"/>
        <pt x="-6" y="288" on="1"/>
        <pt x="-6" y="353" on="0"/>
        <pt x="54" y="457" on="0"/>
        <pt x="159" y="517" on="0"/>
        <pt x="224" y="517" on="1"/>
        <pt x="280" y="517" on="0"/>
        <pt x="328" y="494" on="1"/>
        <pt x="389" y="588" on="1"/>
        <pt x="439" y="566" on="1"/>
        <pt x="374" y="465" on="1"/>
        <pt x="412" y="434" on="0"/>
        <pt x="454" y="342" on="0"/>
        <pt x="454" y="288" on="1"/>
        <pt x="454" y="224" on="0"/>
        <pt x="394" y="120" on="0"/>
        <pt x="289" y="60" on="0"/>
        <pt x="224" y="60" on="1"/>
      </contour>
      <contour>
        <pt x="55" y="247" on="0"/>
        <pt x="83" y="179" on="0"/>
        <pt x="108" y="155" on="1"/>
        <pt x="298" y="448" on="1"/>
        <pt x="265" y="463" on="0"/>
        <pt x="224" y="463" on="1"/>
        <pt x="148" y="463" on="0"/>
        <pt x="55" y="367" on="0"/>
        <pt x="55" y="288" on="1"/>
      </contour>
      <contour>
        <pt x="184" y="114" on="0"/>
        <pt x="224" y="114" on="1"/>
        <pt x="300" y="114" on="0"/>
        <pt x="393" y="210" on="0"/>
        <pt x="393" y="288" on="1"/>
        <pt x="393" y="370" on="0"/>
        <pt x="343" y="418" on="1"/>
        <pt x="154" y="127" on="1"/>
      </contour>
    </TTGlyph>
    <TTGlyph name="endash" xMin="96" yMin="260" xMax="377" yMax="316">
      <component glyphName="hyphen" x="0" y="0" flags="0x400"/>
    </TTGlyph>
    <TTGlyph name="eng" xMin="17" yMin="-197" xMax="406" yMax="452">
      <contour>
        <pt x="93" y="378" on="1"/>
        <pt x="105" y="448" on="1"/>
        <pt x="161" y="448" on="1"/>
        <pt x="155" y="390" on="1"/>
        <pt x="233" y="452" on="0"/>
        <pt x="301" y="452" on="1"/>
        <pt x="349" y="452" on="0"/>
        <pt x="406" y="402" on="0"/>
        <pt x="406" y="349" on="1"/>
        <pt x="406" y="331" on="0"/>
        <pt x="401" y="303" on="1"/>
        <pt x="341" y="0" on="1"/>
        <pt x="339" y="-10" on="1"/>
        <pt x="325" y="-81" on="0"/>
        <pt x="258" y="-168" on="0"/>
        <pt x="187" y="-197" on="1"/>
        <pt x="168" y="-144" on="1"/>
        <pt x="217" y="-124" on="0"/>
        <pt x="266" y="-65" on="0"/>
        <pt x="276" y="-10" on="1"/>
        <pt x="339" y="305" on="1"/>
        <pt x="343" y="324" on="0"/>
        <pt x="343" y="342" on="1"/>
        <pt x="343" y="370" on="0"/>
        <pt x="316" y="396" on="0"/>
        <pt x="287" y="396" on="1"/>
        <pt x="226" y="396" on="0"/>
        <pt x="145" y="329" on="1"/>
        <pt x="80" y="0" on="1"/>
        <pt x="17" y="0" on="1"/>
      </contour>
    </TTGlyph>
    <TTGlyph name="eogonek" xMin="40" yMin="-197" xMax="386" yMax="461">
      <component glyphName="e" x="0" y="0" flags="0x400"/>
      <component glyphName="uni0328" x="-56" y="0" flags="0x400"/>
    </TTGlyph>
    <TTGlyph name="epsilon" xMin="30" yMin="-7" xMax="406" yMax="455">
      <contour>
        <pt x="106" y="-7" on="0"/>
        <pt x="30" y="49" on="0"/>
        <pt x="30" y="94" on="1"/>
        <pt x="30" y="107" on="0"/>
        <pt x="33" y="119" on="1"/>
        <pt x="49" y="203" on="0"/>
        <pt x="141" y="232" on="1"/>
        <pt x="111" y="242" on="0"/>
        <pt x="80" y="281" on="0"/>
        <pt x="80" y="309" on="1"/>
        <pt x="80" y="323" on="0"/>
        <pt x="82" y="331" on="1"/>
        <pt x="92" y="384" on="0"/>
        <pt x="188" y="455" on="0"/>
        <pt x="278" y="455" on="1"/>
        <pt x="351" y="455" on="0"/>
        <pt x="406" y="435" on="1"/>
        <pt x="385" y="384" on="1"/>
        <pt x="337" y="399" on="0"/>
        <pt x="271" y="399" on="1"/>
        <pt x="161" y="399" on="0"/>
        <pt x="145" y="328" on="1"/>
        <pt x="144" y="324" on="0"/>
        <pt x="144" y="315" on="1"/>
        <pt x="144" y="289" on="0"/>
        <pt x="188" y="259" on="0"/>
        <pt x="234" y="259" on="1"/>
        <pt x="328" y="259" on="1"/>
        <pt x="317" y="205" on="1"/>
        <pt x="224" y="205" on="1"/>
        <pt x="162" y="205" on="0"/>
        <pt x="97" y="149" on="0"/>
        <pt x="97" y="110" on="1"/>
        <pt x="97" y="49" on="0"/>
        <pt x="203" y="49" on="1"/>
        <pt x="267" y="49" on="0"/>
        <pt x="332" y="66" on="1"/>
        <pt x="334" y="13" on="1"/>
        <pt x="270" y="-7" on="0"/>
        <pt x="189" y="-7" on="1"/>
      </contour>
    </TTGlyph>
    <TTGlyph name="epsilontonos" xMin="30" yMin="-7" xMax="406" yMax="704">
      <contour>
        <pt x="106" y="-7" on="0"/>
        <pt x="30" y="49" on="0"/>
        <pt x="30" y="94" on="1"/>
        <pt x="30" y="107" on="0"/>
        <pt x="33" y="119" on="1"/>
        <pt x="49" y="203" on="0"/>
        <pt x="141" y="232" on="1"/>
        <pt x="111" y="242" on="0"/>
        <pt x="80" y="281" on="0"/>
        <pt x="80" y="309" on="1"/>
        <pt x="80" y="323" on="0"/>
        <pt x="82" y="331" on="1"/>
        <pt x="92" y="384" on="0"/>
        <pt x="188" y="455" on="0"/>
        <pt x="278" y="455" on="1"/>
        <pt x="351" y="455" on="0"/>
        <pt x="406" y="435" on="1"/>
        <pt x="385" y="384" on="1"/>
        <pt x="337" y="399" on="0"/>
        <pt x="271" y="399" on="1"/>
        <pt x="161" y="399" on="0"/>
        <pt x="145" y="328" on="1"/>
        <pt x="144" y="324" on="0"/>
        <pt x="144" y="315" on="1"/>
        <pt x="144" y="289" on="0"/>
        <pt x="188" y="259" on="0"/>
        <pt x="234" y="259" on="1"/>
        <pt x="328" y="259" on="1"/>
        <pt x="317" y="205" on="1"/>
        <pt x="224" y="205" on="1"/>
        <pt x="162" y="205" on="0"/>
        <pt x="97" y="149" on="0"/>
        <pt x="97" y="110" on="1"/>
        <pt x="97" y="49" on="0"/>
        <pt x="203" y="49" on="1"/>
        <pt x="267" y="49" on="0"/>
        <pt x="332" y="66" on="1"/>
        <pt x="334" y="13" on="1"/>
        <pt x="270" y="-7" on="0"/>
        <pt x="189" y="-7" on="1"/>
      </contour>
      <contour>
        <pt x="307" y="704" on="1"/>
        <pt x="378" y="704" on="1"/>
        <pt x="312" y="512" on="1"/>
        <pt x="256" y="512" on="1"/>
      </contour>
    </TTGlyph>
    <TTGlyph name="equal" xMin="24" yMin="183" xMax="450" yMax="393">
      <contour>
        <pt x="24" y="183" on="1"/>
        <pt x="35" y="237" on="1"/>
        <pt x="419" y="237" on="1"/>
        <pt x="408" y="183" on="1"/>
      </contour>
      <contour>
        <pt x="66" y="393" on="1"/>
        <pt x="450" y="393" on="1"/>
        <pt x="439" y="339" on="1"/>
        <pt x="55" y="339" on="1"/>
      </contour>
    </TTGlyph>
    <TTGlyph name="equivalence" xMin="13" yMin="126" xMax="461" yMax="450">
      <contour>
        <pt x="13" y="126" on="1"/>
        <pt x="23" y="180" on="1"/>
        <pt x="407" y="180" on="1"/>
        <pt x="397" y="126" on="1"/>
      </contour>
      <contour>
        <pt x="50" y="315" on="1"/>
        <pt x="434" y="315" on="1"/>
        <pt x="423" y="261" on="1"/>
        <pt x="39" y="261" on="1"/>
      </contour>
      <contour>
        <pt x="77" y="450" on="1"/>
        <pt x="461" y="450" on="1"/>
        <pt x="450" y="396" on="1"/>
        <pt x="66" y="396" on="1"/>
      </contour>
    </TTGlyph>
    <TTGlyph name="estimated" xMin="46" yMin="-13" xMax="403" yMax="461">
      <contour>
        <pt x="116" y="-13" on="0"/>
        <pt x="46" y="75" on="0"/>
        <pt x="46" y="147" on="1"/>
        <pt x="46" y="178" on="0"/>
        <pt x="55" y="227" on="1"/>
        <pt x="75" y="330" on="0"/>
        <pt x="186" y="461" on="0"/>
        <pt x="274" y="461" on="1"/>
        <pt x="340" y="461" on="0"/>
        <pt x="403" y="381" on="0"/>
        <pt x="403" y="311" on="1"/>
        <pt x="403" y="274" on="0"/>
        <pt x="393" y="221" on="1"/>
        <pt x="388" y="196" on="1"/>
        <pt x="154" y="196" on="1"/>
        <pt x="144" y="138" on="0"/>
        <pt x="144" y="109" on="1"/>
        <pt x="144" y="71" on="0"/>
        <pt x="174" y="37" on="0"/>
        <pt x="209" y="37" on="1"/>
        <pt x="257" y="37" on="0"/>
        <pt x="308" y="53" on="1"/>
        <pt x="317" y="6" on="1"/>
        <pt x="250" y="-13" on="0"/>
        <pt x="193" y="-13" on="1"/>
      </contour>
      <contour>
        <pt x="293" y="247" on="1"/>
        <pt x="307" y="319" on="0"/>
        <pt x="307" y="353" on="1"/>
        <pt x="307" y="384" on="0"/>
        <pt x="287" y="411" on="0"/>
        <pt x="265" y="411" on="1"/>
        <pt x="229" y="411" on="0"/>
        <pt x="184" y="335" on="0"/>
        <pt x="165" y="247" on="1"/>
      </contour>
    </TTGlyph>
    <TTGlyph name="eta" xMin="17" yMin="-192" xMax="406" yMax="452">
      <contour>
        <pt x="93" y="378" on="1"/>
        <pt x="105" y="448" on="1"/>
        <pt x="161" y="448" on="1"/>
        <pt x="155" y="390" on="1"/>
        <pt x="233" y="452" on="0"/>
        <pt x="301" y="452" on="1"/>
        <pt x="349" y="452" on="0"/>
        <pt x="406" y="402" on="0"/>
        <pt x="406" y="349" on="1"/>
        <pt x="406" y="331" on="0"/>
        <pt x="401" y="303" on="1"/>
        <pt x="302" y="-192" on="1"/>
        <pt x="240" y="-192" on="1"/>
        <pt x="339" y="305" on="1"/>
        <pt x="344" y="328" on="0"/>
        <pt x="344" y="343" on="1"/>
        <pt x="344" y="370" on="0"/>
        <pt x="316" y="396" on="0"/>
        <pt x="287" y="396" on="1"/>
        <pt x="226" y="396" on="0"/>
        <pt x="145" y="329" on="1"/>
        <pt x="80" y="0" on="1"/>
        <pt x="17" y="0" on="1"/>
      </contour>
    </TTGlyph>
    <TTGlyph name="etatonos" xMin="17" yMin="-192" xMax="406" yMax="704">
      <component glyphName="eta" x="0" y="0" flags="0x400"/>
      <component glyphName="tonos" x="0" y="0" flags="0x400"/>
    </TTGlyph>
</ttFont>
